<?xml version="1.0" encoding="utf-8"?>
<!-- Generator: Adobe Illustrator 24.1.3, SVG Export Plug-In . SVG Version: 6.00 Build 0)  -->
<svg version="1.1" id="Layer_1" xmlns="http://www.w3.org/2000/svg" xmlns:xlink="http://www.w3.org/1999/xlink" x="0px" y="0px"
	 viewBox="0 0 40 40" style="enable-background:new 0 0 40 40;" xml:space="preserve">
<style type="text/css">
	.st0{fill:#1A1300;}
	.st1{fill:#1CDA33;}
	.st2{fill:#90F231;}
	.st3{fill:#FBE42E;}
	.st4{fill:#03B415;}
	.st5{fill:#FCA22E;}
	.st6{fill:#03B416;}
	.st7{fill:#67C10F;}
	.st8{fill:#FCA22D;}
	.st9{fill:#8FF130;}
	.st10{fill:#FBA22D;}
	.st11{fill:#67C10E;}
	.st12{fill:#FAE32D;}
	.st13{fill:#FBA22E;}
	.st14{fill:#FBE42D;}
	.st15{fill:#FAE32E;}
	.st16{fill:#67C00F;}
	.st17{fill:#FAA12D;}
	.st18{fill:#FAA12C;}
	.st19{fill:#F9A12B;}
	.st20{fill:#F9A12D;}
	.st21{fill:#F9A12C;}
	.st22{fill:#F7E02C;}
	.st23{fill:#F7A02B;}
	.st24{fill:#F9E22C;}
	.st25{fill:#F49E2A;}
	.st26{fill:#F3DC2A;}
	.st27{fill:#F1DC2A;}
	.st28{fill:#F6DE2B;}
	.st29{fill:#F8E02B;}
	.st30{fill:#F2D92A;}
	.st31{fill:#80D827;}
	.st32{fill:#B7A71F;}
	.st33{fill:#5AA50C;}
	.st34{fill:#53940B;}
	.st35{fill:#0A810D;}
	.st36{fill:#837516;}
	.st37{fill:#518F0A;}
	.st38{fill:#786C14;}
	.st39{fill:#114D08;}
	.st40{fill:#569C0C;}
	.st41{fill:#9B671A;}
	.st42{fill:#BFAF21;}
	.st43{fill:#3B5D07;}
	.st44{fill:#079110;}
	.st45{fill:#457608;}
	.st46{fill:#FFFCEF;}
	.st47{fill:#FFFCEE;}
	.st48{fill:#FFFCED;}
	.st49{fill:#FFFBEB;}
	.st50{fill:#FFFCEC;}
	.st51{fill:#FFFBEA;}
</style>
<desc>Created with Sketch.</desc>
<g id="Symbols">
	<g id="Group-7">
	</g>
</g>
<g>
	<path class="st0" d="M15.4,17c-0.1-0.1-0.1-0.2-0.2-0.2c-0.1-0.1-0.2-0.2-0.2-0.4c0-0.2,0.1-0.4,0.2-0.5c0.1-0.1,0.3-0.1,0.4-0.1
		c0.2,0,0.4,0,0.6,0c0,0,0.1,0,0.1,0c0-0.2-0.1-0.3-0.2-0.4c-0.3-0.5-0.6-0.9-0.9-1.4c-0.2-0.2-0.3-0.5-0.4-0.7
		c0-0.1-0.1-0.2-0.1-0.4c0-0.2,0.1-0.4,0.3-0.5c0.1-0.1,0.3-0.1,0.5-0.1c0-0.1,0-0.1,0-0.1c-0.3-0.3-0.5-0.6-0.8-0.8
		c-0.3-0.3-0.6-0.6-0.8-0.9c-0.2-0.2-0.3-0.5-0.3-0.7c0-0.3,0.1-0.6,0.4-0.7c0.2,0,0.3,0,0.5,0c0.6,0.1,1.2,0.3,1.7,0.6
		c0,0,0,0,0.1,0c0,0,0-0.1,0-0.1c-0.2-0.5-0.4-1-0.7-1.5c-0.1-0.3-0.3-0.5-0.4-0.8C15.1,7.1,15,6.9,15,6.7c0-0.2,0-0.4,0.2-0.6
		c0.1-0.1,0.3-0.2,0.5-0.1c0.2,0,0.4,0.1,0.6,0.1c0.5,0.1,1,0.3,1.4,0.5c0,0,0,0,0.1,0c0-0.1,0-0.2,0-0.3c0-0.5-0.1-0.9-0.3-1.4
		c-0.1-0.2-0.1-0.4-0.1-0.6c0-0.1,0-0.2,0-0.3c0.1-0.3,0.3-0.5,0.7-0.4c0.2,0,0.4,0.1,0.6,0.3c0.4,0.3,0.7,0.6,1,1c0,0,0,0,0.1,0.1
		c0,0,0-0.1,0-0.1c0.2-0.4,0.5-0.8,0.7-1.2c0.3-0.4,0.5-0.8,0.7-1.2c0.1-0.2,0.2-0.4,0.4-0.6c0.1-0.1,0.2-0.1,0.3-0.2
		c0.2,0,0.4,0.1,0.6,0.3c0.1,0.1,0.1,0.3,0.2,0.4C22.8,2.9,22.9,3.5,23,4c0.1,0.5,0.1,1,0.1,1.6c0,0.1,0,0.3,0,0.5
		c0.1,0,0.1-0.1,0.1-0.1c0.3-0.4,0.7-0.7,1.2-0.9c0.1-0.1,0.3-0.2,0.5-0.2c0.1,0,0.2,0,0.4,0c0.2,0.1,0.4,0.3,0.4,0.5
		c0,0.2,0,0.3-0.1,0.5c-0.2,0.6-0.4,1.3-0.5,2C25,8.3,25,8.7,24.9,9.1c0,0,0,0,0,0C25,9.1,25.1,9,25.3,9c0.3-0.1,0.6-0.2,0.9-0.2
		c0.3-0.1,0.6-0.1,0.9,0c0,0,0.1,0,0.1,0c0.3,0.1,0.5,0.4,0.4,0.7c-0.1,0.2-0.2,0.4-0.3,0.5c-0.3,0.4-0.6,0.7-1,1
		c-0.6,0.5-1.1,1-1.7,1.5c-0.3,0.3-0.5,0.6-0.8,0.9c0,0,0,0.1-0.1,0.1c0,0,0.1,0,0.1,0c0.5-0.2,1-0.3,1.5-0.3c0.1,0,0.3,0,0.4,0
		c0.2,0,0.4,0,0.5,0.1c0.3,0.1,0.4,0.4,0.3,0.8c-0.1,0.2-0.2,0.3-0.3,0.5c-0.2,0.2-0.4,0.3-0.5,0.4c-0.5,0.4-1,0.8-1.5,1.3
		c-0.2,0.2-0.3,0.3-0.5,0.5c0,0,0,0,0,0.1c0.3,0,0.5-0.1,0.8-0.1c0.4,0,0.9,0,1.3,0.1c0.1,0,0.3,0.1,0.4,0.2
		c0.3,0.2,0.3,0.5,0.1,0.8c-0.2,0.2-0.4,0.4-0.7,0.5c-0.3,0.2-0.7,0.3-1,0.4c-0.2,0.1-0.4,0.1-0.6,0.2c-0.1,0-0.1,0-0.2,0.1
		c0,0,0.1,0,0.1,0c0.9,0.2,1.7,0.7,2.3,1.4c0.4,0.4,0.6,0.9,0.9,1.3c0.4,0.7,0.6,1.5,0.8,2.2c0.2,0.6,0.3,1.3,0.3,2
		c0.1,1,0.1,2,0.1,3c0,0.7,0,1.4-0.1,2.1c-0.1,1.3-0.4,2.5-0.8,3.8c-0.2,0.5-0.5,1.1-0.8,1.5c-0.4,0.7-1,1.1-1.8,1.5
		c-0.5,0.2-1,0.4-1.5,0.6c-0.4,0.1-0.9,0.2-1.3,0.3c-0.6,0.1-1.3,0.2-1.9,0.2c-0.4,0-0.7,0-1.1-0.1c-0.3,0-0.6-0.1-1-0.1
		c-0.7-0.1-1.5-0.2-2.2-0.5c-1.1-0.5-2-1.2-2.8-2.2c-0.5-0.7-0.9-1.5-1.2-2.4c-0.2-0.5-0.3-1-0.4-1.5c-0.1-0.4-0.1-0.8-0.2-1.3
		c-0.1-0.8-0.1-1.5,0-2.3c0-0.8,0.1-1.7,0.2-2.5c0.1-0.8,0.3-1.5,0.4-2.2c0.2-0.6,0.3-1.2,0.6-1.8c0.4-0.8,0.9-1.4,1.5-1.9
		c0.4-0.4,0.9-0.7,1.4-1c0,0,0,0,0,0c0.1-0.1,0.1,0,0-0.1c-0.1-0.2-0.2-0.3-0.4-0.4c-0.2-0.1-0.3-0.2-0.5-0.3
		c-0.2-0.1-0.3-0.1-0.5-0.2c-0.2-0.2-0.2-0.4-0.2-0.6c0-0.1,0.1-0.2,0.2-0.3c0.1-0.1,0.3-0.2,0.5-0.2C15,17.2,15.2,17.1,15.4,17
		C15.4,17,15.4,17,15.4,17z"/>
	<path class="st1" d="M27,9.5c-0.1,0.1-0.2,0.3-0.3,0.4c-0.5,0.5-1,1-1.6,1.5c-0.5,0.4-0.9,0.9-1.4,1.4c-0.4,0.5-0.7,0.9-0.8,1.5
		c0,0.1,0,0.1-0.1,0.1c-0.4,0.2-0.7,0.5-1,0.9c0,0,0,0-0.1,0c0-0.3,0.1-0.5,0.1-0.8c0-0.1,0-0.2,0-0.3c0-0.2-0.2-0.3-0.4-0.2
		c0,0-0.1,0-0.1,0c0-0.1,0-0.1,0-0.2c0.3-0.6,0.7-1.2,1.2-1.8c0.7-0.7,1.4-1.2,2.2-1.7c0.6-0.3,1.2-0.6,1.8-0.8
		c0.1,0,0.1-0.1,0.2-0.1C26.9,9.5,26.9,9.5,27,9.5z"/>
	<path class="st1" d="M18.8,10.6c-0.1-0.1-0.2-0.2-0.3-0.2c0,0-0.1,0-0.1-0.1c-0.1-0.1-0.2,0-0.3,0.1c0,0.1-0.1,0.2-0.1,0.3
		c0,0.2,0,0.5,0,0.7c0,0.2,0,0.4,0,0.6c-0.1,0-0.1,0-0.1-0.1c-0.3-0.5-0.6-1-1-1.4c0,0-0.1-0.1-0.1-0.2c-0.1-0.8-0.3-1.6-0.7-2.3
		c-0.2-0.3-0.4-0.7-0.6-1c-0.1-0.2-0.2-0.4-0.3-0.6c0.1,0,0.1,0,0.1,0C15.7,6.8,15.9,6.9,16,7c0.5,0.4,0.9,0.7,1.3,1.2
		c0.6,0.7,1.1,1.5,1.5,2.4C18.9,10.6,18.9,10.6,18.8,10.6z"/>
	<path class="st2" d="M21.9,2.6C22,3,22,3.4,22.1,3.8c0,0.6,0,1.1,0,1.7c0,0.4-0.1,0.8-0.1,1.1c0,0-0.1,0-0.1-0.1
		c-0.1-0.1-0.1-0.1-0.2-0.2c-0.1-0.1-0.3-0.1-0.3,0.1c-0.1,0.1-0.1,0.2-0.1,0.2c0,0.1-0.1,0.3-0.1,0.4c-0.1,0.4-0.2,0.7-0.3,1.1
		c0-0.1,0-0.2-0.1-0.2c-0.1-0.4-0.2-0.9-0.4-1.3c0,0,0,0,0,0c-0.1-0.3,0-0.5,0-0.8c0.2-1,0.6-2,1.1-2.9c0.1-0.2,0.2-0.3,0.3-0.5
		C21.9,2.5,21.9,2.4,21.9,2.6z"/>
	<path class="st2" d="M21.5,6.9c0.1,0.3,0.1,0.6,0.1,0.8c0,0.5,0,1,0,1.6c0,0.6-0.2,1.3-0.4,1.9c-0.1,0.3-0.2,0.7-0.4,1
		c-0.1,0.2-0.3,0.4-0.4,0.7c-0.1-0.1-0.2-0.3-0.3-0.4c-0.1-0.3-0.1-0.7-0.1-1c0-0.5,0.2-1,0.3-1.5c0.2-0.4,0.3-0.8,0.5-1.2
		c0.2-0.5,0.4-1.1,0.5-1.7C21.5,6.9,21.5,6.9,21.5,6.9z"/>
	<path class="st2" d="M17.9,4.1c0.1,0,0.2,0.1,0.2,0.1c0.6,0.4,1.1,1,1.5,1.6c0.4,0.7,0.7,1.4,0.8,2.2c0,0.2,0.1,0.4,0.1,0.6
		c0,0.1,0,0.1,0,0.1c-0.2,0.5-0.4,0.9-0.6,1.4c0-0.1-0.1-0.3-0.1-0.4c-0.1-0.9-0.2-1.9-0.4-2.8c-0.2-0.9-0.5-1.7-1.1-2.4
		C18.2,4.4,18.1,4.3,17.9,4.1C18,4.1,18,4.1,17.9,4.1z"/>
	<path class="st1" d="M26,14c-0.2,0.3-0.5,0.5-0.8,0.7c-0.4,0.3-0.8,0.6-1.2,1c-0.4,0.4-0.8,0.8-1,1.3c0,0.1-0.1,0.2-0.1,0.3
		c0,0,0,0.1-0.1,0.1c-0.2,0-0.3,0.1-0.5,0.1c0,0,0,0,0,0c0,0,0,0,0,0c0,0,0-0.1,0-0.2c0.2-0.9,0.6-1.6,1.2-2.2
		c0.6-0.6,1.4-1,2.2-1.2c0.1,0,0.2,0,0.2-0.1C25.9,14,25.9,13.9,26,14z"/>
	<path class="st3" d="M16.5,30.5c0.1-0.1,0.2-0.1,0.3-0.2c0.4-0.2,0.8-0.5,1.2-0.7c0.1-0.1,0.1-0.1,0.2,0c0.5,0.4,1,0.8,1.5,1.2
		c0,0,0,0,0.1,0.1c0,0.1,0,0.1-0.1,0.1c-0.4,0.3-0.8,0.5-1.2,0.6c-0.4,0.1-0.7,0.1-1.1-0.1c-0.3-0.2-0.6-0.5-0.9-0.8
		C16.5,30.6,16.4,30.6,16.5,30.5z"/>
	<path class="st3" d="M16.1,33.3c0.2-0.1,0.4-0.2,0.6-0.2c0.4-0.2,0.8-0.4,1.2-0.5c0.1,0,0.1,0,0.2,0c0.5,0.4,1.1,0.8,1.7,1.2
		c0,0,0,0,0,0c0,0,0,0.1-0.1,0.1c-0.4,0.2-0.8,0.4-1.3,0.5c-0.5,0.1-0.9,0-1.4-0.2c-0.3-0.2-0.6-0.4-0.8-0.7
		C16.1,33.4,16.1,33.3,16.1,33.3z"/>
	<path class="st3" d="M20.7,33.7c0.2-0.1,0.4-0.3,0.6-0.4c0.4-0.2,0.7-0.5,1.1-0.7c0,0,0.1-0.1,0.1,0c0.6,0.3,1.2,0.6,1.8,0.8
		c0,0,0,0.1,0,0.1c-0.4,0.3-0.8,0.6-1.3,0.8c-0.4,0.1-0.8,0.1-1.2,0c-0.4-0.1-0.7-0.3-1-0.4C20.7,33.8,20.7,33.8,20.7,33.7z"/>
	<path class="st3" d="M18.5,29.3c0.2-0.1,0.3-0.2,0.5-0.3c0.4-0.2,0.7-0.5,1.1-0.8c0,0,0.1-0.1,0.1,0c0.5,0.4,1,0.8,1.6,1.1
		c0,0,0,0.1,0,0.1c-0.3,0.3-0.7,0.6-1.1,0.8c-0.4,0.2-0.7,0.1-1.1-0.1C19.2,29.9,18.9,29.7,18.5,29.3C18.5,29.4,18.5,29.4,18.5,29.3
		z"/>
	<path class="st2" d="M24.8,5.7c-0.3,0.4-0.5,0.8-0.6,1.2c-0.2,0.6-0.5,1.2-0.8,1.8c-0.2,0.5-0.4,1-0.6,1.6c0,0,0,0.1,0,0.1
		c0,0,0,0,0,0c0-0.2,0-0.5,0-0.7c0-0.3-0.1-0.6-0.1-0.9c0,0,0,0,0-0.1c0-0.1,0-0.2,0-0.4c0.4-1.1,1.1-1.9,2.1-2.5
		C24.8,5.6,24.8,5.6,24.8,5.7z"/>
	<path class="st3" d="M18.2,34.9c0.3-0.1,0.5-0.2,0.8-0.3c0.4-0.2,0.8-0.4,1.1-0.6c0.1,0,0.1,0,0.1,0c0.6,0.4,1.3,0.7,1.9,0.9
		c0,0,0,0,0,0c0,0.1,0,0.1-0.1,0.1c-0.5,0.3-1,0.6-1.6,0.7c-0.5,0.1-1,0-1.4-0.2c-0.3-0.1-0.6-0.3-0.9-0.5
		C18.2,35,18.2,35,18.2,34.9z"/>
	<path class="st3" d="M20.6,27.9c0.2-0.2,0.4-0.3,0.6-0.5c0.3-0.2,0.6-0.5,0.8-0.7c0.1,0,0.1-0.1,0.1,0c0.5,0.4,1,0.8,1.6,1.1
		c0,0.1,0,0.1-0.1,0.1c-0.3,0.2-0.5,0.4-0.8,0.6c0,0-0.1,0-0.1,0.1c-0.4,0.2-0.7,0.2-1.1,0c-0.4-0.2-0.7-0.4-1-0.7
		C20.6,27.9,20.6,27.9,20.6,27.9z"/>
	<path class="st3" d="M18.3,32.2c0.2-0.1,0.4-0.2,0.5-0.3c0.4-0.2,0.8-0.5,1.2-0.7c0.1,0,0.1-0.1,0.2,0c0.5,0.3,1,0.7,1.6,1
		c0,0,0,0,0.1,0c0,0,0,0.1,0,0.1c-0.4,0.3-0.7,0.5-1.1,0.7c-0.5,0.2-1,0.1-1.4-0.1c-0.3-0.2-0.6-0.3-0.8-0.5
		C18.4,32.3,18.3,32.3,18.3,32.2z"/>
	<path class="st1" d="M19.2,15.5c-0.3-0.5-0.6-0.9-1-1.2c0,0-0.1-0.1,0-0.1c0.2-0.6,0.2-1.3,0.2-2c0-0.3,0-0.6,0-0.9
		c0-0.1,0-0.1,0-0.2c0.1,0,0.1,0.1,0.2,0.1c0.3,0.4,0.5,0.9,0.6,1.3c0.1,0.7,0.2,1.3,0.2,2c0,0.2,0,0.4,0,0.7
		C19.2,15.3,19.3,15.4,19.2,15.5z"/>
	<path class="st3" d="M15.9,35.6c0.4-0.1,0.7-0.2,1.1-0.3c0.2-0.1,0.4-0.1,0.6-0.2c0.1,0,0.1,0,0.1,0c0.6,0.4,1.2,0.9,1.9,1.2
		c0,0,0,0,0,0c0,0.1-0.1,0.1-0.1,0.1c-0.4,0.2-0.9,0.3-1.4,0.4c-0.3,0-0.6,0-0.9-0.2c-0.5-0.2-0.9-0.6-1.3-1
		C15.9,35.7,15.9,35.7,15.9,35.6z"/>
	<path class="st2" d="M20.8,14.5c-0.4,0.3-0.7,0.6-1.1,1c0-0.1,0-0.2,0-0.3c0-0.7,0-1.3-0.2-2c-0.1-0.7-0.4-1.4-0.8-2.1
		c0.1,0,0.1,0,0.1,0c0.2,0.2,0.3,0.3,0.4,0.5c0.5,0.7,1,1.4,1.3,2.2c0.1,0.2,0.1,0.4,0.2,0.5C20.8,14.3,20.8,14.4,20.8,14.5
		L20.8,14.5C20.8,14.4,20.8,14.4,20.8,14.5z"/>
	<path class="st1" d="M25.7,17.7c-0.2,0.1-0.4,0.2-0.6,0.3c-0.4,0.2-0.9,0.4-1.3,0.5c-0.4,0.2-0.7,0.4-1,0.7c0,0-0.1,0.1-0.1,0.1
		c-0.4,0-0.8,0-1.2,0.1c-0.1,0-0.2,0-0.3,0c0,0-0.1,0-0.1,0c-0.1,0-0.1,0,0-0.1c0-0.1,0.1-0.1,0.1-0.1c0.4-0.4,0.9-0.6,1.4-0.8
		c0.9-0.3,1.7-0.6,2.7-0.7c0.1,0,0.3,0,0.4,0C25.7,17.7,25.7,17.7,25.7,17.7z"/>
	<path class="st3" d="M14.6,31.4c0.5-0.2,0.9-0.4,1.4-0.6c0,0,0.1,0,0.1,0c0.4,0.4,0.9,0.9,1.4,1.3c0,0.1,0,0.1-0.1,0.1
		c-0.3,0.2-0.6,0.3-1,0.4c-0.5,0.2-0.8,0.1-1.2-0.3c-0.2-0.2-0.4-0.5-0.6-0.7C14.6,31.5,14.5,31.5,14.6,31.4z"/>
	<path class="st3" d="M16.7,27.6c0.3-0.2,0.6-0.4,1-0.7c0.2-0.1,0.3-0.2,0.5-0.4c0,0,0.1,0,0.1,0c0.5,0.4,1,0.9,1.4,1.3
		c0,0.1,0,0.1-0.1,0.1c-0.3,0.2-0.5,0.4-0.8,0.5c-0.4,0.2-0.9,0.2-1.3-0.1c-0.3-0.2-0.6-0.5-0.9-0.7C16.7,27.7,16.7,27.7,16.7,27.6z
		"/>
	<path class="st1" d="M18.8,19.3c-0.1,0-0.1,0-0.2-0.1c-0.4-0.1-0.8-0.2-1.2-0.1c-0.1,0-0.1,0-0.1-0.1c-0.2-0.6-0.5-1.2-0.9-1.7
		c-0.2-0.2-0.4-0.4-0.5-0.6c0-0.1,0.1,0,0.2,0c0.4,0.1,0.7,0.3,1.1,0.5c0.7,0.5,1.3,1.2,1.7,2C18.8,19.2,18.8,19.3,18.8,19.3z"/>
	<path class="st1" d="M21.6,14.8c0,0.2,0,0.4-0.1,0.6c-0.1,0.5-0.1,1,0,1.5c0,0.3,0.1,0.6,0.1,0.9c0,0.1,0,0.1-0.1,0.1
		c-0.4,0.2-0.7,0.4-1.1,0.6c-0.1,0-0.1-0.1-0.1-0.1c0-0.2,0-0.3,0-0.5c0.1-0.9,0.3-1.7,0.7-2.5c0.1-0.2,0.2-0.4,0.4-0.6
		C21.5,14.8,21.5,14.7,21.6,14.8z"/>
	<path class="st3" d="M20.8,36.4c0.2-0.1,0.3-0.2,0.5-0.3c0.5-0.3,0.9-0.5,1.4-0.8c0.1,0,0.1-0.1,0.2,0c0.6,0.2,1.1,0.3,1.7,0.4
		c0,0,0,0,0,0c0,0.1,0,0.1-0.1,0.1c-0.4,0.3-0.7,0.6-1.1,0.9c-0.4,0.2-0.8,0.3-1.3,0.2C21.7,36.8,21.3,36.6,20.8,36.4
		C20.8,36.4,20.8,36.4,20.8,36.4z"/>
	<path class="st3" d="M18.6,26.2c0.3-0.2,0.6-0.5,0.9-0.7c0.2-0.1,0.3-0.3,0.5-0.4c0,0,0.1-0.1,0.1,0c0.5,0.4,0.9,0.8,1.4,1.2
		c0,0.1,0,0.1,0,0.1c-0.2,0.2-0.5,0.4-0.8,0.6c-0.5,0.3-0.8,0.3-1.3,0c-0.3-0.2-0.6-0.4-0.8-0.7C18.7,26.3,18.6,26.3,18.6,26.2
		L18.6,26.2C18.6,26.3,18.6,26.3,18.6,26.2z"/>
	<path class="st3" d="M14.8,28.7c0.4-0.2,0.7-0.4,1.1-0.6c0.1-0.1,0.2-0.1,0.3-0.2c0.1-0.1,0.1-0.1,0.2,0c0.4,0.4,0.8,0.8,1.2,1.1
		c0.1,0.1,0.1,0.1,0.2,0.2c0,0.1,0,0.1-0.1,0.1c-0.3,0.2-0.6,0.4-1,0.5c-0.4,0.1-0.8,0-1.2-0.3c-0.3-0.2-0.5-0.5-0.7-0.7
		C14.8,28.8,14.8,28.7,14.8,28.7z"/>
	<path class="st1" d="M18.2,16.7c-0.3-0.2-0.7-0.3-1-0.4c-0.1,0-0.1-0.1-0.1-0.1c-0.1-0.3-0.2-0.5-0.3-0.8c-0.2-0.4-0.4-0.8-0.7-1.1
		c-0.2-0.3-0.4-0.6-0.6-0.9c0-0.1-0.1-0.1-0.1-0.2c0,0,0.1,0,0.1,0c0.5,0.2,0.8,0.5,1.2,0.9c0.4,0.4,0.7,0.8,1,1.3
		c0.2,0.4,0.4,0.7,0.5,1.1C18.3,16.7,18.3,16.7,18.2,16.7z"/>
	<path class="st3" d="M18.2,37.4c0.4-0.1,0.8-0.2,1.2-0.4c0.2-0.1,0.4-0.2,0.7-0.3c0.1,0,0.1,0,0.2,0c0.6,0.3,1.3,0.5,1.9,0.7
		c0.1,0.1,0,0.1-0.1,0.1c-0.2,0.1-0.4,0.2-0.6,0.3c-0.4,0.1-0.7,0.2-1.1,0.2c-0.3,0-0.5,0-0.8-0.1c-0.4-0.1-0.9-0.3-1.3-0.5
		C18.3,37.4,18.2,37.4,18.2,37.4z"/>
	<path class="st1" d="M25.1,5.7c0,0.2-0.1,0.4-0.1,0.5c-0.1,0.5-0.2,0.9-0.3,1.4c-0.1,0.7-0.2,1.3-0.5,1.9c0,0.1-0.1,0.1-0.1,0.2
		c-0.2,0.1-0.4,0.2-0.5,0.3c-0.1,0-0.1,0-0.1-0.1c0-0.2,0-0.4,0.1-0.6c0.2-0.9,0.5-1.8,0.9-2.6c0.2-0.3,0.4-0.7,0.6-1
		C25,5.7,25,5.7,25.1,5.7z"/>
	<path class="st3" d="M22.4,26.3c0.1-0.1,0.2-0.2,0.3-0.3c0.3-0.3,0.5-0.5,0.8-0.8c0,0,0.1-0.1,0.1,0c0.5,0.4,1,0.7,1.5,1.1
		c0,0,0,0.1,0,0.1c-0.2,0.3-0.5,0.5-0.8,0.7c-0.3,0.1-0.6,0.1-0.9,0C23.1,26.8,22.8,26.6,22.4,26.3C22.5,26.4,22.4,26.3,22.4,26.3z"
		/>
	<path class="st2" d="M19.7,11.3c0,0.1,0,0.1,0,0.2c-0.1-0.1-0.2-0.2-0.3-0.3c-0.4-1.4-1-2.6-2.1-3.5C17,7.3,16.6,7,16.2,6.7
		c0-0.1,0.1,0,0.1,0c0.5,0.1,1,0.4,1.4,0.7c1,0.9,1.6,2,1.9,3.3c0,0.2,0.1,0.3,0,0.5l0,0C19.6,11.2,19.7,11.2,19.7,11.3z"/>
	<path class="st3" d="M20.6,30.8c0.1-0.1,0.2-0.2,0.3-0.2c0.4-0.3,0.8-0.6,1.2-0.9c0,0,0.1-0.1,0.2,0c0.5,0.3,1,0.6,1.5,0.9
		c0,0,0,0,0,0c0,0,0,0.1,0,0.1c-0.3,0.3-0.6,0.5-0.9,0.7c-0.5,0.3-0.9,0.2-1.4,0c-0.3-0.1-0.5-0.3-0.8-0.4
		C20.7,30.9,20.6,30.9,20.6,30.8z"/>
	<path class="st1" d="M19.2,8.5c-0.3-0.4-0.6-0.8-0.9-1.1c0,0-0.1-0.1-0.1-0.1c0-0.2,0-0.5,0-0.7c0-0.7-0.1-1.3-0.4-2
		c0-0.1-0.1-0.2-0.1-0.3c0.1,0,0.1,0,0.1,0.1c0.3,0.4,0.5,0.8,0.7,1.2c0.3,0.6,0.5,1.2,0.5,1.8c0,0.3,0.1,0.6,0,0.9
		C19.3,8.4,19.3,8.5,19.2,8.5z"/>
	<path class="st3" d="M17.1,24.7c0.1-0.1,0.1-0.1,0.2-0.2c0.4-0.3,0.8-0.6,1.2-0.9c0,0,0.1-0.1,0.1-0.1c0,0,0,0,0.1,0.1
		c0.4,0.4,0.7,0.7,1.1,1.1c0,0,0,0,0,0c0,0,0,0.1,0,0.1c-0.3,0.3-0.6,0.5-0.9,0.7c-0.3,0.2-0.6,0.2-0.9,0
		C17.6,25.3,17.3,25,17.1,24.7C17.1,24.8,17,24.7,17.1,24.7z"/>
	<path class="st3" d="M22.7,29.3c0.3-0.3,0.7-0.6,1-0.9c0.1-0.1,0.2-0.2,0.4-0.3c0,0,0.1,0,0.1,0c0.5,0.3,0.9,0.5,1.4,0.8
		c0,0,0,0.1,0,0.1c-0.3,0.3-0.5,0.6-0.9,0.8c-0.3,0.2-0.7,0.2-1,0.1c-0.3-0.1-0.6-0.3-0.9-0.4C22.7,29.4,22.7,29.4,22.7,29.3z"/>
	<path class="st3" d="M24.8,30.5c0.1-0.1,0.3-0.3,0.4-0.4c0.3-0.3,0.5-0.6,0.8-0.9c0.1-0.1,0.1-0.1,0.2-0.1c0.4,0.2,0.9,0.3,1.3,0.5
		c0.1,0,0,0.1,0,0.1c-0.2,0.3-0.4,0.6-0.7,0.9c-0.3,0.3-0.6,0.4-1.1,0.3C25.4,30.8,25.1,30.7,24.8,30.5
		C24.8,30.6,24.8,30.5,24.8,30.5z"/>
	<path class="st3" d="M23,32.1c0.3-0.3,0.6-0.5,1-0.8c0.1-0.1,0.2-0.2,0.3-0.3c0.1-0.1,0.1-0.1,0.2,0c0.4,0.2,0.8,0.4,1.2,0.6
		c0.1,0,0.2,0.1,0.3,0.1c0.1,0,0,0.1,0,0.1c-0.3,0.3-0.5,0.6-0.9,0.8c-0.4,0.2-0.8,0.1-1.1,0c-0.3-0.1-0.5-0.2-0.8-0.3
		C23.1,32.2,23,32.2,23,32.1z"/>
	<path class="st1" d="M17.5,13.7c-0.3-0.2-0.5-0.4-0.8-0.5c0,0-0.1,0-0.1-0.1c-0.2-0.5-0.5-0.9-0.8-1.3c-0.2-0.2-0.4-0.5-0.7-0.7
		c-0.3-0.3-0.6-0.6-0.8-0.9c0-0.1-0.1-0.1-0.1-0.2c0-0.1,0.1,0,0.1,0c0.2,0.1,0.5,0.2,0.7,0.4c0.5,0.3,0.8,0.7,1.2,1.1
		c0.5,0.5,0.9,1.1,1.2,1.8C17.5,13.4,17.5,13.5,17.5,13.7C17.6,13.7,17.6,13.7,17.5,13.7z"/>
	<path class="st3" d="M14.3,33.9c0.4-0.1,0.8-0.3,1.2-0.4c0.1,0,0.1,0,0.1,0c0.5,0.5,0.9,0.9,1.4,1.3c0,0.1-0.1,0.1-0.1,0.1
		c-0.3,0.1-0.7,0.2-1.1,0.3c-0.3,0-0.6-0.1-0.8-0.2c-0.3-0.2-0.6-0.6-0.9-0.9C14.3,33.9,14.3,33.9,14.3,33.9z"/>
	<path class="st4" d="M27,9.5C26.9,9.5,26.9,9.5,27,9.5c-0.7,0.2-1.2,0.4-1.8,0.7c-0.4,0.2-0.7,0.4-1.1,0.7
		c-0.3,0.2-0.6,0.4-0.8,0.6c-0.2,0.2-0.4,0.4-0.6,0.6c-0.4,0.4-0.7,0.8-1,1.3c-0.1,0.2-0.2,0.4-0.3,0.6c0,0,0,0,0,0.1
		c0,0-0.1,0.1-0.1,0.1c-0.1,0,0-0.1,0-0.2c0.2-0.7,0.5-1.3,1-1.8c0.5-0.6,1.1-1.1,1.8-1.5c0.5-0.3,1.1-0.6,1.6-0.9
		c0.3-0.2,0.7-0.3,1.1-0.4c0.1,0,0.2,0,0.3,0c0.1,0,0.1,0,0.1,0.1C27,9.4,27,9.5,27,9.5z"/>
	<path class="st3" d="M20.5,24.7c0.3-0.3,0.5-0.5,0.8-0.8c0.1-0.1,0.3-0.3,0.4-0.4c0.2,0.2,0.4,0.3,0.5,0.5c0.3,0.2,0.6,0.5,0.9,0.7
		c0,0,0.1,0.1,0.1,0.1c0,0,0,0.1,0,0.1c-0.2,0.2-0.5,0.5-0.8,0.7c-0.3,0.2-0.6,0.2-0.9,0c-0.4-0.2-0.7-0.5-1-0.8
		C20.5,24.8,20.4,24.8,20.5,24.7z"/>
	<path class="st5" d="M18.2,37.4C18.2,37.4,18.3,37.4,18.2,37.4c0.5,0.3,1,0.5,1.5,0.6c0.2,0,0.4,0.1,0.6,0.1c0.2,0,0.5,0,0.7-0.1
		c0.4-0.1,0.7-0.2,1-0.4c0,0,0.1,0,0-0.1c0.2,0,0.3,0.1,0.5,0.1c0,0.1-0.1,0.1-0.1,0.1c-0.6,0.4-1.3,0.7-2,0.9
		c-0.3,0.1-0.5,0.1-0.8,0c-0.7-0.2-1.3-0.5-1.9-0.8c-0.1,0-0.1-0.1-0.2-0.1C17.9,37.4,18.1,37.4,18.2,37.4z"/>
	<path class="st3" d="M13.3,29.4c0.2-0.1,0.4-0.2,0.6-0.3c0.1-0.1,0.3-0.1,0.4-0.2c0.1,0,0.1,0,0.2,0c0.3,0.4,0.6,0.8,0.9,1.1
		c0.1,0.1,0.2,0.2,0.3,0.3c0,0.1,0,0.1-0.1,0.1c-0.3,0.1-0.6,0.3-0.9,0.3c-0.2,0-0.5-0.1-0.7-0.2C13.7,30.2,13.5,29.8,13.3,29.4
		C13.3,29.4,13.3,29.4,13.3,29.4z"/>
	<path class="st2" d="M25.1,9.9c-0.5,0.3-1.1,0.6-1.6,1c-0.7,0.5-1.2,1-1.7,1.7c-0.2,0.4-0.4,0.8-0.6,1.2c0,0,0,0.1-0.1,0.1
		c-0.1-0.2-0.2-0.5-0.4-0.7c0-0.1,0-0.1,0.1-0.1c0.3-0.5,0.6-0.9,1.1-1.3c0.6-0.5,1.2-1,1.9-1.4c0.4-0.2,0.8-0.4,1.2-0.5
		C25,9.8,25.1,9.8,25.1,9.9C25.1,9.9,25.1,9.9,25.1,9.9C25.1,9.9,25.1,9.9,25.1,9.9z"/>
	<path class="st3" d="M23.3,34.8c0.3-0.2,0.6-0.4,0.8-0.7c0.2-0.2,0.4-0.4,0.6-0.5c0,0,0.1-0.1,0.1,0c0.5,0.2,1,0.3,1.5,0.4
		c0,0,0,0.1,0,0.1c-0.3,0.4-0.7,0.7-1.2,0.9c-0.4,0.1-0.8,0.1-1.1,0c-0.2,0-0.3-0.1-0.5-0.1C23.4,34.9,23.3,34.9,23.3,34.8z"/>
	<path class="st2" d="M19.9,19c-0.1,0.2-0.3,0.3-0.4,0.5c-0.1,0.1-0.2,0-0.2,0c-0.2-0.5-0.5-1-0.9-1.4c-0.5-0.5-0.9-0.9-1.5-1.3
		c-0.1,0-0.1-0.1-0.2-0.1c0-0.1,0.1,0,0.1,0c0.8,0.3,1.6,0.7,2.3,1.2c0.3,0.3,0.6,0.6,0.8,1C19.9,18.8,19.9,18.9,19.9,19z"/>
	<path class="st3" d="M15.3,25.9c0.1-0.1,0.2-0.1,0.3-0.2c0.3-0.2,0.6-0.5,1-0.7c0,0,0.1-0.1,0.1,0c0.4,0.4,0.7,0.8,1.1,1.2
		c0,0,0,0,0,0c0,0,0,0.1,0,0.1c-0.3,0.2-0.7,0.5-1.1,0.6c-0.3,0.1-0.6,0-0.8-0.2c-0.2-0.2-0.4-0.4-0.5-0.6
		C15.3,26,15.3,26,15.3,25.9z"/>
	<path class="st3" d="M17.6,21.7c0.3-0.3,0.5-0.6,0.8-0.8c0.1-0.1,0.2-0.2,0.3-0.4c0.1,0.1,0.2,0.2,0.3,0.3c0.2,0.3,0.5,0.6,0.8,0.9
		c0,0,0,0,0.1,0.1c0,0.1,0,0.1,0,0.1c-0.2,0.2-0.4,0.4-0.7,0.6c-0.1,0.1-0.2,0.1-0.4,0.2c-0.2,0-0.4-0.1-0.5-0.3
		c-0.2-0.2-0.3-0.4-0.5-0.6C17.6,21.8,17.6,21.7,17.6,21.7z"/>
	<path class="st2" d="M20.8,15.1c-0.2,0.3-0.3,0.7-0.5,1c-0.2,0.5-0.2,0.9-0.3,1.4c0,0.2,0,0.5,0,0.7c-0.3-0.4-0.6-0.7-1-1
		c0,0,0-0.1,0-0.1c0.4-0.7,0.8-1.3,1.4-1.8c0.1-0.1,0.2-0.1,0.3-0.2C20.7,15,20.7,15,20.8,15.1z"/>
	<path class="st3" d="M23.3,21.8c0.2-0.3,0.5-0.6,0.7-1c0-0.1,0.1-0.1,0.1-0.2c0.1,0.1,0.3,0.3,0.4,0.4c0.3,0.3,0.6,0.5,1,0.8
		c0,0,0,0.1,0,0.1c-0.1,0.2-0.3,0.4-0.4,0.6c-0.3,0.2-0.5,0.3-0.8,0.1C23.8,22.5,23.6,22.2,23.3,21.8C23.3,21.9,23.3,21.9,23.3,21.8
		z"/>
	<path class="st5" d="M18.2,34.9c0.4,0.3,0.8,0.5,1.3,0.7c0.2,0.1,0.4,0.1,0.6,0.1c0.5,0,0.9-0.1,1.3-0.3c0.3-0.1,0.5-0.3,0.8-0.4
		c0,0,0.1,0,0.1-0.1c0.1,0,0.2,0.1,0.3,0.1c0,0,0,0.1-0.1,0.1c-0.7,0.5-1.4,0.9-2.2,1.2c-0.1,0-0.1,0-0.2,0
		c-0.7-0.4-1.5-0.8-2.1-1.3c0,0,0,0-0.1-0.1C18,35,18.1,35,18.2,34.9z"/>
	<path class="st3" d="M15.9,23.2c0.2-0.1,0.4-0.3,0.5-0.4c0.3-0.2,0.5-0.4,0.7-0.7c0,0,0.1-0.1,0.1-0.1c0.1,0.1,0.1,0.1,0.1,0.2
		c0.2,0.3,0.5,0.6,0.7,0.9c0,0,0.1,0.1,0.1,0.1c-0.1,0.1-0.2,0.2-0.3,0.3c-0.2,0.2-0.4,0.3-0.6,0.4c-0.4,0.3-0.8,0.2-1.2-0.1
		c-0.1-0.1-0.2-0.3-0.3-0.4C15.9,23.3,15.9,23.3,15.9,23.2z"/>
	<path class="st3" d="M25,23.4c0.1-0.2,0.3-0.4,0.4-0.7c0.1-0.2,0.2-0.4,0.4-0.6c0.1-0.1,0.1-0.1,0.1,0c0.3,0.1,0.5,0.3,0.8,0.4
		c0,0,0.1,0,0.1,0.1c0.1,0.2,0.2,0.5,0.3,0.7c-0.1,0.3-0.3,0.5-0.5,0.7c-0.1,0.1-0.2,0.1-0.4,0.1c-0.2,0-0.4-0.1-0.6-0.3
		c-0.2-0.1-0.3-0.2-0.5-0.3C25.1,23.5,25,23.5,25,23.4z"/>
	<path class="st5" d="M20.6,30.8c0.4,0.3,0.8,0.5,1.2,0.6c0.4,0.1,0.8,0,1.1-0.2c0.3-0.2,0.5-0.4,0.8-0.6c0,0,0.1-0.1,0.1-0.1
		c0.1,0,0.2,0.1,0.3,0.2c0,0.1,0,0.1-0.1,0.1c-0.5,0.5-1,0.9-1.6,1.3c-0.1,0-0.1,0.1-0.2,0c-0.7-0.4-1.3-0.8-1.9-1.2c0,0,0,0-0.1,0
		C20.4,30.9,20.5,30.9,20.6,30.8z"/>
	<path class="st4" d="M17.5,13.7C17.6,13.7,17.5,13.7,17.5,13.7c-0.1-0.4-0.2-0.6-0.3-0.8c-0.2-0.3-0.4-0.6-0.6-0.9
		c-0.1-0.2-0.3-0.3-0.4-0.5c-0.2-0.2-0.3-0.4-0.5-0.5c-0.2-0.2-0.5-0.4-0.7-0.6c-0.2-0.1-0.5-0.3-0.7-0.4c0,0,0,0-0.1,0
		c-0.1-0.1-0.2-0.2-0.2-0.4c0,0,0,0,0.1,0c0.4,0.2,0.9,0.4,1.3,0.7c0.5,0.3,0.8,0.7,1.2,1.1c0.5,0.6,0.8,1.2,1.1,1.9
		c0.1,0.2,0.1,0.3,0.2,0.5c0,0,0,0.1,0,0.1C17.7,13.9,17.6,13.8,17.5,13.7z"/>
	<path class="st3" d="M18.9,23.2c0.3-0.3,0.6-0.6,0.9-0.9c0.1-0.1,0.1-0.1,0.2-0.2c0.1-0.1,0.1-0.1,0.1,0c0.3,0.3,0.5,0.5,0.8,0.8
		c0.1,0.1,0.2,0.2,0.3,0.3c0,0,0,0.1,0,0.1c-0.2,0.3-0.5,0.6-0.8,0.8c-0.2,0.2-0.5,0.2-0.7,0c-0.3-0.2-0.6-0.5-0.8-0.7
		C18.9,23.3,18.9,23.3,18.9,23.2z"/>
	<path class="st6" d="M19.2,15.5c0-0.1,0.1-0.2,0.1-0.3c0-0.1,0-0.2,0-0.3c0,0,0-0.1,0-0.1c0-0.2,0-0.3,0-0.5c0-0.2,0-0.4,0-0.6
		c0-0.3-0.1-0.5-0.1-0.8c-0.1-0.4-0.2-0.8-0.4-1.2c-0.1-0.2-0.2-0.4-0.4-0.6c0-0.1,0-0.3,0-0.4c0.1,0,0.1,0.1,0.1,0.1
		c0.5,0.6,0.8,1.3,1,2c0.1,0.5,0.2,0.9,0.3,1.4c0,0.4,0,0.7,0,1.1c0,0.1,0,0.2,0,0.3c0,0.1-0.1,0.2-0.2,0.3
		C19.3,15.7,19.2,15.6,19.2,15.5z"/>
	<path class="st3" d="M19,20.1c0.1-0.1,0.1-0.2,0.2-0.3c0,0,0.1-0.1,0.1,0c0.4,0.1,0.8,0,1.2,0c0.1,0,0.2,0,0.3,0c0,0,0.1,0,0.1,0
		c0.1,0.2,0.2,0.3,0.3,0.5c0,0.1,0,0.1,0,0.1c-0.2,0.2-0.4,0.4-0.6,0.6c-0.3,0.2-0.6,0.2-0.9,0c-0.3-0.2-0.5-0.5-0.7-0.7
		C19,20.2,18.9,20.1,19,20.1z"/>
	<path class="st2" d="M18.1,13.1c0,0.2-0.1,0.5-0.1,0.7c-0.1-0.3-0.2-0.6-0.3-0.8c-0.3-0.5-0.6-1.1-1-1.5c-0.4-0.5-0.9-1-1.5-1.3
		c-0.2-0.1-0.4-0.2-0.6-0.3c0-0.1,0.1,0,0.1,0c0.3,0.1,0.5,0.2,0.7,0.3c0.5,0.2,1,0.6,1.5,1c0.4,0.4,0.7,1,1,1.5
		C18,12.7,18,12.9,18.1,13.1z"/>
	<path class="st3" d="M22,23.3c0.2-0.2,0.4-0.5,0.6-0.7c0.1-0.1,0.2-0.2,0.3-0.3c0.1-0.1,0.1-0.1,0.1,0c0.3,0.3,0.6,0.6,0.9,0.8
		c0.2,0.1,0.3,0.3,0.5,0.4c0,0.1,0,0.1,0,0.1c-0.2,0.2-0.3,0.4-0.6,0.5c-0.2,0.1-0.4,0.1-0.6,0.1c-0.3-0.1-0.5-0.3-0.7-0.4
		c-0.1-0.1-0.3-0.2-0.4-0.3C22,23.4,22,23.3,22,23.3z"/>
	<path class="st3" d="M20.5,21.8C20.5,21.7,20.5,21.7,20.5,21.8c0.4-0.4,0.7-0.8,1-1.1c0,0,0-0.1,0.1-0.1c0,0,0,0,0,0.1
		c0.3,0.4,0.6,0.8,1,1.2c0,0,0,0,0,0c0,0,0,0.1,0,0.1c-0.2,0.2-0.3,0.4-0.6,0.5c-0.2,0.1-0.5,0.2-0.7,0C21,22.4,20.8,22.1,20.5,21.8
		C20.5,21.8,20.5,21.8,20.5,21.8z"/>
	<path class="st3" d="M23.9,24.8c0.2-0.3,0.5-0.6,0.7-0.9c0-0.1,0.1-0.1,0.1-0.2c0,0,0.1,0,0.1,0.1c0.4,0.3,0.9,0.7,1.4,0.9
		c0,0,0,0,0,0c0,0.1-0.1,0.1-0.1,0.2c-0.3,0.4-0.7,0.5-1.2,0.4c-0.4-0.1-0.7-0.3-1-0.5C24,24.9,23.9,24.9,23.9,24.8z"/>
	<path class="st5" d="M23,32.1C23,32.1,23,32.2,23,32.1c0.4,0.2,0.8,0.4,1.2,0.5c0.5,0.1,0.9,0,1.2-0.3c0.2-0.2,0.4-0.3,0.5-0.5
		c0,0,0.1-0.1,0-0.1c0.1,0,0.2,0.1,0.3,0.1c0,0,0,0.1-0.1,0.1c-0.4,0.5-0.9,1-1.3,1.4c-0.1,0.1-0.1,0.1-0.2,0
		c-0.7-0.2-1.3-0.5-1.9-0.8c0,0-0.1,0-0.1-0.1C22.8,32.3,22.9,32.2,23,32.1z"/>
	<path class="st5" d="M18.3,32.2c0.1,0.1,0.1,0.1,0.2,0.2c0.2,0.2,0.4,0.3,0.7,0.4c0.3,0.2,0.7,0.3,1.1,0.3c0.3,0,0.5-0.1,0.7-0.3
		c0.3-0.2,0.5-0.3,0.7-0.5c0,0,0.1-0.1,0.1-0.1c0.1,0.1,0.2,0.1,0.3,0.2c0,0,0,0.1-0.1,0.1c-0.6,0.4-1.2,0.9-1.9,1.2
		c-0.1,0-0.1,0-0.2,0c-0.7-0.4-1.3-0.8-1.9-1.3c0,0,0,0,0,0C18.2,32.3,18.3,32.2,18.3,32.2z"/>
	<path class="st3" d="M13.1,32c0.3-0.1,0.6-0.2,0.9-0.3c0.1,0,0.1,0,0.1,0c0.1,0.1,0.2,0.3,0.4,0.4c0.2,0.3,0.5,0.6,0.7,0.8
		c0,0,0.1,0.1,0.1,0.1c0,0,0,0-0.1,0.1c-0.2,0.1-0.5,0.2-0.7,0.2c-0.4,0-0.7-0.2-0.9-0.5c-0.2-0.2-0.3-0.5-0.4-0.7
		C13.1,32.1,13.1,32,13.1,32z"/>
	<path class="st3" d="M24.5,27.7c0.1-0.1,0.2-0.2,0.3-0.4c0.2-0.2,0.5-0.5,0.7-0.8c0,0,0.1-0.1,0.1,0c0.4,0.2,0.8,0.4,1.2,0.7
		c0,0,0,0.1,0,0.1c-0.3,0.4-0.6,0.7-1.1,0.8c-0.3,0.1-0.7-0.1-1-0.2C24.6,27.8,24.5,27.8,24.5,27.7z"/>
	<path class="st5" d="M22.7,29.3c0.3,0.2,0.5,0.3,0.8,0.5c0.2,0.1,0.5,0.1,0.7,0.1c0.2,0,0.4-0.1,0.5-0.2c0.3-0.2,0.6-0.5,0.8-0.8
		c0.1,0,0.2,0.1,0.3,0.1c0,0,0,0.1-0.1,0.1c-0.4,0.5-0.9,1-1.4,1.5c-0.1,0.1-0.1,0.1-0.2,0c-0.6-0.3-1.2-0.7-1.8-1c0,0,0,0,0,0
		C22.5,29.4,22.6,29.4,22.7,29.3z"/>
	<path class="st3" d="M13.2,22.5c0.3-0.1,0.6-0.3,0.9-0.5c0.1-0.1,0.2-0.1,0.3-0.2c0,0,0,0,0.1,0.1c0.2,0.4,0.4,0.8,0.7,1.2
		c0,0,0,0,0,0c0,0.1,0,0.1-0.1,0.1c-0.2,0.2-0.5,0.4-0.7,0.5c-0.3,0.1-0.5,0.1-0.7-0.1c-0.2-0.2-0.3-0.4-0.4-0.6
		c0-0.1-0.1-0.2-0.1-0.3C13.2,22.6,13.2,22.5,13.2,22.5z"/>
	<path class="st6" d="M21.6,14.8c-0.1,0-0.1,0.1-0.1,0.1c-0.2,0.3-0.4,0.6-0.5,0.9c-0.1,0.3-0.3,0.7-0.3,1.1
		c-0.1,0.3-0.1,0.6-0.1,0.9c0,0.2,0,0.4,0,0.6c0,0,0,0.1,0.1,0.1c0,0,0,0-0.1,0c-0.1,0-0.1,0.1-0.2,0.1c-0.1-0.1-0.1-0.1-0.1-0.2
		c0-0.2,0-0.3,0-0.5c0-1.1,0.3-2,0.9-2.9c0.1-0.2,0.3-0.4,0.4-0.6c0,0,0.1-0.1,0.1-0.1c0.1,0,0,0.1,0,0.2
		C21.6,14.5,21.6,14.6,21.6,14.8z"/>
	<path class="st3" d="M14.2,35.9c0.4,0,0.7-0.1,1.1-0.1c0,0,0.1,0,0.1,0c0.5,0.5,1,0.9,1.6,1.4c0,0.1,0,0.1-0.1,0.1
		c-0.4,0-0.7,0.1-1.1,0c-0.4-0.1-0.8-0.3-1.1-0.5c-0.2-0.2-0.4-0.4-0.6-0.6c0,0-0.1-0.1-0.1-0.1C14.1,35.9,14.2,35.9,14.2,35.9z"/>
	<path class="st3" d="M16.5,20c0.1-0.2,0.3-0.3,0.4-0.5c0,0,0.1-0.1,0.1-0.1c0.3-0.1,0.5-0.1,0.8-0.1c0,0,0.1,0,0.1,0
		c0.2,0.2,0.3,0.5,0.5,0.7c-0.2,0.3-0.5,0.6-0.8,0.8c-0.2,0.1-0.4,0.1-0.6-0.1C16.8,20.6,16.7,20.3,16.5,20C16.5,20,16.5,20,16.5,20
		z"/>
	<path class="st5" d="M20.8,36.4c0.1,0.1,0.2,0.1,0.3,0.1c0.3,0.1,0.7,0.3,1,0.3c0.4,0.1,0.8,0,1.2-0.2c0.3-0.2,0.6-0.5,0.9-0.7
		c0.1-0.1,0.2-0.2,0.3-0.3c0.1,0,0.2,0,0.4,0.1c0,0,0,0.1-0.1,0.1c-0.6,0.5-1.2,1-1.8,1.4c-0.1,0.1-0.2,0.1-0.3,0.1
		c-0.8-0.1-1.6-0.4-2.3-0.7c0,0,0,0-0.1,0C20.6,36.5,20.7,36.4,20.8,36.4z"/>
	<path class="st5" d="M20.7,33.7C20.7,33.7,20.7,33.8,20.7,33.7c0.5,0.3,0.9,0.5,1.3,0.6c0.4,0.1,0.9,0.1,1.3-0.1
		c0.3-0.2,0.6-0.4,0.9-0.6c0,0,0.1-0.1,0.1-0.1c0.1,0,0.2,0.1,0.2,0.1c0,0.1,0,0.1-0.1,0.1c-0.5,0.5-1.1,0.9-1.7,1.3
		c-0.1,0.1-0.2,0.1-0.2,0c-0.7-0.3-1.4-0.6-2.1-1c0,0-0.1,0-0.1-0.1C20.5,33.8,20.6,33.7,20.7,33.7z"/>
	<path class="st6" d="M18.2,16.7C18.2,16.7,18.2,16.7,18.2,16.7c0-0.2-0.1-0.3-0.1-0.4c-0.2-0.5-0.4-0.9-0.7-1.3
		c-0.2-0.3-0.5-0.6-0.7-0.9c-0.2-0.3-0.5-0.5-0.8-0.7c-0.1-0.1-0.3-0.2-0.5-0.2c-0.1-0.1-0.1-0.2-0.1-0.2c0-0.1,0-0.1,0.1-0.1
		c0.1,0,0.2,0.1,0.3,0.1c0.4,0.3,0.8,0.5,1.1,0.9c0.4,0.3,0.6,0.7,0.9,1.1c0.2,0.4,0.5,0.8,0.7,1.2c0.1,0.2,0.2,0.4,0.2,0.6
		c0,0,0,0,0,0.1C18.5,16.9,18.3,16.8,18.2,16.7z"/>
	<path class="st5" d="M13.3,29.4c0.1,0.3,0.3,0.6,0.5,0.8c0.1,0.2,0.3,0.3,0.5,0.4c0.2,0.1,0.3,0.1,0.5,0.1c0.3,0,0.6-0.1,0.8-0.3
		c0,0,0,0,0.1-0.1c0.1,0.1,0.1,0.1,0.2,0.2c0,0.1,0,0.1-0.1,0.1c-0.5,0.3-1,0.5-1.6,0.7c-0.1,0-0.1,0-0.2,0
		c-0.4-0.6-0.8-1.2-1.1-1.8C13.1,29.4,13.2,29.4,13.3,29.4z"/>
	<path class="st7" d="M19.7,11.1c0-0.3-0.1-0.5-0.2-0.8c-0.1-0.4-0.3-0.9-0.5-1.3c-0.2-0.4-0.4-0.7-0.7-1c-0.1-0.2-0.3-0.3-0.4-0.5
		c-0.5-0.5-1-0.7-1.6-0.9c0,0-0.1,0-0.1,0c-0.2-0.1-0.4-0.2-0.6-0.3c0.1,0,0.1,0,0.2,0c0.8,0.1,1.6,0.4,2.2,0.9
		c0.5,0.4,0.9,0.9,1.2,1.5c0.3,0.5,0.5,1,0.6,1.5c0,0.1,0,0.2,0,0.3c0,0.1,0,0.2-0.1,0.3C19.7,11.1,19.7,11.1,19.7,11.1z"/>
	<path class="st3" d="M15,21.5c0.4-0.3,0.8-0.7,1.2-1.1c0,0,0.1,0,0.1,0.1c0.2,0.4,0.5,0.8,0.8,1.1c0,0,0,0,0,0
		c0,0.1-0.2,0.2-0.2,0.2c-0.2,0.2-0.4,0.3-0.6,0.4c-0.3,0.1-0.5,0.1-0.8-0.1c-0.2-0.2-0.3-0.4-0.4-0.6C14.9,21.5,14.9,21.5,15,21.5z
		"/>
	<path class="st7" d="M21.5,6.9c0,0.1,0,0.2-0.1,0.4c-0.1,0.4-0.2,0.8-0.3,1.1c-0.2,0.5-0.4,1-0.6,1.5c-0.1,0.4-0.3,0.8-0.3,1.2
		c0,0.2,0,0.3,0,0.5c0,0.2,0,0.4,0,0.6c0,0.1,0,0.2,0,0.3c-0.1-0.2-0.3-0.3-0.4-0.5c-0.1-0.1,0-0.2,0-0.4c0-0.6,0.2-1.2,0.4-1.7
		c0.2-0.5,0.4-1,0.6-1.5c0.2-0.5,0.4-1,0.5-1.5c0-0.1,0-0.1,0.1-0.2C21.5,6.7,21.5,6.8,21.5,6.9z"/>
	<path class="st7" d="M25.1,9.9C25.1,9.8,25.1,9.9,25.1,9.9c-0.4,0.1-0.7,0.2-0.9,0.3c-0.4,0.2-0.7,0.4-1.1,0.6
		c-0.3,0.2-0.6,0.4-0.8,0.6c-0.2,0.2-0.4,0.3-0.6,0.5c-0.2,0.2-0.4,0.5-0.6,0.8c-0.1,0.2-0.2,0.3-0.3,0.5c-0.1-0.2-0.1-0.2,0-0.3
		c0.7-1.1,1.7-2,2.9-2.6c0.8-0.4,1.6-0.7,2.4-1c0.1,0,0.2-0.1,0.3,0c0.1,0,0.2,0,0.2,0c0,0,0.1,0,0.1,0c0,0,0,0,0,0c0,0,0,0,0,0l0,0
		c0,0-0.1,0-0.1,0C26.1,9.4,25.7,9.6,25.1,9.9C25.2,9.9,25.2,9.9,25.1,9.9z"/>
	<path class="st3" d="M13.7,26.9c0.4-0.2,0.7-0.4,1.1-0.6c0.1,0,0.1,0,0.1,0c0.3,0.4,0.7,0.8,1,1.2c0,0.1,0,0.1-0.1,0.1
		c-0.2,0.1-0.5,0.3-0.7,0.3c-0.4,0.1-0.7-0.1-1-0.3c-0.2-0.2-0.3-0.3-0.4-0.5C13.7,27,13.7,26.9,13.7,26.9z"/>
	<path class="st6" d="M26,14c0,0-0.1,0-0.1,0c-0.4,0.1-0.9,0.2-1.3,0.5c-0.3,0.2-0.6,0.4-0.9,0.6c-0.3,0.3-0.6,0.6-0.8,0.9
		c-0.2,0.3-0.4,0.7-0.5,1.1c0,0.2-0.1,0.3-0.1,0.5c-0.1,0-0.2,0.1-0.3,0.1c-0.1,0-0.1,0-0.1-0.1c-0.1-0.2,0-0.4,0-0.5
		c0.1-0.4,0.3-0.8,0.6-1.2c0.4-0.5,0.9-1,1.5-1.3c0.4-0.3,0.9-0.4,1.3-0.5c0.2,0,0.5-0.1,0.7-0.2C26,14,26,14,26,14z"/>
	<path class="st4" d="M18.8,10.6C18.9,10.6,18.9,10.6,18.8,10.6C18.6,10,18.4,9.5,18,9c-0.2-0.2-0.3-0.4-0.5-0.6
		C17.3,8.2,17.2,8,17,7.8c-0.2-0.2-0.4-0.4-0.7-0.6c-0.2-0.2-0.5-0.3-0.7-0.5c0,0-0.1-0.1-0.2-0.1c0-0.1,0-0.1,0.1-0.1
		c0.3,0.1,0.6,0.3,0.9,0.5c0.5,0.4,1,0.8,1.4,1.3c0.3,0.3,0.5,0.7,0.7,1c0.3,0.5,0.5,1,0.7,1.5c0,0,0,0.1,0,0.1c0,0,0,0,0,0
		C19.1,10.9,19,10.8,18.8,10.6z"/>
	<path class="st5" d="M15.3,25.9c0,0.1,0.1,0.1,0.1,0.2c0.2,0.2,0.3,0.4,0.6,0.6c0.2,0.2,0.5,0.2,0.8,0.1c0.3-0.1,0.5-0.2,0.7-0.4
		c0.1-0.1,0.2-0.1,0.3-0.2c0,0,0.1,0.1,0.1,0.1c0.1,0.1,0.1,0.1,0,0.1c-0.4,0.3-0.9,0.6-1.3,0.9c-0.1,0.1-0.2,0.1-0.3,0.2
		c-0.1,0.1-0.1,0.1-0.2,0c-0.3-0.3-0.6-0.7-0.9-1.1c-0.1-0.1-0.2-0.2-0.3-0.3C15.1,26,15.2,26,15.3,25.9z"/>
	<path class="st5" d="M18.6,26.3c0.2,0.2,0.4,0.4,0.6,0.5c0.2,0.1,0.4,0.3,0.6,0.3c0.3,0.1,0.6,0.1,0.9-0.1c0.3-0.2,0.5-0.4,0.7-0.6
		c0.1-0.1,0.1-0.1,0.2-0.2c0.1,0.1,0.2,0.1,0.2,0.2c0,0,0,0.1-0.1,0.1c-0.5,0.4-1,0.9-1.6,1.3c-0.1,0-0.1,0.1-0.2,0
		c-0.6-0.4-1.1-0.9-1.6-1.4c0,0,0,0,0,0C18.5,26.4,18.5,26.3,18.6,26.3z"/>
	<path class="st5" d="M16.1,33.3c0.1,0.1,0.1,0.2,0.2,0.2c0.3,0.3,0.6,0.5,0.9,0.7c0.2,0.1,0.5,0.2,0.7,0.1c0.3,0,0.5-0.1,0.7-0.2
		c0.3-0.1,0.6-0.3,0.9-0.4c0,0,0,0,0,0c0.1,0.1,0.2,0.1,0.3,0.2c0,0,0,0.1-0.1,0.1c-0.7,0.4-1.4,0.7-2.1,0.9c-0.1,0-0.1,0-0.2,0
		c-0.6-0.4-1.1-0.9-1.7-1.4c0,0,0,0,0-0.1C16,33.3,16,33.3,16.1,33.3z"/>
	<path class="st5" d="M23.3,34.8c0.1,0.1,0.3,0.1,0.4,0.1C24,35,24.2,35,24.5,35c0.2,0,0.3,0,0.5-0.1c0.3-0.1,0.6-0.2,0.8-0.4
		c0.2-0.1,0.3-0.3,0.5-0.5c0,0,0.1-0.1,0.1-0.1c0.1,0,0.2,0,0.3,0.1c0,0,0,0.1,0,0.1c-0.4,0.5-0.8,0.9-1.3,1.3
		c-0.1,0.1-0.1,0.1-0.2,0.1c-0.7-0.1-1.4-0.3-2.1-0.5c0,0,0,0-0.1,0C23.1,34.9,23.2,34.9,23.3,34.8z"/>
	<path class="st4" d="M25.7,17.7c0,0-0.1,0-0.1,0c-0.3,0-0.6,0-0.9,0.1c-0.6,0.1-1.2,0.3-1.8,0.5c-0.5,0.2-1,0.4-1.4,0.7
		c-0.2,0.1-0.3,0.2-0.4,0.4c0,0,0,0,0,0.1c0,0,0.1,0,0.1,0c-0.1,0-0.3,0-0.4,0c-0.1,0-0.2,0-0.3,0c0-0.1,0-0.1,0.1-0.1
		c0.4-0.5,1-0.8,1.5-1.1c0.7-0.3,1.5-0.5,2.2-0.6c0.3-0.1,0.6-0.1,0.9-0.1c0.2,0,0.4,0,0.6,0C25.8,17.7,25.8,17.7,25.7,17.7z"/>
	<path class="st1" d="M22,7.6c0.2,0.4,0.3,0.8,0.4,1.2c0.1,0.6,0.2,1.2,0.1,1.8c0,0.1,0,0.1-0.1,0.2c-0.2,0.2-0.5,0.4-0.7,0.6
		c-0.1,0,0-0.1,0-0.1c0.1-0.5,0.2-1,0.3-1.5C22,9.4,22,9.1,22,8.8c0-0.4,0-0.7,0-1.1C22,7.7,22,7.6,22,7.6z"/>
	<path class="st5" d="M24.5,27.7c0.3,0.2,0.6,0.3,0.9,0.4c0.5,0.1,0.9-0.1,1.2-0.5c0.1-0.1,0.2-0.2,0.2-0.3c0.1,0,0.2,0.1,0.3,0.1
		c-0.2,0.2-0.3,0.4-0.4,0.6c-0.2,0.3-0.4,0.5-0.6,0.8c0,0-0.1,0.1-0.1,0c-0.6-0.3-1.1-0.6-1.7-0.9C24.3,27.8,24.4,27.7,24.5,27.7z"
		/>
	<path class="st5" d="M16.7,27.6C16.7,27.6,16.7,27.7,16.7,27.6c0.3,0.3,0.6,0.6,0.9,0.8c0.2,0.1,0.5,0.2,0.7,0.2
		c0.2,0,0.5-0.1,0.7-0.2c0.3-0.1,0.5-0.3,0.7-0.5c0,0,0,0,0-0.1c0.1,0.1,0.2,0.1,0.2,0.2c0,0,0,0.1-0.1,0.1
		c-0.5,0.4-1.1,0.8-1.7,1.1c-0.1,0.1-0.1,0.1-0.2,0c-0.5-0.4-1-0.9-1.5-1.4c0,0-0.1-0.1-0.1-0.1C16.5,27.7,16.6,27.6,16.7,27.6z"/>
	<path class="st5" d="M24.8,30.5c0.3,0.1,0.6,0.3,0.9,0.3c0.4,0.1,0.8,0,1.1-0.3c0.2-0.2,0.4-0.4,0.5-0.7c0,0,0.1-0.1,0.1-0.1
		c0,0,0-0.1,0-0.1c0.1,0,0.2,0,0.2,0.1c0,0.1,0,0.1-0.1,0.1c-0.4,0.6-0.7,1.1-1.2,1.6c-0.1,0.1-0.1,0.1-0.2,0.1
		c-0.6-0.2-1.1-0.5-1.7-0.7c0,0-0.1,0-0.1-0.1C24.6,30.6,24.7,30.6,24.8,30.5z"/>
	<path class="st2" d="M19.1,16.2c-0.1,0.2-0.3,0.4-0.4,0.6c0,0,0,0,0-0.1c-0.1-0.2-0.1-0.3-0.2-0.5c-0.3-0.6-0.6-1.2-1-1.8
		c-0.3-0.3-0.5-0.6-0.9-0.9c-0.1,0-0.1-0.1-0.2-0.1c0,0,0,0,0,0c0.1,0,0.2,0.1,0.3,0.2c0.8,0.6,1.6,1.3,2.1,2.1
		c0.1,0.1,0.2,0.2,0.2,0.4C19.1,16.1,19.2,16.1,19.1,16.2z"/>
	<path class="st3" d="M14.3,24.4c0.3-0.2,0.6-0.4,0.9-0.6c0.1-0.1,0.2-0.2,0.3-0.2c0,0,0,0,0.1,0c0.3,0.4,0.5,0.7,0.8,1.1
		c0,0,0,0,0,0c0,0.1,0,0.1-0.1,0.1c-0.2,0.2-0.5,0.3-0.7,0.4c-0.3,0.1-0.6,0.1-0.9-0.2c-0.1-0.1-0.3-0.3-0.4-0.5
		C14.3,24.5,14.3,24.4,14.3,24.4z"/>
	<path class="st3" d="M21.9,20.1c0.1-0.2,0.2-0.4,0.4-0.5c0,0,0.1,0,0.1,0c0.3,0,0.5,0,0.8,0c0,0,0.1,0,0.1,0.1
		c0.2,0.2,0.3,0.4,0.5,0.7c0,0,0,0.1,0,0.1c-0.2,0.2-0.3,0.5-0.6,0.7c-0.2,0.1-0.4,0.1-0.5,0c-0.1-0.1-0.2-0.2-0.3-0.3
		c-0.1-0.2-0.2-0.3-0.4-0.5C21.9,20.2,21.9,20.2,21.9,20.1z"/>
	<path class="st2" d="M25.1,14c-0.3,0.1-0.7,0.2-1,0.3c-0.9,0.5-1.7,1.2-2.2,2.1c-0.1,0.2-0.1,0.3-0.2,0.5c0,0,0,0.1,0,0.1
		c0-0.2,0-0.3,0-0.5c0-0.2,0-0.4,0-0.7c0-0.1,0-0.1,0.1-0.2c0.8-1,1.9-1.6,3.2-1.8C25,14,25.1,13.9,25.1,14z"/>
	<path class="st3" d="M25.4,33c0.2-0.2,0.4-0.4,0.6-0.7c0.1-0.2,0.3-0.3,0.4-0.5c0-0.1,0.1-0.1,0.1,0c0.3,0.1,0.7,0.2,1,0.3
		c0.1,0,0.1,0,0.1,0.1c0,0,0,0,0,0.1c-0.1,0.3-0.4,0.6-0.6,0.8c-0.3,0.2-0.6,0.2-1,0.2c-0.2,0-0.4-0.1-0.5-0.1
		C25.4,33.1,25.3,33.1,25.4,33z"/>
	<path class="st5" d="M20.6,27.9c0.1,0.1,0.2,0.2,0.3,0.3c0.2,0.2,0.4,0.3,0.6,0.4c0.2,0.1,0.4,0.2,0.6,0.2c0.2,0,0.3,0,0.5-0.1
		c0.2-0.1,0.4-0.3,0.6-0.4c0.1-0.1,0.2-0.2,0.3-0.3c0.1,0,0.1-0.1,0.1-0.1c0.1,0,0.1,0.1,0.2,0.1c0,0,0,0.1,0,0.1
		c-0.5,0.5-1,0.9-1.5,1.4c-0.1,0-0.1,0.1-0.2,0c-0.6-0.4-1.2-0.8-1.8-1.3c0,0,0,0,0,0C20.4,28,20.5,27.9,20.6,27.9z"/>
	<path class="st7" d="M21.9,2.6C21.9,2.5,21.9,2.5,21.9,2.6c-0.1,0.1-0.2,0.2-0.3,0.3c-0.2,0.4-0.5,0.8-0.7,1.2
		c-0.2,0.3-0.3,0.7-0.4,1c-0.1,0.3-0.1,0.6-0.2,0.8c0,0.2-0.1,0.5-0.1,0.7c-0.1-0.3-0.3-0.6-0.4-0.9c0,0,0-0.1,0-0.1
		c0.1-0.4,0.3-0.7,0.5-1.1c0.2-0.4,0.5-0.7,0.7-1.1c0.2-0.3,0.3-0.6,0.5-1c0-0.1,0.1-0.1,0.1-0.2c0,0,0.1-0.1,0.1-0.1
		c0,0,0,0.1,0,0.1C21.9,2.4,22,2.5,21.9,2.6z"/>
	<path class="st5" d="M18.5,29.3c0.2,0.2,0.4,0.3,0.6,0.5c0.1,0.1,0.3,0.2,0.5,0.3c0.2,0.1,0.4,0.2,0.6,0.2c0.1,0,0.3,0,0.4-0.1
		c0.3-0.1,0.5-0.3,0.8-0.4c0.2-0.1,0.3-0.2,0.5-0.4c0,0,0,0,0-0.1c0.1,0,0.2,0.1,0.3,0.2c0,0,0,0.1-0.1,0.1
		c-0.5,0.4-1.1,0.8-1.7,1.2c-0.1,0.1-0.1,0.1-0.2,0c-0.6-0.4-1.1-0.8-1.7-1.2c0,0-0.1-0.1-0.1-0.1C18.4,29.4,18.4,29.4,18.5,29.3z"
		/>
	<path class="st5" d="M15.9,35.6c0.2,0.2,0.4,0.4,0.7,0.6c0.2,0.2,0.4,0.3,0.6,0.4c0.3,0.1,0.6,0.2,0.9,0.2c0.2,0,0.4,0,0.6-0.1
		c0.3-0.1,0.6-0.2,0.9-0.3c0,0,0.1,0,0.1-0.1c0.1,0,0.2,0.1,0.3,0.2c-0.3,0.1-0.5,0.2-0.8,0.3c-0.5,0.2-1,0.3-1.5,0.4
		c-0.1,0-0.1,0-0.2,0c-0.6-0.5-1.2-1-1.8-1.5c0,0,0,0,0-0.1C15.7,35.7,15.8,35.6,15.9,35.6z"/>
	<path class="st5" d="M13.8,31.2c0.1,0.1,0.1,0.1,0.2,0.2c0,0,0,0,0,0.1c-0.4,0.1-0.7,0.3-1.1,0.4c-0.1,0-0.1,0-0.1-0.1
		c-0.3-0.5-0.5-1-0.7-1.6c0-0.1,0-0.2,0-0.3c0,0,0-0.1,0.1-0.1c0.1,0,0.2,0,0.3-0.1c0.1,0.3,0.2,0.6,0.3,0.8
		c0.1,0.1,0.1,0.3,0.2,0.4c0.2,0.2,0.4,0.3,0.7,0.3C13.6,31.2,13.7,31.2,13.8,31.2z"/>
	<path class="st5" d="M15,21.5c0,0.2,0.2,0.3,0.2,0.5c0.1,0.1,0.1,0.2,0.2,0.2c0.2,0.2,0.5,0.2,0.7,0.1c0.2-0.1,0.4-0.3,0.6-0.4
		c0.1-0.1,0.2-0.1,0.3-0.2c0.1,0,0.1,0.1,0.1,0.1c0.1,0.1,0,0.1,0,0.1c-0.2,0.2-0.4,0.4-0.6,0.5c-0.3,0.3-0.6,0.5-0.9,0.7
		c0,0,0,0-0.1-0.1c-0.3-0.4-0.6-0.9-0.8-1.4c-0.1-0.1-0.1-0.1,0-0.2C14.8,21.5,14.9,21.5,15,21.5z"/>
	<path class="st5" d="M22.4,26.3c0,0.1,0.1,0.1,0.1,0.1c0.3,0.2,0.6,0.4,0.9,0.5c0.2,0.1,0.3,0.1,0.5,0.1c0.2,0,0.4-0.1,0.6-0.2
		c0.2-0.2,0.4-0.4,0.6-0.6c0,0,0,0,0-0.1c0.1,0,0.1,0.1,0.2,0.1c0,0-0.1,0.1-0.1,0.1c-0.4,0.4-0.7,0.8-1.1,1.2
		c-0.1,0.1-0.1,0.1-0.2,0c-0.6-0.4-1.2-0.8-1.7-1.2c0,0,0,0,0,0C22.3,26.4,22.4,26.4,22.4,26.3z"/>
	<path class="st6" d="M19.2,8.5C19.2,8.5,19.2,8.4,19.2,8.5c0-0.3,0-0.4,0-0.6c0-0.3-0.1-0.6-0.1-0.8c-0.1-0.5-0.3-0.9-0.5-1.4
		c-0.1-0.3-0.2-0.5-0.4-0.8c-0.1-0.2-0.3-0.4-0.4-0.5c0-0.1,0-0.1,0-0.2c0,0,0.1,0,0.1,0.1c0.5,0.5,0.9,1.1,1.2,1.8
		c0.2,0.5,0.3,1.1,0.4,1.6c0.1,0.4,0.1,0.9,0.2,1.3c0,0.1,0,0.3,0,0.4C19.6,9.1,19.4,8.8,19.2,8.5z"/>
	<path class="st5" d="M26.1,35.8c0.1,0,0.2,0,0.3,0c0,0,0,0.1,0,0.1c-0.4,0.6-0.9,1.1-1.5,1.4c0,0-0.1,0-0.1,0c-0.5,0-1,0-1.5,0
		c0.1-0.1,0.2-0.1,0.2-0.2c0.1-0.1,0.1-0.1,0.2-0.1c0.5,0,1-0.1,1.4-0.4c0.3-0.2,0.5-0.4,0.8-0.7C26,35.9,26,35.9,26.1,35.8z"/>
	<path class="st3" d="M13,34.2c0.2-0.1,0.5-0.1,0.7-0.2c0.1,0,0.1,0,0.1,0c0.3,0.4,0.7,0.9,1.1,1.3c0,0.1,0,0.1-0.1,0.1
		c-0.4,0.1-0.7,0.1-1.1,0c-0.2-0.1-0.4-0.3-0.6-0.5c-0.1-0.2-0.2-0.4-0.3-0.6C12.9,34.3,12.9,34.2,13,34.2z"/>
	<path class="st4" d="M22,7.6c0,0.1,0,0.2,0,0.3c0,0.1,0,0.2,0,0.4c0,0.1,0,0.2,0,0.3c0,0,0,0,0,0.1c0,0.2,0,0.4,0,0.6
		c0,0.2,0,0.5-0.1,0.7c0,0.3-0.1,0.5-0.1,0.8c0,0.2-0.1,0.5-0.1,0.7c0,0,0,0.1,0,0.1c-0.2,0.2-0.3,0.3-0.5,0.5c0,0,0,0,0,0
		c0.1-0.4,0.2-0.7,0.3-1.1c0.1-0.4,0.2-0.9,0.2-1.3c0-0.3,0.1-0.7,0-1c0-0.4,0-0.7,0-1.1c0-0.2-0.1-0.4-0.1-0.7c0,0,0-0.1,0-0.1
		C21.8,7,21.9,7.3,22,7.6z"/>
	<path class="st5" d="M13.2,22.5c0.1,0.3,0.3,0.7,0.5,1c0,0.1,0.1,0.1,0.2,0.2c0.2,0.1,0.4,0.1,0.5,0c0.2-0.1,0.4-0.2,0.6-0.4
		c0.1-0.1,0.2-0.1,0.2-0.2c0.1,0.1,0.1,0.1,0.1,0.2c0,0,0,0.1,0,0.1c-0.1,0.1-0.2,0.1-0.3,0.2c-0.4,0.3-0.8,0.5-1.2,0.8
		c-0.1,0.1-0.1,0.1-0.2,0c-0.3-0.4-0.5-0.9-0.7-1.3c0-0.1,0-0.1,0-0.2C13.1,22.7,13.1,22.6,13.2,22.5C13.2,22.5,13.2,22.5,13.2,22.5
		z"/>
	<path class="st3" d="M26.4,28.7C26.4,28.7,26.4,28.6,26.4,28.7c0.3-0.4,0.6-0.8,0.8-1.2c0.1-0.1,0.1-0.1,0.2-0.1
		c0.1,0.1,0.3,0.1,0.4,0.2c0.1,0,0.1,0.1,0.1,0.1c0,0.1,0,0.2,0,0.2c0,0.4,0,0.7,0,1.1c0,0.2-0.1,0.2-0.2,0.2
		c-0.4-0.1-0.8-0.3-1.2-0.4C26.4,28.8,26.4,28.7,26.4,28.7z"/>
	<path class="st5" d="M23.9,24.8c0.1,0.1,0.2,0.2,0.3,0.2c0.3,0.2,0.6,0.3,1,0.4c0.2,0,0.5-0.1,0.7-0.2c0.2-0.1,0.3-0.3,0.4-0.4
		c0.1,0,0.1,0.1,0.2,0.1c0,0,0,0.1,0,0.1c-0.3,0.4-0.6,0.8-0.9,1.2c0,0.1-0.1,0.1-0.1,0c-0.6-0.4-1.1-0.8-1.7-1.2c0,0,0,0,0,0
		C23.8,24.9,23.9,24.8,23.9,24.8z"/>
	<path class="st5" d="M14.1,28.5c0.1,0.1,0.1,0.1,0.2,0.2c0,0,0,0,0,0c-0.4,0.2-0.9,0.4-1.3,0.5c-0.1,0-0.1,0-0.1-0.1
		c-0.2-0.5-0.5-1-0.7-1.5c0-0.1,0-0.1,0-0.1c0.1,0,0.2-0.1,0.3-0.1c0.1,0.1,0.1,0.2,0.1,0.3c0.1,0.2,0.2,0.4,0.4,0.6
		c0.2,0.2,0.5,0.3,0.8,0.2C13.9,28.6,14,28.5,14.1,28.5z"/>
	<path class="st5" d="M13.7,26.9C13.7,26.9,13.7,26.9,13.7,26.9c0.2,0.3,0.4,0.6,0.6,0.8c0.2,0.2,0.5,0.2,0.8,0.1
		c0.3-0.1,0.5-0.2,0.7-0.3c0,0,0,0,0-0.1c0.1,0.1,0.2,0.2,0.2,0.3c-0.1,0.1-0.2,0.1-0.3,0.2c-0.4,0.2-0.8,0.5-1.2,0.7
		c-0.1,0-0.1,0-0.2,0c-0.3-0.5-0.7-1-1-1.5c0,0,0,0,0-0.1C13.5,27,13.6,26.9,13.7,26.9z"/>
	<path class="st5" d="M14.8,28.7c0.1,0.2,0.3,0.4,0.5,0.6c0.2,0.2,0.4,0.4,0.7,0.5c0.2,0.1,0.5,0.1,0.7,0c0.3-0.1,0.6-0.2,0.8-0.4
		c0.1,0,0.2-0.1,0.2-0.2c0.1,0,0.1,0.1,0.2,0.1c0,0.1,0,0.1-0.1,0.1c-0.5,0.3-1.1,0.7-1.7,0.9c-0.1,0.1-0.1,0.1-0.2,0
		c-0.5-0.5-0.9-1-1.3-1.5c0,0-0.1-0.1-0.1-0.1C14.7,28.7,14.7,28.7,14.8,28.7z"/>
	<path class="st5" d="M14.6,31.4C14.6,31.5,14.6,31.5,14.6,31.4c0.2,0.3,0.3,0.5,0.5,0.7c0.1,0.1,0.2,0.2,0.3,0.3
		c0.3,0.2,0.6,0.3,0.9,0.2c0.2,0,0.3-0.1,0.4-0.2c0.2-0.1,0.4-0.2,0.7-0.3c0,0,0.1,0,0.1-0.1c0.1,0.1,0.2,0.1,0.2,0.2
		c0,0,0,0.1-0.1,0.1c-0.6,0.3-1.2,0.6-1.8,0.8c-0.1,0-0.1,0-0.2,0c-0.5-0.5-0.9-1-1.3-1.5c0,0,0,0,0-0.1
		C14.4,31.5,14.5,31.4,14.6,31.4z"/>
	<path class="st3" d="M25.9,26c0.1-0.2,0.3-0.3,0.4-0.5c0.1-0.2,0.3-0.3,0.4-0.5c0,0,0.1-0.1,0.1,0c0.3,0.1,0.5,0.2,0.8,0.3
		c0.1,0,0.1,0,0.1,0.1c0,0.1,0,0.1,0,0.2c0,0.1,0,0.2-0.1,0.3c-0.1,0.2-0.2,0.3-0.3,0.5c-0.1,0.2-0.3,0.2-0.5,0.2
		C26.5,26.5,26.2,26.3,25.9,26C25.9,26.1,25.9,26.1,25.9,26z"/>
	<path class="st5" d="M14.3,33.9c0,0,0,0.1,0,0.1c0.2,0.3,0.4,0.5,0.6,0.7c0.2,0.2,0.4,0.3,0.6,0.3c0.1,0,0.3,0,0.5,0
		c0.4,0,0.7-0.2,1-0.3c0,0,0,0,0,0c0.1,0.1,0.2,0.1,0.3,0.2c0,0-0.1,0-0.1,0c-0.6,0.2-1.2,0.4-1.8,0.5c-0.1,0-0.1,0-0.2-0.1
		c-0.4-0.4-0.8-0.9-1.2-1.4c0,0-0.1-0.1-0.1-0.1C14.1,33.9,14.2,33.9,14.3,33.9z"/>
	<path class="st5" d="M25.4,33C25.4,33.1,25.4,33.1,25.4,33c0.4,0.1,0.7,0.2,1,0.2c0.3,0,0.5-0.1,0.7-0.3c0.2-0.2,0.4-0.4,0.5-0.6
		c0,0,0,0,0,0c0,0.2-0.1,0.4-0.1,0.6c0,0,0,0.1-0.1,0.1c-0.2,0.3-0.4,0.5-0.6,0.8c-0.1,0.1-0.1,0.1-0.2,0.1
		c-0.5-0.1-1.1-0.3-1.6-0.4c0,0-0.1,0-0.1,0C25.1,33.2,25.2,33.1,25.4,33z"/>
	<path class="st5" d="M14.2,35.9C14.2,35.9,14.1,35.9,14.2,35.9c-0.1,0.1-0.1,0.1,0,0.1c0.2,0.2,0.4,0.4,0.6,0.6
		c0.3,0.3,0.7,0.5,1.1,0.5c0.2,0,0.4,0.1,0.5,0c0.1,0,0.2,0,0.2,0c0.1,0,0.2,0,0.3,0c0.1,0.1,0.2,0.1,0.3,0.2
		c-0.1,0.1-0.2,0.1-0.4,0.1c-0.5,0.1-0.9,0.1-1.4,0.1c-0.1,0-0.2,0-0.2-0.1c-0.6-0.4-1.1-0.8-1.5-1.3c0,0-0.1-0.1-0.1-0.1
		C13.8,35.9,14,35.9,14.2,35.9z"/>
	<path class="st5" d="M20.5,24.7C20.5,24.8,20.5,24.8,20.5,24.7c0.3,0.3,0.6,0.6,0.9,0.8c0.1,0,0.1,0.1,0.2,0.1
		c0.2,0.1,0.5,0.1,0.7-0.1c0.1-0.1,0.2-0.1,0.3-0.2c0.2-0.2,0.4-0.3,0.6-0.5c0.1,0,0.1,0.1,0.2,0.2c0,0,0,0.1-0.1,0.1
		c-0.4,0.4-0.8,0.8-1.2,1.2c-0.1,0.1-0.1,0.1-0.2,0c-0.5-0.4-1.1-0.9-1.6-1.3c0,0,0,0-0.1,0c0,0,0-0.1,0-0.1
		C20.4,24.8,20.4,24.8,20.5,24.7z"/>
	<path class="st5" d="M20.5,21.8c0.1,0.2,0.3,0.3,0.5,0.4c0.1,0.1,0.2,0.2,0.4,0.2c0.3,0.1,0.5,0.1,0.7-0.1c0.2-0.1,0.4-0.3,0.6-0.6
		c0,0,0,0,0,0c0.1,0.1,0.1,0.1,0.2,0.2c0,0,0,0.1,0,0.1c-0.3,0.4-0.7,0.8-1.1,1.2c-0.1,0.1-0.1,0-0.1,0c-0.3-0.3-0.6-0.6-1-0.9
		c-0.1-0.1-0.2-0.2-0.3-0.3c0,0,0-0.1,0-0.1C20.4,21.9,20.4,21.8,20.5,21.8z"/>
	<path class="st5" d="M14.3,24.4C14.3,24.4,14.3,24.4,14.3,24.4c0.2,0.3,0.3,0.5,0.6,0.7c0.2,0.2,0.5,0.2,0.7,0.1
		c0.3-0.1,0.6-0.3,0.8-0.5c0,0,0,0,0-0.1c0,0,0.1,0.1,0.1,0.2c-0.1,0.1-0.2,0.1-0.3,0.2c-0.4,0.3-0.8,0.6-1.3,0.9c0,0,0,0,0,0
		c-0.1,0.1-0.1,0.1-0.2,0c0-0.1-0.1-0.1-0.1-0.2c-0.2-0.3-0.5-0.7-0.7-1c0,0-0.1-0.1-0.1-0.1C14.1,24.5,14.2,24.4,14.3,24.4z"/>
	<path class="st5" d="M13.1,32c0,0,0,0.1,0,0.1c0.2,0.3,0.3,0.6,0.6,0.9c0.2,0.2,0.4,0.3,0.6,0.3c0.3,0,0.6-0.1,0.8-0.2
		c0,0,0.1,0,0.1,0c0.1,0.1,0.1,0.1,0.2,0.2c0,0-0.1,0-0.1,0.1c-0.5,0.2-0.9,0.3-1.4,0.4c-0.1,0-0.1,0-0.2-0.1c-0.4-0.5-0.7-1-1-1.5
		c0,0,0,0,0,0c0,0,0-0.1,0-0.1C12.9,32,13,32,13.1,32z"/>
	<path class="st1" d="M22.4,3.6C22.4,3.7,22.4,3.7,22.4,3.6c0,0,0,0.1,0,0.1c0.1,0.5,0.2,1.1,0.2,1.6c0,0.6,0,1.2-0.1,1.8
		c0,0.2-0.1,0.4-0.2,0.6c0,0,0,0,0,0.1c-0.1-0.3-0.2-0.5-0.3-0.8c0-0.1,0-0.1,0-0.2c0.2-0.7,0.3-1.4,0.3-2.1c0-0.3,0-0.7,0-1
		C22.4,3.7,22.3,3.7,22.4,3.6z"/>
	<path class="st8" d="M16.5,30.5C16.5,30.6,16.5,30.6,16.5,30.5c0.3,0.4,0.6,0.7,1,0.9c0.3,0.2,0.7,0.3,1,0.1
		c0.3-0.1,0.6-0.3,0.9-0.4c0.1-0.1,0.2-0.1,0.3-0.2c0,0,0,0,0,0c0.1,0,0.1,0.1,0.2,0.1c0,0.1-0.1,0.1-0.1,0.1
		c-0.6,0.4-1.2,0.7-1.8,1.1c-0.1,0-0.1,0-0.2,0c-0.6-0.5-1.1-0.9-1.6-1.4c0,0,0,0,0,0C16.3,30.6,16.4,30.6,16.5,30.5z"/>
	<path class="st5" d="M21.9,20.1c0.2,0.3,0.4,0.6,0.6,0.8c0.2,0.2,0.4,0.2,0.6,0.1c0.1-0.1,0.2-0.1,0.3-0.2c0.1-0.2,0.3-0.3,0.4-0.5
		c0,0,0,0,0,0c0.1,0.1,0.2,0.1,0.2,0.2c0,0.1-0.1,0.2-0.1,0.2c-0.2,0.3-0.5,0.7-0.8,1c0,0,0,0.1-0.1,0.1c0,0,0,0-0.1,0
		c-0.4-0.4-0.8-0.9-1.2-1.3c-0.1-0.1-0.1-0.1,0-0.2C21.8,20.2,21.8,20.2,21.9,20.1z"/>
	<path class="st7" d="M19.9,19c0,0,0-0.1,0-0.1c-0.2-0.3-0.4-0.5-0.6-0.8c-0.3-0.3-0.6-0.5-1-0.8c-0.5-0.3-1-0.5-1.5-0.7
		c0,0-0.1,0-0.1,0c-0.3-0.1-0.6-0.2-0.9-0.3c0.1,0,0.1,0,0.2,0c0.7,0.1,1.5,0.3,2.1,0.6c0.6,0.3,1.1,0.7,1.5,1.1
		c0.2,0.2,0.3,0.4,0.5,0.6c0.1,0.1,0.1,0.1,0,0.2C20,18.9,20,18.9,19.9,19z"/>
	<path class="st5" d="M19,20.1c0,0.1,0,0.1,0.1,0.1c0.2,0.3,0.4,0.5,0.7,0.7c0.4,0.3,0.6,0.2,0.9,0c0.2-0.2,0.4-0.4,0.6-0.6
		c0,0,0,0,0-0.1c0.1,0.2,0.1,0.2,0,0.3c-0.3,0.4-0.7,0.8-1.1,1.2c0,0,0,0,0,0c0,0.1-0.1,0-0.1,0c-0.2-0.2-0.3-0.4-0.5-0.6
		c-0.2-0.3-0.5-0.5-0.7-0.8c-0.1-0.1-0.1-0.1,0-0.2C18.9,20.1,18.9,20.1,19,20.1z"/>
	<path class="st8" d="M17.1,24.7c0.3,0.3,0.5,0.6,0.9,0.8c0.3,0.2,0.6,0.2,0.9,0c0.2-0.1,0.4-0.3,0.6-0.4c0.1-0.1,0.3-0.2,0.4-0.4
		c0.1,0,0.1,0.1,0.2,0.2c0,0,0,0.1,0,0.1c-0.5,0.4-1,0.9-1.6,1.3c0,0-0.1,0.1-0.1,0c-0.4-0.4-0.9-0.9-1.3-1.4c0,0,0,0,0,0
		C16.9,24.8,17,24.7,17.1,24.7z"/>
	<path class="st5" d="M14.6,25.9c0.1,0.1,0.1,0.1,0.1,0.2c-0.3,0.2-0.5,0.3-0.8,0.5c-0.2,0.1-0.3,0.2-0.5,0.3c0,0-0.1,0-0.1,0
		c-0.3-0.5-0.5-1-0.7-1.5c0-0.1,0-0.1,0.1-0.1c0.1,0,0.1,0,0.2,0c0.1,0,0.1,0.1,0.1,0.2c0.1,0.2,0.2,0.3,0.3,0.5
		c0.3,0.3,0.7,0.4,1.2,0.2C14.5,25.9,14.5,25.9,14.6,25.9z"/>
	<path class="st5" d="M23.3,21.8c0.2,0.2,0.3,0.4,0.5,0.5c0.2,0.1,0.3,0.2,0.5,0.3c0.3,0.1,0.5,0.1,0.7-0.1c0.2-0.1,0.3-0.3,0.4-0.5
		c0-0.1,0.1-0.1,0.1-0.2c0.1,0,0.2,0.1,0.2,0.1c0,0.1-0.1,0.1-0.1,0.2c-0.2,0.4-0.5,0.8-0.8,1.2c-0.1,0.1-0.1,0.1-0.2,0
		c-0.5-0.4-1-0.8-1.4-1.3c0,0,0,0-0.1-0.1c0,0,0-0.1,0-0.1C23.2,21.9,23.2,21.9,23.3,21.8z"/>
	<path class="st4" d="M18.8,19.3c0-0.1-0.1-0.2-0.1-0.3c-0.2-0.3-0.4-0.6-0.6-0.9c-0.3-0.4-0.7-0.7-1.2-1c-0.3-0.2-0.6-0.3-0.9-0.4
		c0,0-0.1,0-0.1,0c-0.1-0.1-0.2-0.1-0.2-0.3c0.1,0,0.1,0,0.2,0c0.2,0.1,0.4,0.1,0.6,0.2c0.4,0.1,0.7,0.4,1,0.6
		c0.3,0.3,0.7,0.6,0.9,0.9c0.3,0.4,0.6,0.7,0.7,1.2c0,0,0,0.1,0,0.1C19,19.4,18.9,19.4,18.8,19.3z"/>
	<path class="st3" d="M13.8,31.2c-0.1,0-0.2,0-0.3,0.1c-0.3,0.1-0.5-0.1-0.7-0.3c-0.2-0.2-0.3-0.5-0.4-0.8c0-0.1-0.1-0.3-0.1-0.4
		c0,0,0-0.1,0-0.1c0.1,0,0.3-0.1,0.4-0.1c0.1,0,0.1,0,0.2,0.1c0.2,0.5,0.5,0.9,0.8,1.3C13.7,31.1,13.7,31.1,13.8,31.2z"/>
	<path class="st5" d="M22,23.3c0.1,0.1,0.2,0.2,0.3,0.3c0.2,0.2,0.4,0.3,0.6,0.4c0.1,0.1,0.3,0.1,0.4,0.2c0.2,0,0.3,0,0.5-0.1
		c0.3-0.2,0.5-0.4,0.6-0.6c0,0,0,0,0-0.1c0.1,0,0.2,0.1,0.2,0.2c0,0.1-0.1,0.1-0.1,0.2c-0.3,0.3-0.5,0.7-0.8,1c0,0.1-0.1,0.1-0.1,0
		c-0.6-0.4-1.1-0.9-1.6-1.3c0,0,0,0,0,0C21.9,23.4,21.9,23.3,22,23.3z"/>
	<path class="st5" d="M15.9,23.2c0.1,0.2,0.2,0.3,0.3,0.4c0.1,0.1,0.2,0.2,0.3,0.2c0.3,0.2,0.6,0.2,0.8,0.1c0.2-0.1,0.4-0.2,0.5-0.3
		c0.2-0.1,0.3-0.3,0.5-0.4c0.1,0,0.1,0.1,0.2,0.2c0,0,0,0.1-0.1,0.1c-0.5,0.4-1,0.8-1.5,1.2c-0.1,0.1-0.1,0.1-0.2,0
		c-0.3-0.4-0.6-0.8-0.9-1.1c-0.1-0.1-0.1-0.1,0-0.2C15.8,23.3,15.9,23.2,15.9,23.2z"/>
	<path class="st5" d="M16.5,20c0.1,0.2,0.2,0.4,0.4,0.6c0.1,0.1,0.2,0.2,0.3,0.3c0.1,0.1,0.3,0.1,0.5,0c0.2-0.1,0.3-0.3,0.5-0.4
		c0.1-0.1,0.2-0.3,0.3-0.4c0.1,0.1,0.1,0.1,0,0.3c-0.3,0.4-0.7,0.8-1.1,1.2c-0.1,0.1-0.1,0.1-0.1,0c-0.3-0.4-0.6-0.9-0.9-1.3
		c0-0.1,0-0.1,0-0.1C16.4,20.1,16.4,20,16.5,20z"/>
	<path class="st4" d="M25.1,5.7C25.1,5.7,25.1,5.7,25.1,5.7c-0.3,0.5-0.6,0.9-0.8,1.4c-0.1,0.2-0.2,0.4-0.2,0.6
		c-0.2,0.5-0.4,1.1-0.5,1.7c-0.1,0.2-0.1,0.5-0.1,0.7c0,0,0,0,0,0c-0.2,0.1-0.4,0.2-0.6,0.4c0-0.1,0-0.1,0-0.2
		c0.2-0.6,0.4-1.2,0.7-1.8c0.3-0.6,0.5-1.1,0.8-1.7C24.5,6.4,24.7,6,25,5.6c0,0,0,0,0.1-0.1C25.1,5.6,25.1,5.7,25.1,5.7z"/>
	<path class="st3" d="M14.1,28.5c0,0.1-0.1,0.1-0.2,0.1c-0.1,0.1-0.3,0.1-0.4,0.1c-0.2,0-0.4-0.1-0.5-0.2c-0.3-0.3-0.4-0.6-0.5-1
		c0.2-0.1,0.5-0.2,0.7-0.3c0.1,0,0.1,0,0.1,0c0.2,0.4,0.4,0.7,0.7,1.1C14,28.3,14.1,28.4,14.1,28.5z"/>
	<path class="st3" d="M26.1,35.8c-0.1,0.1-0.3,0.3-0.4,0.4c-0.2,0.1-0.3,0.3-0.5,0.4c-0.3,0.2-0.5,0.3-0.9,0.4c-0.2,0-0.3,0-0.5,0
		c0,0-0.1,0-0.1,0c0.3-0.3,0.7-0.5,1-0.8c0.2-0.1,0.3-0.3,0.5-0.4c0,0,0.1-0.1,0.1-0.1C25.6,35.8,25.8,35.8,26.1,35.8z"/>
	<path class="st9" d="M24.6,17.4c0.5,0,1.1,0,1.2,0.2c-0.1,0-0.1,0-0.1,0c-0.2,0-0.3,0-0.5,0c-0.3,0-0.7,0-1,0.1
		c-0.7,0.1-1.5,0.3-2.2,0.6c-0.5,0.2-1,0.5-1.4,0.9c-0.1,0.1-0.2,0.2-0.3,0.3c-0.1,0.1-0.1,0.1-0.2,0.1c0,0-0.1,0-0.1,0
		c-0.1,0-0.1,0-0.2,0c0-0.1,0-0.1,0.1-0.1c0.9-0.8,1.8-1.3,2.9-1.7C23.4,17.5,24,17.4,24.6,17.4C24.6,17.4,24.6,17.4,24.6,17.4z"/>
	<path class="st5" d="M17.6,21.7c0.1,0.1,0.2,0.3,0.3,0.4c0.1,0.2,0.2,0.3,0.4,0.4c0.2,0.1,0.4,0.2,0.6,0.1c0.2-0.1,0.3-0.2,0.4-0.3
		c0.1-0.1,0.3-0.3,0.4-0.4c0,0,0.1-0.1,0.1-0.1c0,0,0.1,0.1,0.1,0.1C20,22,20,22,19.9,22c-0.2,0.2-0.4,0.3-0.5,0.5
		c-0.2,0.2-0.5,0.4-0.7,0.6c-0.1,0.1-0.1,0.1-0.1,0c-0.4-0.4-0.7-0.8-1-1.2c0,0,0-0.1,0-0.1C17.5,21.8,17.6,21.7,17.6,21.7z"/>
	<path class="st3" d="M24.4,20.3c0.1-0.1,0.1-0.2,0.2-0.3c0-0.1,0.1-0.1,0.1,0c0.3,0.1,0.6,0.3,0.8,0.5c0.2,0.1,0.3,0.3,0.5,0.5
		c0,0.2-0.2,0.3-0.4,0.3c-0.2,0-0.4-0.1-0.5-0.2c-0.2-0.2-0.4-0.3-0.6-0.5C24.4,20.4,24.3,20.4,24.4,20.3z"/>
	<path class="st5" d="M25,23.4c0.3,0.2,0.5,0.4,0.8,0.5c0.1,0.1,0.3,0.1,0.4,0.1c0.1,0,0.3,0,0.4-0.1c0.2-0.2,0.3-0.4,0.4-0.6
		c0,0,0-0.1,0-0.1c0.1,0.1,0.1,0.2,0.1,0.3c0,0.1,0,0.1,0,0.1c-0.2,0.3-0.4,0.6-0.5,0.9c-0.1,0.1-0.1,0.1-0.1,0
		c-0.5-0.3-1-0.6-1.4-0.9c0,0,0,0-0.1,0C24.9,23.6,24.9,23.6,25,23.4z"/>
	<path class="st4" d="M22.4,3.6c0,0,0,0.1,0,0.1c0,0.1,0,0.2,0,0.3c0,0.3,0,0.5,0,0.8c0,0.3,0,0.5-0.1,0.8c0,0.3-0.1,0.6-0.1,0.9
		c0,0.2-0.1,0.3-0.1,0.5c0,0,0-0.1,0-0.1C22,6.9,22,6.8,22,6.7c0.1-0.3,0.1-0.7,0.1-1c0-0.7,0-1.4,0-2.1c0-0.4-0.1-0.9-0.1-1.3
		c0,0,0.1,0,0.1,0.1c0.1,0.1,0.1,0.2,0.1,0.3C22.3,3,22.4,3.3,22.4,3.6z"/>
	<path class="st3" d="M14.6,25.9c0,0.1-0.1,0.1-0.2,0.1c-0.2,0.1-0.5,0.2-0.7,0.1c-0.3-0.1-0.5-0.2-0.7-0.5
		c-0.1-0.1-0.2-0.3-0.2-0.5c0.2-0.1,0.5-0.2,0.7-0.3c0.1,0,0.2-0.1,0.2-0.1c0.1,0.1,0.1,0.2,0.2,0.2C14.1,25.3,14.4,25.6,14.6,25.9z
		"/>
	<path class="st5" d="M25.9,26c0,0.1,0.1,0.1,0.2,0.1c0.2,0.1,0.4,0.2,0.6,0.3c0.4,0.1,0.5,0.1,0.7-0.2c0.1-0.1,0.2-0.3,0.3-0.4
		c0-0.1,0-0.1,0-0.2c0,0.2,0,0.3,0.1,0.5c0,0,0,0.1,0,0.1c-0.2,0.3-0.3,0.6-0.5,0.9c0,0,0,0.1-0.1,0c-0.5-0.2-1-0.5-1.4-0.8
		C25.8,26.2,25.8,26.1,25.9,26z"/>
	<path class="st10" d="M18.9,23.2c0,0.1,0.1,0.1,0.1,0.2c0.2,0.2,0.4,0.4,0.6,0.6c0.1,0.1,0.2,0.1,0.2,0.2c0.2,0.1,0.4,0.1,0.5,0
		c0.1-0.1,0.2-0.1,0.3-0.2c0.1-0.1,0.2-0.2,0.3-0.3c0.1-0.1,0.2-0.2,0.3-0.3c0,0,0,0,0-0.1c0.1,0,0.1,0.1,0.2,0.1
		c0.1,0.1,0.1,0.1,0,0.1c-0.2,0.2-0.5,0.5-0.8,0.7c-0.1,0.1-0.3,0.3-0.5,0.4c0,0-0.1,0.1-0.1,0.1c-0.5-0.4-0.9-0.9-1.4-1.4
		C18.8,23.3,18.9,23.3,18.9,23.2z"/>
	<path class="st3" d="M16.4,37.7c0.4,0,0.7-0.1,1.1-0.1c0.1,0,0.1,0,0.1,0c0.3,0.2,0.7,0.4,1,0.6c0.1,0.1,0.3,0.2,0.5,0.2
		c0,0,0,0-0.1,0c-0.6-0.1-1.1-0.2-1.7-0.2c0,0,0,0-0.1,0C17,38.1,16.7,37.9,16.4,37.7C16.4,37.7,16.3,37.7,16.4,37.7z"/>
	<path class="st11" d="M18.1,13.1C18,13,18,12.9,18,12.9c-0.2-0.4-0.3-0.8-0.6-1.2c-0.2-0.3-0.5-0.6-0.8-0.9c-0.6-0.5-1.2-0.8-2-1
		c0,0-0.1,0-0.1,0c-0.1-0.1-0.3-0.1-0.4-0.2c0.1,0,0.2,0,0.3,0c0.5,0.1,1,0.3,1.4,0.5c0.9,0.5,1.6,1.2,2,2.2
		c0.1,0.1,0.1,0.2,0.1,0.3C18.1,12.7,18.1,12.9,18.1,13.1z"/>
	<path class="st5" d="M13.4,33.5c0.1,0.1,0.1,0.2,0.2,0.3c0,0-0.1,0-0.1,0C13.3,33.9,13,34,12.7,34c-0.1,0-0.1,0-0.1-0.1
		c-0.2-0.5-0.3-1-0.4-1.6c0-0.1,0-0.1,0.1-0.2c0,0,0.1,0,0.1,0c0.1,0,0.1,0.1,0.1,0.2c0.1,0.2,0.2,0.5,0.3,0.7
		c0.2,0.3,0.3,0.5,0.6,0.4C13.3,33.5,13.4,33.5,13.4,33.5z"/>
	<path class="st10" d="M13,34.2C12.9,34.2,12.9,34.2,13,34.2c0.1,0.4,0.2,0.7,0.4,0.9c0.2,0.2,0.4,0.3,0.7,0.3c0.3,0,0.5,0,0.8,0
		c0,0,0.1,0,0.1-0.1c0.1,0.1,0.1,0.1,0.2,0.2c-0.1,0-0.1,0-0.2,0c-0.5,0.1-0.9,0.1-1.4,0.1c-0.1,0-0.1,0-0.2-0.1
		c-0.3-0.4-0.5-0.9-0.7-1.3c0,0,0,0,0-0.1C12.8,34.2,12.9,34.2,13,34.2z"/>
	<path class="st11" d="M24.6,17.4C24.6,17.4,24.5,17.4,24.6,17.4c-0.4,0-0.7,0.1-1,0.2c-0.4,0.1-0.9,0.2-1.3,0.4
		c-0.5,0.2-1,0.5-1.5,0.8c-0.3,0.2-0.5,0.4-0.8,0.6c-0.1,0.1-0.2,0.1-0.2,0.2c0.1,0,0.2,0,0.2,0c-0.1,0-0.3,0-0.4,0
		c0-0.1,0-0.1,0.1-0.1c0.5-0.6,1.2-1.1,1.9-1.4c0.6-0.3,1.2-0.5,1.9-0.6C23.9,17.4,24.2,17.3,24.6,17.4z"/>
	<path class="st11" d="M25.1,14c0,0-0.1,0-0.2,0c-0.5,0.1-1,0.2-1.5,0.5c-0.4,0.2-0.7,0.4-1.1,0.7c-0.2,0.1-0.3,0.3-0.5,0.5
		c-0.1,0.1-0.2,0.2-0.2,0.3c0,0.1-0.1,0.1-0.1,0.2c0,0.2,0,0.4,0,0.6c0,0,0-0.1,0-0.1c0-0.2,0-0.4,0-0.6c0-0.1,0-0.2,0.1-0.2
		c0.3-0.3,0.6-0.6,0.9-0.9c0.6-0.4,1.4-0.7,2.1-0.9c0.3-0.1,0.6-0.1,0.9-0.1c0,0,0.1,0,0.1,0c0,0-0.1,0-0.1,0
		C25.6,13.9,25.4,14,25.1,14z"/>
	<path class="st3" d="M26.8,31.4c0-0.1,0.1-0.2,0.2-0.2c0.3-0.4,0.6-0.8,0.8-1.2c0,0,0-0.1,0.1-0.1c0,0.6-0.1,1.2-0.2,1.8
		c0,0.1-0.1,0-0.1,0C27.4,31.6,27.1,31.5,26.8,31.4C26.8,31.4,26.8,31.4,26.8,31.4z"/>
	<path class="st7" d="M20.8,15.1C20.8,15,20.7,15.1,20.8,15.1c-0.3,0.2-0.5,0.3-0.6,0.5c-0.2,0.2-0.3,0.4-0.5,0.6
		c-0.2,0.3-0.4,0.6-0.5,0.9c0,0.1-0.1,0.1-0.1,0.2c-0.3-0.2-0.2-0.1-0.1-0.4c0.4-0.7,0.9-1.3,1.5-1.9c0.2-0.2,0.4-0.4,0.6-0.5
		c0,0,0,0,0,0C21,14.7,20.9,14.9,20.8,15.1z"/>
	<path class="st4" d="M15.1,18.1c-0.1,0-0.2-0.1-0.4-0.2c0.2-0.1,0.3-0.1,0.4-0.1c0.2,0,0.5,0.1,0.7,0.2c0.3,0.1,0.6,0.2,0.8,0.4
		c0.2,0.1,0.3,0.3,0.4,0.5c0,0,0,0,0,0.1c0.1,0.2,0.1,0.2-0.1,0.2c-0.3-0.4-0.7-0.7-1.1-0.9c-0.2-0.1-0.4-0.2-0.6-0.2
		C15.2,18.2,15.2,18.1,15.1,18.1z"/>
	<path class="st11" d="M24.8,5.7C24.8,5.6,24.8,5.7,24.8,5.7c-0.5,0.3-0.9,0.6-1.3,1c-0.5,0.5-0.8,1.1-1,1.8c0,0.1,0,0.1,0,0.2
		c0-0.1-0.1-0.3-0.1-0.4c0,0,0-0.1,0-0.1c0.3-0.7,0.8-1.3,1.3-1.9c0.3-0.3,0.6-0.5,0.9-0.7c0.1,0,0.2-0.1,0.3-0.1
		C24.9,5.5,24.9,5.6,24.8,5.7z"/>
	<path class="st7" d="M20.8,14.4c-0.1-0.1-0.1-0.3-0.2-0.4c-0.2-0.5-0.4-0.9-0.6-1.3c-0.2-0.3-0.3-0.6-0.6-0.8
		c-0.2-0.3-0.4-0.5-0.7-0.7c0,0,0,0-0.1,0c-0.1-0.1-0.2-0.3-0.3-0.4c0,0,0,0,0,0c0.3,0.2,0.5,0.5,0.7,0.7c0.5,0.6,1,1.3,1.4,2
		c0.2,0.3,0.3,0.5,0.4,0.8c0.1,0.1,0.1,0.1-0.1,0.2C20.9,14.4,20.9,14.4,20.8,14.4z"/>
	<path class="st11" d="M19.1,16.2c0-0.1,0-0.1,0-0.1c-0.2-0.4-0.5-0.7-0.8-1c-0.2-0.3-0.5-0.5-0.8-0.8c-0.3-0.2-0.5-0.4-0.8-0.6
		c-0.1-0.1-0.2-0.1-0.3-0.2c-0.1,0-0.2-0.1-0.3-0.1c-0.2-0.1-0.3-0.2-0.5-0.3c0,0,0,0,0,0c0.2,0,0.4,0.1,0.5,0.2
		c0.6,0.3,1.1,0.7,1.6,1.1c0.4,0.3,0.7,0.7,0.9,1c0.1,0.2,0.3,0.4,0.4,0.6C19.3,16.1,19.3,16,19.1,16.2
		C19.2,16.2,19.2,16.2,19.1,16.2z"/>
	<path class="st3" d="M25.8,35.3c0.3-0.3,0.6-0.6,0.8-0.9c0.1-0.1,0.2-0.2,0.2-0.3c0,0,0-0.1,0.1,0c0.1,0,0.2,0,0.3,0.1
		c-0.1,0.3-0.2,0.7-0.4,1c0,0-0.1,0.1-0.1,0.1C26.4,35.4,26.1,35.4,25.8,35.3C25.8,35.4,25.8,35.3,25.8,35.3z"/>
	<path class="st3" d="M12.1,26.4c0-0.3,0.1-0.7,0.2-1c0,0,0,0,0-0.1c0,0,0.1,0,0.1,0c0,0,0,0,0,0.1c0.2,0.4,0.4,0.8,0.6,1.3
		c0,0,0,0.1,0,0.1c-0.3,0.2-0.7,0.2-0.9-0.1C12.1,26.6,12.1,26.5,12.1,26.4z"/>
	<path class="st10" d="M24.4,20.3c0,0.1,0,0.1,0.1,0.1c0.2,0.2,0.4,0.4,0.6,0.5c0.1,0.1,0.2,0.2,0.4,0.2c0.2,0.1,0.4,0,0.5-0.2
		c0,0,0,0,0,0c0.2,0.2,0.2,0.2,0.1,0.4c-0.1,0.1-0.1,0.2-0.2,0.3c0,0,0,0,0,0c-0.1,0-0.1,0-0.1-0.1c-0.5-0.3-0.9-0.7-1.3-1.1
		C24.2,20.5,24.2,20.5,24.4,20.3C24.3,20.3,24.3,20.3,24.4,20.3z"/>
	<path class="st10" d="M15.9,20c0.1,0.2,0.1,0.2,0,0.4c-0.4,0.4-0.7,0.7-1.2,1c0,0-0.1,0-0.1,0.1c0,0-0.1,0-0.1,0
		c-0.1-0.1-0.1-0.3-0.2-0.4c0,0,0-0.1,0-0.1c0.1-0.1,0.1-0.1,0.2-0.2c0.2,0.1,0.3,0.1,0.4,0C15.3,20.5,15.6,20.3,15.9,20
		C15.9,20,15.9,20,15.9,20z"/>
	<path class="st3" d="M13.4,33.5c-0.1,0-0.2,0-0.3,0c-0.2,0-0.3-0.1-0.4-0.3c-0.1-0.1-0.1-0.2-0.2-0.3c-0.1-0.3-0.2-0.5-0.3-0.8
		c0.2-0.1,0.2-0.1,0.3,0.1c0.2,0.4,0.5,0.8,0.7,1.1C13.4,33.5,13.4,33.5,13.4,33.5z"/>
	<path class="st1" d="M15.1,18.1c0.1,0,0.2,0,0.3,0c0.4,0.1,0.8,0.3,1.1,0.6c0.1,0.1,0.2,0.2,0.4,0.4c0,0,0,0.1,0,0.1
		c-0.1,0-0.3,0.1-0.4,0.1c-0.1,0-0.1,0-0.1-0.1c-0.1-0.2-0.2-0.3-0.3-0.5c-0.2-0.2-0.5-0.4-0.7-0.6C15.2,18.2,15.2,18.2,15.1,18.1
		C15.1,18.2,15.1,18.2,15.1,18.1C15.1,18.1,15.1,18.1,15.1,18.1z"/>
	<path class="st3" d="M12.6,24.2c0.1-0.4,0.2-0.7,0.3-1.1c0,0,0,0,0.1,0.1c0.2,0.3,0.3,0.7,0.5,1c0,0,0,0,0,0c0,0,0,0,0,0
		c-0.2,0.1-0.4,0.3-0.7,0.2C12.6,24.5,12.6,24.4,12.6,24.2z"/>
	<path class="st12" d="M21.6,38.3c0.5-0.2,0.9-0.4,1.3-0.7c0,0,0.1-0.1,0.1,0c0.3,0,0.5,0.1,0.8,0.1c0,0.1,0,0.1-0.1,0.1
		c-0.1,0.1-0.3,0.2-0.4,0.2c-0.3,0.1-0.6,0.2-0.9,0.2C22.2,38.2,21.9,38.3,21.6,38.3C21.6,38.3,21.6,38.4,21.6,38.3z"/>
	<path class="st10" d="M26.4,28.7c0.2,0.1,0.4,0.2,0.6,0.2c0.2,0.1,0.5,0.2,0.7,0.2c0.1,0,0.1,0,0.1,0c0-0.1,0.1-0.1,0.1-0.2
		c0-0.3,0-0.5,0-0.8c0,0,0-0.1,0-0.1c0,0,0,0,0,0c0,0.4,0,0.9,0,1.3c0,0,0,0.1,0,0.1c0,0.1-0.1,0.1-0.2,0.1c-0.5-0.2-1-0.3-1.5-0.6
		C26.2,28.8,26.3,28.8,26.4,28.7z"/>
	<path class="st5" d="M12.1,26.4c0,0.2,0.2,0.4,0.4,0.4c0.1,0,0.2,0,0.3,0c0.1,0,0.1,0,0.2-0.1c0.1,0.1,0.1,0.1,0.1,0.2
		c0,0-0.1,0.1-0.1,0.1c-0.3,0.1-0.6,0.3-0.9,0.4c-0.1,0.1-0.2,0-0.1-0.1c0-0.2,0-0.5,0.1-0.7C12.1,26.5,12.1,26.4,12.1,26.4z"/>
	<path class="st13" d="M12.6,24.2c0,0.2,0.2,0.3,0.3,0.3c0.2,0,0.4-0.1,0.6-0.2c0.1,0.1,0.1,0.2,0.1,0.2c0,0,0,0,0,0
		c-0.3,0.2-0.7,0.3-1,0.5c-0.1,0-0.1,0-0.1-0.1c0-0.1-0.1-0.2,0-0.3C12.5,24.5,12.5,24.4,12.6,24.2z"/>
	<path class="st14" d="M15.9,20C15.9,20,15.9,20,15.9,20c-0.3,0.3-0.5,0.6-0.8,0.7c-0.1,0.1-0.2,0.1-0.3,0.1c-0.1,0-0.2,0-0.2-0.1
		c0.3-0.3,0.7-0.6,1.1-0.8C15.8,19.8,15.9,19.8,15.9,20z"/>
	<path class="st15" d="M11.9,28.6c0-0.2,0-0.4,0-0.6c0,0,0,0,0,0.1c0.2,0.4,0.3,0.8,0.5,1.2c0,0,0,0,0,0c-0.1,0.1-0.2,0.1-0.4,0
		c-0.1-0.1-0.2-0.2-0.2-0.3C11.9,28.8,11.9,28.7,11.9,28.6z"/>
	<path class="st9" d="M16.6,18c0.1,0.1,0.2,0.3,0.2,0.4c-0.1,0-0.1-0.1-0.1-0.1c-0.4-0.2-0.8-0.4-1.2-0.5c-0.1,0-0.2,0-0.3-0.1
		c0,0,0-0.1,0-0.1C15.6,17.6,16.3,17.6,16.6,18z"/>
	<path class="st16" d="M16.6,18c-0.2-0.1-0.4-0.2-0.6-0.3c-0.2,0-0.5,0-0.7,0c0,0,0,0,0,0c-0.2,0-0.3,0-0.5,0c0,0,0,0,0,0
		c0,0,0,0,0,0c0.4-0.3,0.9-0.4,1.3-0.3c0.1,0,0.2,0.1,0.3,0.2C16.4,17.8,16.5,17.9,16.6,18z"/>
	<path class="st10" d="M25.8,35.3c0.1,0.1,0.3,0.1,0.4,0c0.2,0,0.4-0.1,0.6-0.2c0,0.1-0.1,0.3-0.2,0.4c0,0.1-0.1,0.1-0.1,0.1
		c-0.2,0-0.5,0-0.7,0c-0.1,0-0.2,0-0.3,0C25.6,35.5,25.7,35.4,25.8,35.3z"/>
	<path class="st10" d="M26.8,31.4c0.2,0.1,0.5,0.2,0.7,0.3c0.1,0,0.1,0,0.2,0c0,0.1,0,0.1,0,0.2c0,0.1,0,0.1-0.1,0.1
		c-0.3-0.1-0.7-0.2-1-0.3C26.7,31.5,26.7,31.4,26.8,31.4z"/>
	<path class="st12" d="M27,24.5c0.1-0.2,0.2-0.4,0.4-0.6c0.1,0.3,0.2,0.6,0.2,0.9c0,0-0.1,0-0.1,0C27.3,24.8,27.2,24.7,27,24.5
		C27,24.6,27,24.6,27,24.5z"/>
	<path class="st17" d="M21.8,19.6c0.1,0,0.1,0,0.2,0c-0.1,0.2-0.3,0.4-0.5,0.6c-0.1-0.2-0.3-0.4-0.4-0.6c0.1,0,0.3,0,0.4,0
		C21.6,19.7,21.7,19.6,21.8,19.6z"/>
	<path class="st18" d="M24.1,19.8c0.1,0,0.1,0,0.2,0.1c0,0,0.1,0,0.1,0c-0.1,0.2-0.2,0.3-0.3,0.5c-0.2-0.2-0.4-0.5-0.6-0.7
		c0.2,0,0.3,0,0.4,0.1C24,19.9,24,19.9,24.1,19.8z"/>
	<path class="st18" d="M14.3,21.4c0.1,0.2,0.1,0.2-0.1,0.3c-0.2,0.2-0.5,0.3-0.8,0.4c0,0-0.1,0-0.1,0.1c0.1-0.1,0.1-0.3,0.2-0.4
		c0.2-0.1,0.4-0.2,0.6-0.3C14.2,21.4,14.3,21.4,14.3,21.4z"/>
	<path class="st17" d="M11.9,28.6c0,0.1,0,0.2,0,0.2c0,0.3,0.2,0.5,0.5,0.4c0,0,0,0,0.1,0c0,0,0,0,0,0.1c0,0,0,0,0,0.1
		c-0.2,0.1-0.5,0.2-0.7,0.2c0,0,0,0,0,0C11.9,29.2,11.9,28.9,11.9,28.6C11.9,28.6,11.9,28.6,11.9,28.6z"/>
	<path class="st18" d="M18.8,19.6c0.1,0,0.1,0,0.2,0c-0.1,0.2-0.2,0.3-0.3,0.5c-0.2-0.2-0.3-0.5-0.5-0.7c0.1,0,0.3,0.1,0.4,0.1
		c0,0,0,0,0,0C18.7,19.7,18.7,19.7,18.8,19.6z"/>
	<path class="st19" d="M16.4,37.7C16.4,37.7,16.4,37.7,16.4,37.7c0.3,0.2,0.6,0.4,0.9,0.5c0,0,0,0,0,0c-0.2,0-0.4-0.1-0.6-0.1
		c-0.3-0.1-0.5-0.2-0.8-0.3c0,0-0.1,0-0.1-0.1C16,37.7,16.2,37.7,16.4,37.7z"/>
	<path class="st18" d="M27,24.5c0.1,0.1,0.2,0.1,0.2,0.1c0.1,0,0.2,0.1,0.3,0.1c0,0.1,0,0.2,0.1,0.3c-0.3-0.1-0.5-0.2-0.8-0.3
		C26.9,24.7,26.9,24.6,27,24.5z"/>
	<path class="st12" d="M14.3,21.4c-0.2,0.1-0.4,0.3-0.6,0.4c0,0-0.1,0.1-0.1,0c0.2-0.3,0.4-0.5,0.6-0.7
		C14.2,21.2,14.3,21.3,14.3,21.4z"/>
	<path class="st20" d="M12.3,31.6c0,0.1,0.1,0.2,0.1,0.3c0,0.1,0,0.1,0,0.1c-0.1,0-0.2,0-0.3,0.1c0-0.2-0.1-0.5-0.1-0.7
		c0.1,0,0.1,0.1,0.2,0.1C12.2,31.5,12.2,31.6,12.3,31.6z"/>
	<path class="st21" d="M26.6,21.9c0.1,0.1,0.1,0.2,0.1,0.2c0,0-0.1,0-0.1,0c-0.2-0.1-0.4-0.2-0.6-0.3c-0.1,0-0.1-0.1,0-0.1
		c0,0,0.1-0.1,0.1-0.2C26.3,21.8,26.5,21.8,26.6,21.9z"/>
	<path class="st21" d="M27.9,27.1c0,0.1,0,0.2,0,0.3c-0.2-0.1-0.3-0.1-0.4-0.2c0,0,0,0,0-0.1c0-0.1,0.1-0.2,0.1-0.2
		C27.6,27,27.8,27,27.9,27.1z"/>
	<path class="st22" d="M27.9,27.1c-0.1,0-0.2-0.1-0.2-0.1c0,0-0.1,0-0.1-0.1c0.1-0.1,0.2-0.3,0.2-0.4c0,0,0,0,0,0
		C27.8,26.7,27.9,26.9,27.9,27.1z"/>
	<path class="st23" d="M16.6,19.6c-0.1,0.2-0.2,0.3-0.4,0.4c0,0,0,0,0,0c-0.2-0.2-0.2-0.2,0.1-0.4C16.4,19.6,16.4,19.6,16.6,19.6
		C16.6,19.5,16.6,19.5,16.6,19.6z"/>
	<path class="st24" d="M26.6,21.9c-0.2-0.1-0.3-0.1-0.4-0.2c0,0,0,0,0-0.1c0-0.1,0.1-0.2,0.1-0.3C26.4,21.6,26.5,21.8,26.6,21.9z"/>
	<path class="st25" d="M23.3,38c0.1-0.1,0.2-0.1,0.3-0.2c0.1-0.1,0.2-0.1,0.2-0.1c0.1,0,0.3,0,0.4,0C23.9,37.8,23.6,37.9,23.3,38z"
		/>
	<path class="st26" d="M12.3,31.6C12.3,31.6,12.2,31.6,12.3,31.6c-0.1-0.1-0.2-0.2-0.3-0.3c0-0.1,0-0.2,0-0.3c0,0,0-0.1,0-0.1
		C12.1,31.2,12.2,31.4,12.3,31.6z"/>
	<path class="st27" d="M27.3,33.6c0,0.1-0.1,0.2-0.1,0.3c0,0.1,0,0.1-0.1,0.1c0,0-0.1,0-0.1,0C27.1,33.8,27.2,33.7,27.3,33.6
		C27.3,33.5,27.4,33.5,27.3,33.6z"/>
	<path class="st28" d="M18.8,19.6c0,0-0.1,0.1-0.1,0.2c-0.1-0.1-0.2-0.1-0.1-0.2C18.7,19.5,18.7,19.5,18.8,19.6z"/>
	<path class="st29" d="M24.1,19.8c0,0.1,0,0.1-0.1,0.1c0,0-0.1-0.1-0.1-0.1c0,0-0.1-0.1,0-0.1C24,19.7,24,19.7,24.1,19.8z"/>
	<path class="st30" d="M21.8,19.6c0,0.1-0.1,0.1-0.1,0.2c-0.1,0-0.1-0.1-0.1-0.2C21.6,19.6,21.7,19.6,21.8,19.6z"/>
	<path class="st31" d="M16.2,13.3C16.2,13.3,16.2,13.3,16.2,13.3c0.1,0,0.2,0.1,0.3,0.1c0,0,0,0,0,0C16.3,13.4,16.3,13.3,16.2,13.3z
		"/>
	<path class="st32" d="M21.6,38.3C21.6,38.3,21.7,38.3,21.6,38.3c0,0.1,0,0-0.1,0.1C21.5,38.3,21.6,38.3,21.6,38.3z"/>
	<path class="st33" d="M26.6,9.2c-0.1,0-0.1,0-0.2,0C26.4,9.2,26.5,9.2,26.6,9.2z"/>
	<path class="st34" d="M15.7,12.9C15.7,12.9,15.7,12.9,15.7,12.9c-0.1,0-0.1,0-0.1,0C15.7,12.9,15.7,12.9,15.7,12.9z"/>
	<path class="st35" d="M21.6,6.7C21.6,6.7,21.6,6.7,21.6,6.7C21.6,6.7,21.6,6.7,21.6,6.7C21.6,6.6,21.6,6.7,21.6,6.7z"/>
	<path class="st36" d="M12,30.9C12,31,12,31,12,30.9C11.9,31,11.9,30.9,12,30.9C12,30.9,12,30.9,12,30.9z"/>
	<path class="st37" d="M18.5,10.6C18.5,10.7,18.5,10.7,18.5,10.6c-0.1,0-0.1,0-0.1,0C18.5,10.6,18.5,10.6,18.5,10.6z"/>
	<path class="st38" d="M19,38.4C19,38.4,19.1,38.4,19,38.4c0.1,0,0.1,0,0.1,0C19.1,38.4,19.1,38.4,19,38.4z"/>
	<path class="st39" d="M21.2,11.9C21.2,11.9,21.2,12,21.2,11.9C21.2,12,21.2,12,21.2,11.9C21.1,12,21.2,12,21.2,11.9
		C21.2,11.9,21.2,11.9,21.2,11.9C21.2,11.9,21.2,11.9,21.2,11.9z"/>
	<path class="st7" d="M19.7,11.3c0,0,0-0.1,0-0.1C19.7,11.2,19.7,11.2,19.7,11.3z"/>
	<path class="st40" d="M21.2,14.5C21.2,14.5,21.1,14.5,21.2,14.5C21.2,14.4,21.2,14.4,21.2,14.5C21.2,14.4,21.2,14.4,21.2,14.5
		C21.2,14.5,21.2,14.5,21.2,14.5z"/>
	<path class="st41" d="M16.6,19.6C16.6,19.6,16.5,19.5,16.6,19.6C16.6,19.5,16.6,19.5,16.6,19.6C16.6,19.5,16.6,19.6,16.6,19.6z"/>
	<path class="st42" d="M27.3,33.6C27.3,33.6,27.3,33.6,27.3,33.6C27.3,33.5,27.3,33.5,27.3,33.6C27.4,33.5,27.4,33.6,27.3,33.6z"/>
	<path class="st43" d="M21.2,14.5C21.2,14.4,21.2,14.4,21.2,14.5C21.2,14.4,21.2,14.4,21.2,14.5C21.3,14.4,21.2,14.4,21.2,14.5z"/>
	<path class="st33" d="M26.6,9.3c0,0,0.1,0,0.1,0C26.7,9.3,26.7,9.3,26.6,9.3z"/>
	<path class="st33" d="M26.7,9.2C26.7,9.2,26.7,9.2,26.7,9.2C26.8,9.2,26.8,9.2,26.7,9.2C26.8,9.2,26.8,9.2,26.7,9.2z"/>
	<path class="st44" d="M21.2,11.9C21.2,11.9,21.2,11.9,21.2,11.9C21.2,11.9,21.2,11.9,21.2,11.9C21.2,11.9,21.2,11.9,21.2,11.9
		C21.2,11.9,21.2,11.9,21.2,11.9z"/>
	<path class="st45" d="M14.8,17.8C14.8,17.8,14.8,17.8,14.8,17.8C14.7,17.8,14.7,17.8,14.8,17.8C14.7,17.8,14.7,17.8,14.8,17.8z"/>
	<path class="st4" d="M22.4,3.8C22.4,3.7,22.4,3.7,22.4,3.8C22.4,3.7,22.4,3.7,22.4,3.8z"/>
	<path class="st4" d="M15.1,18.1C15.1,18.1,15.1,18.2,15.1,18.1C15.1,18.2,15.1,18.2,15.1,18.1z"/>
	<path class="st6" d="M22.3,17.5C22.3,17.5,22.3,17.5,22.3,17.5C22.3,17.5,22.3,17.5,22.3,17.5z"/>
	<path class="st7" d="M25.1,9.9C25.1,9.9,25.1,9.9,25.1,9.9C25.1,9.9,25.1,9.9,25.1,9.9z"/>
	<path class="st5" d="M18.6,26.2C18.6,26.3,18.6,26.3,18.6,26.2C18.6,26.3,18.6,26.2,18.6,26.2z"/>
	<path class="st7" d="M20.8,14.5C20.8,14.4,20.8,14.4,20.8,14.5C20.8,14.4,20.8,14.5,20.8,14.5z"/>
	<path class="st46" d="M18,31.1c-0.1,0-0.1,0-0.2-0.1c-0.1-0.1-0.2-0.2-0.3-0.4c0-0.1,0-0.2,0-0.2c0.1-0.2,0.3-0.3,0.5-0.3
		c0.1,0,0.2,0,0.3,0c0.1,0.1,0.2,0.2,0.3,0.3c0,0.1,0,0.1,0,0.2C18.5,30.9,18.3,31.1,18,31.1z"/>
	<path class="st46" d="M17.8,33.8c-0.2,0-0.4-0.1-0.4-0.3c-0.1-0.2,0-0.3,0.1-0.5c0.1-0.1,0.1-0.1,0.2-0.1c0.2-0.1,0.3-0.1,0.4,0.1
		c0.1,0.1,0.2,0.1,0.2,0.2c0.1,0.1,0.1,0.2,0,0.3C18.2,33.7,18,33.8,17.8,33.8z"/>
	<path class="st46" d="M22.5,34c-0.2,0-0.3-0.1-0.5-0.2c-0.1-0.1-0.1-0.2-0.1-0.3c0.1-0.2,0.3-0.4,0.5-0.5c0,0,0.1,0,0.1,0
		c0.2,0,0.3,0.1,0.4,0.3c0.1,0.1,0.1,0.3,0,0.4c-0.1,0.1-0.2,0.2-0.4,0.3C22.6,34,22.6,34,22.5,34z"/>
	<path class="st46" d="M19.5,29.3c0-0.1,0-0.1,0.1-0.2c0.1-0.1,0.2-0.2,0.4-0.3c0.1,0,0.1,0,0.2,0c0.1,0.1,0.2,0.1,0.3,0.2
		c0.1,0,0.1,0.1,0.1,0.2c0.1,0.1,0.1,0.2,0,0.3c-0.1,0.2-0.3,0.3-0.5,0.4c-0.1,0-0.2,0-0.3,0c-0.2-0.1-0.3-0.2-0.4-0.3
		C19.5,29.4,19.5,29.3,19.5,29.3z"/>
	<path class="st46" d="M20.2,34.5c0.2,0,0.5,0.2,0.6,0.4c0,0.1,0,0.2-0.1,0.3c-0.1,0.1-0.3,0.3-0.5,0.3c-0.1,0-0.2,0-0.2,0
		c-0.2-0.1-0.4-0.2-0.5-0.3c-0.1-0.1-0.1-0.2,0-0.3C19.6,34.6,20,34.5,20.2,34.5z"/>
	<path class="st46" d="M22.1,28.3c-0.2,0-0.4-0.1-0.5-0.3c-0.1-0.1-0.1-0.3,0-0.4c0.1-0.1,0.1-0.2,0.2-0.2c0.1-0.1,0.2-0.1,0.3-0.1
		c0.2,0,0.4,0.3,0.4,0.4c0,0.1,0,0.2,0,0.2c-0.1,0.1-0.2,0.2-0.4,0.3C22.1,28.3,22.1,28.3,22.1,28.3z"/>
	<path class="st46" d="M20.1,32.7c-0.2,0-0.6-0.3-0.6-0.5c0-0.1,0-0.2,0-0.2c0-0.1,0.1-0.1,0.1-0.1c0.1-0.1,0.3-0.2,0.4-0.3
		c0.1-0.1,0.2-0.1,0.3,0c0.1,0.1,0.3,0.2,0.4,0.3c0.1,0.1,0.1,0.3,0,0.4C20.6,32.5,20.4,32.6,20.1,32.7
		C20.2,32.7,20.1,32.7,20.1,32.7z"/>
	<path class="st46" d="M18.1,36.1c0,0.1-0.1,0.2-0.1,0.2c-0.1,0.1-0.2,0.1-0.3,0.2c-0.1,0-0.2,0-0.3,0c-0.1-0.1-0.3-0.2-0.3-0.4
		c-0.1-0.2,0-0.3,0.1-0.4c0.1-0.1,0.2-0.1,0.3-0.2c0.1,0,0.1,0,0.1,0c0.2,0.1,0.3,0.2,0.4,0.4C18.1,36,18.1,36,18.1,36.1z"/>
	<path class="st46" d="M15.4,31.7c0-0.1,0-0.1,0-0.2c0.1-0.1,0.2-0.2,0.4-0.3c0.1,0,0.2,0,0.2,0.1c0.1,0.1,0.2,0.3,0.2,0.4
		c0,0.1,0,0.2-0.1,0.3c-0.1,0.1-0.2,0.1-0.3,0.1c-0.1,0-0.2,0-0.3-0.1C15.5,32,15.4,31.8,15.4,31.7z"/>
	<path class="st46" d="M18.2,28.2c-0.1,0-0.2,0-0.2-0.1c-0.1-0.1-0.2-0.2-0.3-0.3c-0.1-0.2-0.1-0.3,0.1-0.5c0.1-0.1,0.2-0.2,0.4-0.3
		c0.1-0.1,0.2-0.1,0.3,0c0.2,0.1,0.3,0.3,0.5,0.5c0.1,0.1,0,0.2,0,0.3C18.7,28,18.5,28.1,18.2,28.2C18.2,28.2,18.2,28.2,18.2,28.2z"
		/>
	<path class="st46" d="M22.9,35.6c0.2,0,0.4,0.1,0.5,0.2c0.1,0.1,0.1,0.2,0.1,0.3c0,0.1,0,0.1-0.1,0.2c-0.2,0.2-0.4,0.3-0.6,0.4
		c-0.3,0.1-0.6-0.1-0.6-0.4c0-0.1,0-0.2,0-0.2C22.4,35.8,22.6,35.7,22.9,35.6z"/>
	<path class="st46" d="M20.1,26.8c-0.3,0-0.6-0.3-0.6-0.5c0-0.1,0.1-0.3,0.1-0.4c0.1-0.1,0.2-0.2,0.4-0.3c0.1,0,0.1-0.1,0.2,0
		c0.1,0,0.3,0.1,0.4,0.2c0.1,0.1,0.2,0.2,0.2,0.3c0,0.1,0.1,0.1,0,0.2C20.6,26.6,20.4,26.7,20.1,26.8C20.1,26.8,20.1,26.8,20.1,26.8
		z"/>
	<path class="st46" d="M16.2,29.4c-0.1,0-0.2,0-0.2-0.1c-0.1-0.1-0.2-0.2-0.3-0.3c-0.1-0.2-0.1-0.3,0.1-0.4c0.1-0.1,0.2-0.1,0.3-0.2
		c0.1-0.1,0.3-0.1,0.4,0c0.1,0.1,0.2,0.2,0.2,0.3c0.1,0.1,0.1,0.2,0,0.4C16.6,29.3,16.5,29.4,16.2,29.4z"/>
	<path class="st46" d="M20.1,37.7c-0.1,0-0.3,0-0.4-0.1c-0.2-0.1-0.2-0.3,0-0.4c0.1-0.1,0.2-0.2,0.4-0.2c0.1,0,0.2,0,0.3,0
		c0.1,0.1,0.2,0.2,0.3,0.3c0.1,0.1,0,0.2,0,0.3C20.5,37.7,20.3,37.7,20.1,37.7z"/>
	<path class="st46" d="M23.8,26.6c-0.1,0-0.3-0.1-0.4-0.2c-0.1-0.1-0.1-0.2-0.1-0.4c0.1-0.2,0.2-0.3,0.4-0.4c0.1,0,0.2,0,0.2,0.1
		c0.1,0.1,0.2,0.3,0.3,0.5C24.3,26.4,24.1,26.6,23.8,26.6z"/>
	<path class="st46" d="M22.2,31.2c-0.2,0-0.4-0.1-0.5-0.2c-0.1-0.2-0.1-0.4,0-0.5c0.1-0.2,0.3-0.3,0.5-0.3c0.1,0,0.2,0,0.2,0
		c0.1,0.1,0.3,0.1,0.4,0.2c0.1,0.1,0.1,0.3,0.1,0.4c-0.1,0.1-0.2,0.2-0.3,0.3C22.4,31.2,22.3,31.2,22.2,31.2z"/>
	<path class="st46" d="M18.3,25.3C18.3,25.3,18.3,25.3,18.3,25.3c-0.2,0-0.5-0.4-0.5-0.6c0-0.1,0-0.1,0.1-0.2
		c0.1-0.2,0.2-0.3,0.4-0.4c0.1-0.1,0.3-0.1,0.4,0c0.1,0.1,0.2,0.2,0.3,0.2c0.2,0.2,0.2,0.4,0,0.5c-0.1,0.1-0.2,0.2-0.3,0.2
		C18.6,25.2,18.5,25.3,18.3,25.3z"/>
	<path class="st46" d="M23.6,29.1c0-0.3,0.2-0.5,0.5-0.5c0.1,0,0.3,0,0.4,0.1c0.1,0.1,0.2,0.2,0.2,0.3c0,0.2-0.3,0.6-0.5,0.6
		c-0.1,0-0.1,0-0.2-0.1c-0.1-0.1-0.2-0.2-0.3-0.3C23.7,29.2,23.6,29.1,23.6,29.1z"/>
	<path class="st46" d="M26.8,30C26.8,30,26.8,30,26.8,30c-0.1,0.3-0.2,0.5-0.5,0.6c0,0-0.1,0-0.1,0c-0.2-0.1-0.3-0.1-0.4-0.2
		c-0.1-0.1-0.1-0.1-0.1-0.2c0.1-0.4,0.6-0.6,0.9-0.4C26.7,29.8,26.8,29.8,26.8,30z"/>
	<path class="st46" d="M24.6,31.4c0.2,0,0.3,0,0.4,0.1c0.1,0.1,0.2,0.3,0.1,0.4c-0.1,0.2-0.2,0.3-0.4,0.4c-0.1,0.1-0.3,0-0.4,0
		c-0.1-0.1-0.2-0.1-0.3-0.2C24,32,23.9,31.9,24,31.7C24.2,31.5,24.4,31.4,24.6,31.4z"/>
	<path class="st46" d="M15.7,34.7c-0.1,0-0.1,0-0.2-0.1c-0.1-0.1-0.2-0.2-0.2-0.3c0-0.1,0-0.2,0.1-0.3c0.1-0.1,0.1-0.1,0.2-0.2
		c0.1-0.1,0.2-0.1,0.3,0c0.1,0.1,0.2,0.2,0.3,0.4c0,0.1,0,0.2,0,0.2C16,34.6,15.8,34.6,15.7,34.7C15.7,34.7,15.7,34.7,15.7,34.7z"/>
	<path class="st46" d="M21.8,24.1c0.1,0,0.1,0,0.2,0c0.1,0.1,0.3,0.2,0.4,0.3c0.1,0.2,0.2,0.3,0.1,0.5c-0.2,0.4-0.7,0.5-1.1,0.2
		c0,0-0.1-0.1-0.1-0.1c-0.1-0.1-0.2-0.3-0.1-0.5c0.1-0.2,0.2-0.3,0.3-0.4C21.6,24.1,21.7,24.1,21.8,24.1z"/>
	<path class="st46" d="M14.8,29.9c0,0.1,0,0.1,0,0.1c-0.1,0.1-0.2,0.2-0.4,0.2c0,0-0.1,0-0.1,0c-0.1-0.1-0.2-0.2-0.3-0.3
		c-0.1-0.1-0.1-0.1,0-0.2c0.1-0.2,0.3-0.3,0.4-0.3c0,0,0.1,0,0.1,0C14.6,29.5,14.8,29.6,14.8,29.9C14.8,29.8,14.8,29.9,14.8,29.9z"
		/>
	<path class="st46" d="M25.1,33.9c0.2,0,0.3,0.1,0.4,0.2c0.1,0.1,0.1,0.2,0,0.3c-0.1,0.2-0.3,0.3-0.6,0.4c-0.1,0-0.3,0-0.3-0.1
		c-0.1-0.1-0.1-0.3,0-0.4C24.6,34,24.8,33.9,25.1,33.9z"/>
	<path class="st46" d="M16.5,26.6c-0.3,0-0.5-0.3-0.5-0.5c0-0.1,0.1-0.2,0.1-0.2c0.1-0.1,0.3-0.2,0.4-0.3c0.1-0.1,0.2-0.1,0.3,0
		c0.1,0.1,0.2,0.2,0.3,0.3c0.1,0.2,0.1,0.3,0,0.4c-0.1,0.1-0.2,0.2-0.4,0.3C16.7,26.6,16.6,26.6,16.5,26.6z"/>
	<path class="st46" d="M19.2,21.6C19.2,21.6,19.2,21.6,19.2,21.6c0,0.2-0.3,0.5-0.5,0.5c-0.1,0-0.1,0-0.2,0
		c-0.1-0.1-0.2-0.2-0.3-0.3c-0.1-0.1-0.1-0.2,0-0.3c0.1-0.1,0.2-0.2,0.3-0.3c0.2-0.1,0.3-0.1,0.4,0.1c0.1,0.1,0.1,0.1,0.2,0.2
		C19.2,21.5,19.2,21.5,19.2,21.6z"/>
	<path class="st46" d="M24.4,21.2c0.1,0,0.2,0,0.2,0.1c0.1,0.1,0.2,0.2,0.3,0.3c0.1,0.1,0.1,0.3,0,0.4c-0.1,0.1-0.1,0.2-0.3,0.2
		c-0.1,0.1-0.3,0.1-0.4,0C24.1,22.2,24,22,24,21.9c0-0.1,0-0.2,0-0.2c0.1-0.1,0.1-0.2,0.3-0.3C24.3,21.3,24.3,21.2,24.4,21.2z"/>
	<path class="st46" d="M17.7,23c0,0.1-0.1,0.2-0.1,0.3c-0.1,0.1-0.2,0.2-0.3,0.2c-0.1,0.1-0.3,0.1-0.4,0c-0.1-0.1-0.2-0.2-0.2-0.3
		c0-0.1,0-0.2,0-0.3c0.1-0.2,0.3-0.3,0.5-0.4c0.1-0.1,0.2-0.1,0.3,0c0.1,0.1,0.2,0.2,0.2,0.3C17.6,22.9,17.7,23,17.7,23z"/>
	<path class="st46" d="M26.8,23.1C26.8,23.1,26.8,23.1,26.8,23.1c0,0.2-0.3,0.5-0.5,0.5c-0.2,0-0.5-0.1-0.6-0.3
		c-0.1-0.1-0.1-0.2,0-0.4c0.1-0.1,0.1-0.2,0.2-0.3c0-0.1,0.1-0.1,0.2-0.1c0.1,0,0.1,0,0.1,0c0.2,0.1,0.4,0.2,0.5,0.3
		C26.8,23,26.8,23,26.8,23.1z"/>
	<path class="st46" d="M20,23.8c-0.1,0-0.1,0-0.2-0.1c-0.1-0.1-0.2-0.2-0.2-0.3c-0.1-0.2-0.1-0.4,0.1-0.6c0.1-0.1,0.2-0.2,0.3-0.2
		c0.1-0.1,0.3-0.1,0.4,0c0.1,0.1,0.2,0.2,0.3,0.3c0.1,0.1,0.1,0.2,0,0.4c-0.1,0.2-0.2,0.3-0.3,0.4C20.2,23.8,20.1,23.8,20,23.8z"/>
	<path class="st46" d="M19.7,20.2c0-0.1,0-0.1,0.1-0.2c0.2-0.2,0.4-0.3,0.6-0.1c0.1,0,0.1,0.1,0.2,0.1c0.1,0.1,0.1,0.2,0,0.3
		c-0.1,0.1-0.2,0.2-0.3,0.3c-0.1,0.1-0.2,0.1-0.4,0C19.8,20.5,19.7,20.4,19.7,20.2z"/>
	<path class="st46" d="M23.2,23.9c-0.1,0-0.1,0-0.2,0c-0.2-0.1-0.3-0.2-0.4-0.3c-0.1-0.1-0.1-0.3,0-0.4c0.1-0.1,0.2-0.2,0.3-0.3
		c0.2-0.1,0.3-0.1,0.4,0c0.2,0.1,0.3,0.3,0.3,0.5C23.8,23.6,23.5,23.9,23.2,23.9z"/>
	<path class="st46" d="M21.1,21.8c0.1-0.2,0.1-0.4,0.3-0.5c0.1-0.1,0.2-0.1,0.3,0c0.2,0.1,0.3,0.2,0.3,0.3c0,0.1,0,0.1,0,0.2
		c-0.1,0.2-0.2,0.3-0.4,0.4c0,0-0.1,0-0.1,0c-0.1,0-0.3-0.1-0.4-0.2C21.2,21.9,21.1,21.9,21.1,21.8z"/>
	<path class="st46" d="M25.2,25.1c-0.2,0-0.4-0.1-0.5-0.2c-0.1-0.1-0.1-0.2-0.1-0.4c0.1-0.1,0.2-0.2,0.3-0.3c0.1,0,0.1,0,0.1,0
		c0.2,0.1,0.3,0.2,0.4,0.5C25.5,24.9,25.4,25.1,25.2,25.1z"/>
	<path class="st46" d="M13.7,32.4c0-0.1,0-0.1,0.1-0.2c0.1-0.1,0.1-0.1,0.2,0c0.2,0.1,0.3,0.2,0.4,0.4c0.1,0.1,0,0.2-0.1,0.2
		c-0.2,0.1-0.3,0.1-0.5-0.1C13.7,32.6,13.7,32.5,13.7,32.4z"/>
	<path class="st46" d="M26,27.4c0,0.1-0.1,0.2-0.2,0.3c-0.2,0.1-0.4,0.1-0.6,0c-0.1-0.1-0.1-0.3-0.1-0.4c0.1-0.1,0.1-0.2,0.2-0.2
		c0.1-0.1,0.2,0,0.3,0C25.9,27.1,26,27.3,26,27.4z"/>
	<path class="st46" d="M13.8,22.8c0-0.1,0-0.2,0.1-0.3c0.1-0.1,0.2-0.2,0.3-0.2c0.1,0,0.2,0,0.3,0.1c0.1,0.1,0.2,0.3,0.2,0.4
		c0,0.1,0,0.2-0.1,0.2c-0.1,0.1-0.2,0.2-0.3,0.2c-0.2,0.1-0.3,0-0.4-0.1C13.8,23.1,13.8,22.9,13.8,22.8z"/>
	<path class="st46" d="M15.3,36c0.1,0,0.2,0,0.2,0.1c0.1,0.1,0.1,0.1,0.2,0.2c0.1,0.1,0.1,0.2,0,0.3c-0.1,0.1-0.1,0.1-0.2,0.1
		c-0.1,0-0.2,0-0.3-0.1c-0.1-0.1-0.2-0.2-0.2-0.2c-0.1-0.2,0-0.4,0.1-0.5C15.1,36,15.2,36,15.3,36z"/>
	<path class="st46" d="M17.6,19.6c0.2,0,0.4,0.3,0.4,0.5c0,0,0,0.1-0.1,0.1c-0.1,0.1-0.2,0.1-0.3,0.2c-0.1,0.1-0.2,0.1-0.3,0
		c-0.2-0.1-0.3-0.3-0.3-0.5c0-0.1,0-0.1,0.1-0.2C17.3,19.7,17.4,19.6,17.6,19.6z"/>
	<path class="st46" d="M16.5,21.4c0,0.1,0,0.2-0.1,0.2c-0.1,0.1-0.3,0.2-0.5,0.3c-0.1,0-0.2,0-0.3-0.1c-0.1-0.1-0.1-0.2-0.1-0.3
		c0-0.1,0-0.2,0.1-0.3c0.1-0.1,0.2-0.2,0.4-0.3c0.1-0.1,0.3,0,0.4,0.1C16.4,21.1,16.5,21.2,16.5,21.4z"/>
	<path class="st46" d="M14.7,27.6c-0.2,0-0.4-0.2-0.5-0.4c0-0.1,0-0.2,0.1-0.3c0.1-0.1,0.2-0.2,0.4-0.2c0.1,0,0.1,0,0.2,0
		c0.1,0.1,0.2,0.3,0.3,0.5c0,0.1,0,0.2-0.1,0.3C15,27.5,14.9,27.6,14.7,27.6z"/>
	<path class="st46" d="M15.9,24.4c0,0.1,0,0.1-0.1,0.2c-0.1,0.1-0.2,0.2-0.3,0.3c-0.1,0.1-0.3,0.1-0.4,0c-0.1-0.1-0.2-0.1-0.2-0.2
		c-0.1-0.2-0.1-0.3,0-0.4c0.1-0.1,0.2-0.2,0.4-0.3c0.1,0,0.1,0,0.2,0c0.1,0,0.1,0,0.2,0.1c0,0.1,0.1,0.1,0.1,0.2
		C15.8,24.3,15.9,24.4,15.9,24.4z"/>
	<path class="st46" d="M22.4,20.2c0,0,0-0.1,0-0.1c0.1-0.1,0.1-0.2,0.3-0.3c0.1-0.1,0.2-0.1,0.3,0c0.1,0.1,0.2,0.2,0.3,0.3
		c0.1,0.1,0.1,0.2,0,0.2c-0.1,0.1-0.2,0.2-0.3,0.3c-0.1,0.1-0.3,0.1-0.4,0C22.5,20.6,22.4,20.4,22.4,20.2z"/>
	<path class="st46" d="M26.6,33c-0.1,0-0.2,0-0.3-0.1c-0.1-0.1-0.2-0.3-0.1-0.4c0.1-0.1,0.2-0.2,0.3-0.3c0.2-0.1,0.4-0.1,0.5,0.1
		c0.1,0.1,0.1,0.2,0.1,0.3c-0.1,0.2-0.2,0.3-0.3,0.4C26.7,33,26.6,33,26.6,33z"/>
	<path class="st47" d="M13.8,35.1c-0.2,0-0.3-0.1-0.3-0.2c-0.1-0.1,0-0.3,0.1-0.4c0.1-0.1,0.2-0.1,0.3,0c0.1,0.1,0.2,0.2,0.2,0.3
		C14.1,34.9,14,35,13.8,35.1C13.8,35.1,13.8,35.1,13.8,35.1z"/>
	<path class="st46" d="M27.3,28.7c-0.1,0-0.1,0-0.2-0.1C27,28.6,27,28.5,27,28.3c0-0.1,0.1-0.2,0.2-0.3c0.1-0.1,0.3-0.1,0.4,0
		c0.1,0,0.1,0.1,0.2,0.1c0,0.1,0.1,0.1,0,0.2c0,0.1,0,0.1-0.1,0.2C27.6,28.7,27.5,28.7,27.3,28.7z"/>
	<path class="st46" d="M27.3,25.7c0,0.3-0.4,0.6-0.7,0.4c-0.2-0.1-0.3-0.3-0.1-0.5c0.1-0.1,0.2-0.2,0.3-0.2
		C27,25.2,27.3,25.4,27.3,25.7z"/>
	<path class="st48" d="M13.1,30.6c0,0.1-0.1,0.2-0.2,0.2c-0.1,0-0.1-0.1-0.1-0.1c-0.1-0.1-0.1-0.1-0.1-0.2c0-0.1,0-0.1,0-0.2
		c0-0.1,0.1-0.1,0.2-0.1C13,30.3,13.1,30.5,13.1,30.6C13.1,30.6,13.1,30.6,13.1,30.6z"/>
	<path class="st47" d="M13.5,27.9c0,0.2-0.2,0.3-0.3,0.3c-0.1,0-0.1,0-0.1-0.1c-0.1-0.1-0.2-0.2-0.2-0.4c0-0.1,0-0.1,0-0.1
		c0.1-0.1,0.2-0.2,0.3-0.2c0,0,0.1,0,0.1,0C13.4,27.6,13.5,27.7,13.5,27.9C13.5,27.9,13.5,27.9,13.5,27.9z"/>
	<path class="st48" d="M25.3,36.3c0,0.1,0,0.1-0.1,0.1c-0.1,0.1-0.2,0.1-0.3,0.1c-0.1,0-0.2-0.1-0.1-0.2c0.1-0.1,0.2-0.2,0.3-0.2
		C25.2,36.1,25.3,36.2,25.3,36.3z"/>
	<path class="st46" d="M13.3,25.4c0-0.2,0.1-0.3,0.3-0.4c0.1,0,0.2,0,0.2,0.1c0.1,0.1,0.2,0.2,0.2,0.3c0,0.1,0,0.2,0,0.3
		c-0.1,0.2-0.5,0.3-0.7,0C13.3,25.6,13.3,25.5,13.3,25.4z"/>
	<path class="st49" d="M17.5,38c-0.1,0-0.2,0-0.2-0.1c0,0,0-0.1,0-0.1c0.1,0,0.1-0.1,0.2-0.1c0.1,0,0.1,0.2,0.1,0.2
		C17.6,38,17.6,38,17.5,38z"/>
	<path class="st49" d="M27.5,30.8c0.1,0,0.2,0.1,0.2,0.2c0,0.1-0.1,0.2-0.2,0.2c-0.1,0-0.1,0-0.1-0.1C27.2,31,27.3,30.8,27.5,30.8
		C27.4,30.8,27.5,30.8,27.5,30.8z"/>
	<path class="st48" d="M26.5,35.1c-0.1,0-0.2-0.1-0.1-0.2c0-0.1,0.1-0.1,0.1-0.1c0.1-0.1,0.2-0.1,0.2,0c0.1,0.1,0.1,0.1,0,0.2
		C26.7,35,26.6,35.1,26.5,35.1z"/>
	<path class="st50" d="M12.3,26.2c0-0.1,0-0.2,0.1-0.2c0.1,0,0.1,0,0.2,0.1c0,0.1,0.1,0.1,0.1,0.2c0,0.1,0,0.1-0.1,0.2
		c-0.1,0-0.1,0-0.2-0.1C12.3,26.4,12.3,26.3,12.3,26.2z"/>
	<path class="st48" d="M12.8,23.9c0-0.1,0.1-0.2,0.1-0.2c0.1,0,0.2,0,0.2,0.1c0,0,0,0.1,0,0.1c0,0.1,0,0.2-0.1,0.2
		c-0.1,0-0.2,0-0.2-0.1C12.8,24.1,12.8,24,12.8,23.9z"/>
	<path class="st51" d="M23.2,37.8c0,0.1-0.1,0.1-0.2,0.2c-0.1,0-0.2,0-0.2-0.1c0,0,0-0.1,0-0.1c0.1-0.1,0.2-0.2,0.3-0.1
		C23.2,37.7,23.2,37.8,23.2,37.8z"/>
</g>
</svg>
