<?xml version="1.0" encoding="utf-8"?>
<!-- Generator: Adobe Illustrator 24.1.3, SVG Export Plug-In . SVG Version: 6.00 Build 0)  -->
<svg version="1.1" id="Layer_1" xmlns="http://www.w3.org/2000/svg" xmlns:xlink="http://www.w3.org/1999/xlink" x="0px" y="0px"
	 viewBox="0 0 179 40" style="enable-background:new 0 0 179 40;" xml:space="preserve">
<style type="text/css">
	.st0{fill:#1A1300;}
	.st1{fill:#1CDA33;}
	.st2{fill:#90F231;}
	.st3{fill:#FBE42E;}
	.st4{fill:#03B415;}
	.st5{fill:#FCA22E;}
	.st6{fill:#03B416;}
	.st7{fill:#67C10F;}
	.st8{fill:#FCA22D;}
	.st9{fill:#8FF130;}
	.st10{fill:#FBA22D;}
	.st11{fill:#67C10E;}
	.st12{fill:#FAE32D;}
	.st13{fill:#FBA22E;}
	.st14{fill:#FBE42D;}
	.st15{fill:#FAE32E;}
	.st16{fill:#67C00F;}
	.st17{fill:#FAA12D;}
	.st18{fill:#FAA12C;}
	.st19{fill:#F9A12B;}
	.st20{fill:#F9A12D;}
	.st21{fill:#F9A12C;}
	.st22{fill:#F7E02C;}
	.st23{fill:#F7A02B;}
	.st24{fill:#F9E22C;}
	.st25{fill:#F49E2A;}
	.st26{fill:#F3DC2A;}
	.st27{fill:#F1DC2A;}
	.st28{fill:#F6DE2B;}
	.st29{fill:#F8E02B;}
	.st30{fill:#F2D92A;}
	.st31{fill:#80D827;}
	.st32{fill:#B7A71F;}
	.st33{fill:#5AA50C;}
	.st34{fill:#53940B;}
	.st35{fill:#0A810D;}
	.st36{fill:#837516;}
	.st37{fill:#518F0A;}
	.st38{fill:#786C14;}
	.st39{fill:#114D08;}
	.st40{fill:#569C0C;}
	.st41{fill:#9B671A;}
	.st42{fill:#BFAF21;}
	.st43{fill:#3B5D07;}
	.st44{fill:#079110;}
	.st45{fill:#457608;}
	.st46{fill:#FFFCEF;}
	.st47{fill:#FFFCEE;}
	.st48{fill:#FFFCED;}
	.st49{fill:#FFFBEB;}
	.st50{fill:#FFFCEC;}
	.st51{fill:#FFFBEA;}
	.st52{fill:#FFFFFF;}
</style>
<desc>Created with Sketch.</desc>
<g>
	<path class="st0" d="M10.2,16.7c-0.1-0.1-0.1-0.2-0.2-0.2c-0.1-0.1-0.2-0.2-0.2-0.4c0-0.2,0.1-0.4,0.2-0.5c0.1-0.1,0.3-0.1,0.4-0.1
		c0.2,0,0.4,0,0.6,0c0,0,0.1,0,0.1,0c0-0.2-0.1-0.3-0.2-0.4c-0.3-0.5-0.6-0.9-0.9-1.4c-0.2-0.2-0.3-0.5-0.4-0.7
		c0-0.1-0.1-0.2-0.1-0.4c0-0.2,0.1-0.4,0.3-0.5C10,12,10.2,12,10.3,12c0-0.1,0-0.1,0-0.1c-0.3-0.3-0.5-0.6-0.8-0.8
		c-0.3-0.3-0.6-0.6-0.8-0.9C8.5,9.9,8.4,9.7,8.3,9.4c0-0.3,0.1-0.6,0.4-0.7c0.2,0,0.3,0,0.5,0C9.9,8.8,10.5,9,11,9.3c0,0,0,0,0.1,0
		c0,0,0-0.1,0-0.1c-0.2-0.5-0.4-1-0.7-1.5C10.2,7.5,10.1,7.3,10,7C9.8,6.8,9.8,6.6,9.7,6.3c0-0.2,0-0.4,0.2-0.6
		c0.1-0.1,0.3-0.2,0.5-0.1c0.2,0,0.4,0.1,0.6,0.1c0.5,0.1,1,0.3,1.4,0.5c0,0,0,0,0.1,0c0-0.1,0-0.2,0-0.3c0-0.5-0.1-0.9-0.3-1.4
		C12.1,4.4,12.1,4.2,12,4c0-0.1,0-0.2,0-0.3c0.1-0.3,0.3-0.5,0.7-0.4c0.2,0,0.4,0.1,0.6,0.3c0.4,0.3,0.7,0.6,1,1c0,0,0,0,0.1,0.1
		c0,0,0-0.1,0-0.1c0.2-0.4,0.5-0.8,0.7-1.2c0.3-0.4,0.5-0.8,0.7-1.2c0.1-0.2,0.2-0.4,0.4-0.6c0.1-0.1,0.2-0.1,0.3-0.2
		c0.2,0,0.4,0.1,0.6,0.3c0.1,0.1,0.1,0.3,0.2,0.4c0.2,0.5,0.3,1.1,0.4,1.7c0.1,0.5,0.1,1,0.1,1.6c0,0.1,0,0.3,0,0.5
		C18,5.7,18,5.7,18,5.7c0.3-0.4,0.7-0.7,1.2-0.9c0.1-0.1,0.3-0.2,0.5-0.2c0.1,0,0.2,0,0.4,0c0.2,0.1,0.4,0.3,0.4,0.5
		c0,0.2,0,0.3-0.1,0.5c-0.2,0.6-0.4,1.3-0.5,2c-0.1,0.4-0.1,0.8-0.2,1.2c0,0,0,0,0,0c0.1,0,0.3-0.1,0.4-0.1c0.3-0.1,0.6-0.2,0.9-0.2
		c0.3-0.1,0.6-0.1,0.9,0c0,0,0.1,0,0.1,0c0.3,0.1,0.5,0.4,0.4,0.7c-0.1,0.2-0.2,0.4-0.3,0.5c-0.3,0.4-0.6,0.7-1,1
		c-0.6,0.5-1.1,1-1.7,1.5c-0.3,0.3-0.5,0.6-0.8,0.9c0,0,0,0.1-0.1,0.1c0,0,0.1,0,0.1,0c0.5-0.2,1-0.3,1.5-0.3c0.1,0,0.3,0,0.4,0
		c0.2,0,0.4,0,0.5,0.1c0.3,0.1,0.4,0.4,0.3,0.8c-0.1,0.2-0.2,0.3-0.3,0.5c-0.2,0.2-0.4,0.3-0.5,0.4c-0.5,0.4-1,0.8-1.5,1.3
		c-0.2,0.2-0.3,0.3-0.5,0.5c0,0,0,0,0,0.1c0.3,0,0.5-0.1,0.8-0.1c0.4,0,0.9,0,1.3,0.1c0.1,0,0.3,0.1,0.4,0.2
		c0.3,0.2,0.3,0.5,0.1,0.8c-0.2,0.2-0.4,0.4-0.7,0.5c-0.3,0.2-0.7,0.3-1,0.4c-0.2,0.1-0.4,0.1-0.6,0.2c-0.1,0-0.1,0-0.2,0.1
		c0,0,0.1,0,0.1,0c0.9,0.2,1.7,0.7,2.3,1.4c0.4,0.4,0.6,0.9,0.9,1.3c0.4,0.7,0.6,1.5,0.8,2.2c0.2,0.6,0.3,1.3,0.3,2
		c0.1,1,0.1,2,0.1,3c0,0.7,0,1.4-0.1,2.1c-0.1,1.3-0.4,2.5-0.8,3.8c-0.2,0.5-0.5,1.1-0.8,1.5c-0.4,0.7-1,1.1-1.8,1.5
		c-0.5,0.2-1,0.4-1.5,0.6c-0.4,0.1-0.9,0.2-1.3,0.3c-0.6,0.1-1.3,0.2-1.9,0.2c-0.4,0-0.7,0-1.1-0.1c-0.3,0-0.6-0.1-1-0.1
		c-0.7-0.1-1.5-0.2-2.2-0.5c-1.1-0.5-2-1.2-2.8-2.2c-0.5-0.7-0.9-1.5-1.2-2.4c-0.2-0.5-0.3-1-0.4-1.5c-0.1-0.4-0.1-0.8-0.2-1.3
		c-0.1-0.8-0.1-1.5,0-2.3c0-0.8,0.1-1.7,0.2-2.5c0.1-0.8,0.3-1.5,0.4-2.2C7,23.1,7.2,22.5,7.5,22C7.8,21.2,8.4,20.6,9,20
		c0.4-0.4,0.9-0.7,1.4-1c0,0,0,0,0,0c0.1-0.1,0.1,0,0-0.1c-0.1-0.2-0.2-0.3-0.4-0.4c-0.2-0.1-0.3-0.2-0.5-0.3
		c-0.2-0.1-0.3-0.1-0.5-0.2c-0.2-0.2-0.2-0.4-0.2-0.6c0-0.1,0.1-0.2,0.2-0.3c0.1-0.1,0.3-0.2,0.5-0.2C9.7,16.8,9.9,16.8,10.2,16.7
		C10.1,16.7,10.1,16.7,10.2,16.7z"/>
	<path class="st1" d="M21.7,9.2c-0.1,0.1-0.2,0.3-0.3,0.4c-0.5,0.5-1,1-1.6,1.5c-0.5,0.4-0.9,0.9-1.4,1.4c-0.4,0.5-0.7,0.9-0.8,1.5
		c0,0.1,0,0.1-0.1,0.1c-0.4,0.2-0.7,0.5-1,0.9c0,0,0,0-0.1,0c0-0.3,0.1-0.5,0.1-0.8c0-0.1,0-0.2,0-0.3c0-0.2-0.2-0.3-0.4-0.2
		c0,0-0.1,0-0.1,0c0-0.1,0-0.1,0-0.2c0.3-0.6,0.7-1.2,1.2-1.8c0.7-0.7,1.4-1.2,2.2-1.7c0.6-0.3,1.2-0.6,1.8-0.8
		c0.1,0,0.1-0.1,0.2-0.1C21.6,9.2,21.7,9.1,21.7,9.2z"/>
	<path class="st1" d="M13.6,10.3c-0.1-0.1-0.2-0.2-0.3-0.2c0,0-0.1,0-0.1-0.1c-0.1-0.1-0.2,0-0.3,0.1c0,0.1-0.1,0.2-0.1,0.3
		c0,0.2,0,0.5,0,0.7c0,0.2,0,0.4,0,0.6c-0.1,0-0.1,0-0.1-0.1c-0.3-0.5-0.6-1-1-1.4c0,0-0.1-0.1-0.1-0.2c-0.1-0.8-0.3-1.6-0.7-2.3
		c-0.2-0.3-0.4-0.7-0.6-1c-0.1-0.2-0.2-0.4-0.3-0.6c0.1,0,0.1,0,0.1,0c0.1,0.1,0.3,0.2,0.4,0.3c0.5,0.4,0.9,0.7,1.3,1.2
		c0.6,0.7,1.1,1.5,1.5,2.4C13.6,10.3,13.6,10.3,13.6,10.3z"/>
	<path class="st2" d="M16.7,2.2c0.1,0.4,0.1,0.9,0.1,1.3c0,0.6,0,1.1,0,1.7c0,0.4-0.1,0.8-0.1,1.1c0,0-0.1,0-0.1-0.1
		c-0.1-0.1-0.1-0.1-0.2-0.2C16.3,6,16.1,6,16,6.1C16,6.2,16,6.3,15.9,6.3c0,0.1-0.1,0.3-0.1,0.4c-0.1,0.4-0.2,0.7-0.3,1.1
		c0-0.1,0-0.2-0.1-0.2c-0.1-0.4-0.2-0.9-0.4-1.3c0,0,0,0,0,0c-0.1-0.3,0-0.5,0-0.8c0.2-1,0.6-2,1.1-2.9c0.1-0.2,0.2-0.3,0.3-0.5
		C16.6,2.2,16.6,2.1,16.7,2.2z"/>
	<path class="st2" d="M16.3,6.5c0.1,0.3,0.1,0.6,0.1,0.8c0,0.5,0,1,0,1.6c0,0.6-0.2,1.3-0.4,1.9c-0.1,0.3-0.2,0.7-0.4,1
		c-0.1,0.2-0.3,0.4-0.4,0.7c-0.1-0.1-0.2-0.3-0.3-0.4c-0.1-0.3-0.1-0.7-0.1-1c0-0.5,0.2-1,0.3-1.5c0.2-0.4,0.3-0.8,0.5-1.2
		c0.2-0.5,0.4-1.1,0.5-1.7C16.2,6.6,16.2,6.6,16.3,6.5z"/>
	<path class="st2" d="M12.7,3.7c0.1,0,0.2,0.1,0.2,0.1c0.6,0.4,1.1,1,1.5,1.6c0.4,0.7,0.7,1.4,0.8,2.2c0,0.2,0.1,0.4,0.1,0.6
		c0,0.1,0,0.1,0,0.1c-0.2,0.5-0.4,0.9-0.6,1.4c0-0.1-0.1-0.3-0.1-0.4c-0.1-0.9-0.2-1.9-0.4-2.8c-0.2-0.9-0.5-1.7-1.1-2.4
		C13,4.1,12.9,4,12.7,3.7C12.7,3.8,12.7,3.8,12.7,3.7z"/>
	<path class="st1" d="M20.7,13.7c-0.2,0.3-0.5,0.5-0.8,0.7c-0.4,0.3-0.8,0.6-1.2,1c-0.4,0.4-0.8,0.8-1,1.3c0,0.1-0.1,0.2-0.1,0.3
		c0,0,0,0.1-0.1,0.1c-0.2,0-0.3,0.1-0.5,0.1c0,0,0,0,0,0c0,0,0,0,0,0c0,0,0-0.1,0-0.2c0.2-0.9,0.6-1.6,1.2-2.2
		c0.6-0.6,1.4-1,2.2-1.2c0.1,0,0.2,0,0.2-0.1C20.6,13.7,20.7,13.6,20.7,13.7z"/>
	<path class="st3" d="M11.2,30.2c0.1-0.1,0.2-0.1,0.3-0.2c0.4-0.2,0.8-0.5,1.2-0.7c0.1-0.1,0.1-0.1,0.2,0c0.5,0.4,1,0.8,1.5,1.2
		c0,0,0,0,0.1,0.1c0,0.1,0,0.1-0.1,0.1c-0.4,0.3-0.8,0.5-1.2,0.6c-0.4,0.1-0.7,0.1-1.1-0.1c-0.3-0.2-0.6-0.5-0.9-0.8
		C11.2,30.3,11.2,30.3,11.2,30.2z"/>
	<path class="st3" d="M10.8,32.9c0.2-0.1,0.4-0.2,0.6-0.2c0.4-0.2,0.8-0.4,1.2-0.5c0.1,0,0.1,0,0.2,0c0.5,0.4,1.1,0.8,1.7,1.2
		c0,0,0,0,0,0c0,0,0,0.1-0.1,0.1c-0.4,0.2-0.8,0.4-1.3,0.5c-0.5,0.1-0.9,0-1.4-0.2c-0.3-0.2-0.6-0.4-0.8-0.7
		C10.9,33,10.8,33,10.8,32.9z"/>
	<path class="st3" d="M15.4,33.4c0.2-0.1,0.4-0.3,0.6-0.4c0.4-0.2,0.7-0.5,1.1-0.7c0,0,0.1-0.1,0.1,0c0.6,0.3,1.2,0.6,1.8,0.8
		c0,0,0,0.1,0,0.1c-0.4,0.3-0.8,0.6-1.3,0.8c-0.4,0.1-0.8,0.1-1.2,0c-0.4-0.1-0.7-0.3-1-0.4C15.5,33.5,15.4,33.5,15.4,33.4z"/>
	<path class="st3" d="M13.2,29c0.2-0.1,0.3-0.2,0.5-0.3c0.4-0.2,0.7-0.5,1.1-0.8c0,0,0.1-0.1,0.1,0c0.5,0.4,1,0.8,1.6,1.1
		c0,0,0,0.1,0,0.1c-0.3,0.3-0.7,0.6-1.1,0.8c-0.4,0.2-0.7,0.1-1.1-0.1C13.9,29.6,13.6,29.4,13.2,29C13.3,29.1,13.2,29.1,13.2,29z"/>
	<path class="st2" d="M19.6,5.3c-0.3,0.4-0.5,0.8-0.6,1.2c-0.2,0.6-0.5,1.2-0.8,1.8c-0.2,0.5-0.4,1-0.6,1.6c0,0,0,0.1,0,0.1
		c0,0,0,0,0,0c0-0.2,0-0.5,0-0.7c0-0.3-0.1-0.6-0.1-0.9c0,0,0,0,0-0.1c0-0.1,0-0.2,0-0.4c0.4-1.1,1.1-1.9,2.1-2.5
		C19.5,5.3,19.5,5.3,19.6,5.3z"/>
	<path class="st3" d="M12.9,34.6c0.3-0.1,0.5-0.2,0.8-0.3c0.4-0.2,0.8-0.4,1.1-0.6c0.1,0,0.1,0,0.1,0c0.6,0.4,1.3,0.7,1.9,0.9
		c0,0,0,0,0,0c0,0.1,0,0.1-0.1,0.1c-0.5,0.3-1,0.6-1.6,0.7c-0.5,0.1-1,0-1.4-0.2c-0.3-0.1-0.6-0.3-0.9-0.5
		C13,34.7,12.9,34.7,12.9,34.6z"/>
	<path class="st3" d="M15.3,27.5c0.2-0.2,0.4-0.3,0.6-0.5c0.3-0.2,0.6-0.5,0.8-0.7c0.1,0,0.1-0.1,0.1,0c0.5,0.4,1,0.8,1.6,1.1
		c0,0.1,0,0.1-0.1,0.1c-0.3,0.2-0.5,0.4-0.8,0.6c0,0-0.1,0-0.1,0.1c-0.4,0.2-0.7,0.2-1.1,0c-0.4-0.2-0.7-0.4-1-0.7
		C15.4,27.6,15.3,27.6,15.3,27.5z"/>
	<path class="st3" d="M13.1,31.9c0.2-0.1,0.4-0.2,0.5-0.3c0.4-0.2,0.8-0.5,1.2-0.7c0.1,0,0.1-0.1,0.2,0c0.5,0.3,1,0.7,1.6,1
		c0,0,0,0,0.1,0c0,0,0,0.1,0,0.1c-0.4,0.3-0.7,0.5-1.1,0.7c-0.5,0.2-1,0.1-1.4-0.1c-0.3-0.2-0.6-0.3-0.8-0.5
		C13.1,32,13.1,32,13.1,31.9z"/>
	<path class="st1" d="M13.9,15.1c-0.3-0.5-0.6-0.9-1-1.2c0,0-0.1-0.1,0-0.1c0.2-0.6,0.2-1.3,0.2-2c0-0.3,0-0.6,0-0.9
		c0-0.1,0-0.1,0-0.2c0.1,0,0.1,0.1,0.2,0.1c0.3,0.4,0.5,0.9,0.6,1.3c0.1,0.7,0.2,1.3,0.2,2c0,0.2,0,0.4,0,0.7
		C14,15,14,15.1,13.9,15.1z"/>
	<path class="st3" d="M10.6,35.3c0.4-0.1,0.7-0.2,1.1-0.3c0.2-0.1,0.4-0.1,0.6-0.2c0.1,0,0.1,0,0.1,0c0.6,0.4,1.2,0.9,1.9,1.2
		c0,0,0,0,0,0c0,0.1-0.1,0.1-0.1,0.1c-0.4,0.2-0.9,0.3-1.4,0.4c-0.3,0-0.6,0-0.9-0.2c-0.5-0.2-0.9-0.6-1.3-1
		C10.6,35.4,10.6,35.3,10.6,35.3z"/>
	<path class="st2" d="M15.6,14.1c-0.4,0.3-0.7,0.6-1.1,1c0-0.1,0-0.2,0-0.3c0-0.7,0-1.3-0.2-2c-0.1-0.7-0.4-1.4-0.8-2.1
		c0.1,0,0.1,0,0.1,0c0.2,0.2,0.3,0.3,0.4,0.5c0.5,0.7,1,1.4,1.3,2.2c0.1,0.2,0.1,0.4,0.2,0.5C15.6,14,15.6,14.1,15.6,14.1L15.6,14.1
		C15.6,14.1,15.6,14.1,15.6,14.1z"/>
	<path class="st1" d="M20.5,17.4c-0.2,0.1-0.4,0.2-0.6,0.3c-0.4,0.2-0.9,0.4-1.3,0.5c-0.4,0.2-0.7,0.4-1,0.7c0,0-0.1,0.1-0.1,0.1
		c-0.4,0-0.8,0-1.2,0.1c-0.1,0-0.2,0-0.3,0c0,0-0.1,0-0.1,0c-0.1,0-0.1,0,0-0.1c0-0.1,0.1-0.1,0.1-0.1c0.4-0.4,0.9-0.6,1.4-0.8
		c0.9-0.3,1.7-0.6,2.7-0.7c0.1,0,0.3,0,0.4,0C20.4,17.3,20.5,17.3,20.5,17.4z"/>
	<path class="st3" d="M9.3,31.1c0.5-0.2,0.9-0.4,1.4-0.6c0,0,0.1,0,0.1,0c0.4,0.4,0.9,0.9,1.4,1.3c0,0.1,0,0.1-0.1,0.1
		c-0.3,0.2-0.6,0.3-1,0.4c-0.5,0.2-0.8,0.1-1.2-0.3c-0.2-0.2-0.4-0.5-0.6-0.7C9.3,31.2,9.3,31.2,9.3,31.1z"/>
	<path class="st3" d="M11.4,27.3c0.3-0.2,0.6-0.4,1-0.7c0.2-0.1,0.3-0.2,0.5-0.4c0,0,0.1,0,0.1,0c0.5,0.4,1,0.9,1.4,1.3
		c0,0.1,0,0.1-0.1,0.1c-0.3,0.2-0.5,0.4-0.8,0.5c-0.4,0.2-0.9,0.2-1.3-0.1c-0.3-0.2-0.6-0.5-0.9-0.7C11.4,27.4,11.4,27.3,11.4,27.3z
		"/>
	<path class="st1" d="M13.5,19c-0.1,0-0.1,0-0.2-0.1c-0.4-0.1-0.8-0.2-1.2-0.1c-0.1,0-0.1,0-0.1-0.1c-0.2-0.6-0.5-1.2-0.9-1.7
		c-0.2-0.2-0.4-0.4-0.5-0.6c0-0.1,0.1,0,0.2,0c0.4,0.1,0.7,0.3,1.1,0.5c0.7,0.5,1.3,1.2,1.7,2C13.5,18.9,13.6,18.9,13.5,19z"/>
	<path class="st1" d="M16.3,14.4c0,0.2,0,0.4-0.1,0.6c-0.1,0.5-0.1,1,0,1.5c0,0.3,0.1,0.6,0.1,0.9c0,0.1,0,0.1-0.1,0.1
		c-0.4,0.2-0.7,0.4-1.1,0.6c-0.1,0-0.1-0.1-0.1-0.1c0-0.2,0-0.3,0-0.5c0.1-0.9,0.3-1.7,0.7-2.5c0.1-0.2,0.2-0.4,0.4-0.6
		C16.2,14.5,16.3,14.4,16.3,14.4z"/>
	<path class="st3" d="M15.5,36c0.2-0.1,0.3-0.2,0.5-0.3c0.5-0.3,0.9-0.5,1.4-0.8c0.1,0,0.1-0.1,0.2,0c0.6,0.2,1.1,0.3,1.7,0.4
		c0,0,0,0,0,0c0,0.1,0,0.1-0.1,0.1c-0.4,0.3-0.7,0.6-1.1,0.9c-0.4,0.2-0.8,0.3-1.3,0.2C16.4,36.4,16,36.3,15.5,36
		C15.6,36.1,15.5,36.1,15.5,36z"/>
	<path class="st3" d="M13.4,25.9c0.3-0.2,0.6-0.5,0.9-0.7c0.2-0.1,0.3-0.3,0.5-0.4c0,0,0.1-0.1,0.1,0c0.5,0.4,0.9,0.8,1.4,1.2
		c0,0.1,0,0.1,0,0.1c-0.2,0.2-0.5,0.4-0.8,0.6c-0.5,0.3-0.8,0.3-1.3,0c-0.3-0.2-0.6-0.4-0.8-0.7C13.4,26,13.3,26,13.4,25.9
		L13.4,25.9C13.4,25.9,13.4,25.9,13.4,25.9z"/>
	<path class="st3" d="M9.6,28.4c0.4-0.2,0.7-0.4,1.1-0.6c0.1-0.1,0.2-0.1,0.3-0.2c0.1-0.1,0.1-0.1,0.2,0c0.4,0.4,0.8,0.8,1.2,1.1
		c0.1,0.1,0.1,0.1,0.2,0.2c0,0.1,0,0.1-0.1,0.1c-0.3,0.2-0.6,0.4-1,0.5c-0.4,0.1-0.8,0-1.2-0.3C10,29,9.8,28.8,9.6,28.5
		C9.6,28.5,9.6,28.4,9.6,28.4z"/>
	<path class="st1" d="M13,16.4c-0.3-0.2-0.7-0.3-1-0.4c-0.1,0-0.1-0.1-0.1-0.1c-0.1-0.3-0.2-0.5-0.3-0.8c-0.2-0.4-0.4-0.8-0.7-1.1
		c-0.2-0.3-0.4-0.6-0.6-0.9c0-0.1-0.1-0.1-0.1-0.2c0,0,0.1,0,0.1,0c0.5,0.2,0.8,0.5,1.2,0.9c0.4,0.4,0.7,0.8,1,1.3
		c0.2,0.4,0.4,0.7,0.5,1.1C13,16.4,13,16.4,13,16.4z"/>
	<path class="st3" d="M13,37c0.4-0.1,0.8-0.2,1.2-0.4c0.2-0.1,0.4-0.2,0.7-0.3c0.1,0,0.1,0,0.2,0c0.6,0.3,1.3,0.5,1.9,0.7
		c0.1,0.1,0,0.1-0.1,0.1c-0.2,0.1-0.4,0.2-0.6,0.3c-0.4,0.1-0.7,0.2-1.1,0.2c-0.3,0-0.5,0-0.8-0.1c-0.4-0.1-0.9-0.3-1.3-0.5
		C13,37.1,13,37.1,13,37z"/>
	<path class="st1" d="M19.8,5.4c0,0.2-0.1,0.4-0.1,0.5c-0.1,0.5-0.2,0.9-0.3,1.4c-0.1,0.7-0.2,1.3-0.5,1.9c0,0.1-0.1,0.1-0.1,0.2
		c-0.2,0.1-0.4,0.2-0.5,0.3c-0.1,0-0.1,0-0.1-0.1c0-0.2,0-0.4,0.1-0.6c0.2-0.9,0.5-1.8,0.9-2.6c0.2-0.3,0.4-0.7,0.6-1
		C19.8,5.4,19.8,5.4,19.8,5.4z"/>
	<path class="st3" d="M17.2,26c0.1-0.1,0.2-0.2,0.3-0.3c0.3-0.3,0.5-0.5,0.8-0.8c0,0,0.1-0.1,0.1,0c0.5,0.4,1,0.7,1.5,1.1
		c0,0,0,0.1,0,0.1c-0.2,0.3-0.5,0.5-0.8,0.7c-0.3,0.1-0.6,0.1-0.9,0C17.9,26.5,17.6,26.3,17.2,26C17.2,26,17.2,26,17.2,26z"/>
	<path class="st2" d="M14.4,11c0,0.1,0,0.1,0,0.2c-0.1-0.1-0.2-0.2-0.3-0.3c-0.4-1.4-1-2.6-2.1-3.5c-0.4-0.3-0.7-0.7-1.1-0.9
		c0-0.1,0.1,0,0.1,0c0.5,0.1,1,0.4,1.4,0.7c1,0.9,1.6,2,1.9,3.3c0,0.2,0.1,0.3,0,0.5l0,0C14.4,10.9,14.4,10.9,14.4,11z"/>
	<path class="st3" d="M15.4,30.5c0.1-0.1,0.2-0.2,0.3-0.2c0.4-0.3,0.8-0.6,1.2-0.9c0,0,0.1-0.1,0.2,0c0.5,0.3,1,0.6,1.5,0.9
		c0,0,0,0,0,0c0,0,0,0.1,0,0.1c-0.3,0.3-0.6,0.5-0.9,0.7c-0.5,0.3-0.9,0.2-1.4,0c-0.3-0.1-0.5-0.3-0.8-0.4
		C15.4,30.6,15.4,30.6,15.4,30.5z"/>
	<path class="st1" d="M14,8.2c-0.3-0.4-0.6-0.8-0.9-1.1C13,7,13,7,13,6.9c0-0.2,0-0.5,0-0.7c0-0.7-0.1-1.3-0.4-2
		c0-0.1-0.1-0.2-0.1-0.3c0.1,0,0.1,0,0.1,0.1c0.3,0.4,0.5,0.8,0.7,1.2c0.3,0.6,0.5,1.2,0.5,1.8C14,7.4,14,7.7,14,8
		C14,8.1,14,8.1,14,8.2z"/>
	<path class="st3" d="M11.8,24.4c0.1-0.1,0.1-0.1,0.2-0.2c0.4-0.3,0.8-0.6,1.2-0.9c0,0,0.1-0.1,0.1-0.1c0,0,0,0,0.1,0.1
		c0.4,0.4,0.7,0.7,1.1,1.1c0,0,0,0,0,0c0,0,0,0.1,0,0.1c-0.3,0.3-0.6,0.5-0.9,0.7c-0.3,0.2-0.6,0.2-0.9,0
		C12.3,25,12.1,24.7,11.8,24.4C11.8,24.4,11.8,24.4,11.8,24.4z"/>
	<path class="st3" d="M17.4,29c0.3-0.3,0.7-0.6,1-0.9c0.1-0.1,0.2-0.2,0.4-0.3c0,0,0.1,0,0.1,0c0.5,0.3,0.9,0.5,1.4,0.8
		c0,0,0,0.1,0,0.1c-0.3,0.3-0.5,0.6-0.9,0.8c-0.3,0.2-0.7,0.2-1,0.1c-0.3-0.1-0.6-0.3-0.9-0.4C17.4,29.1,17.4,29,17.4,29z"/>
	<path class="st3" d="M19.5,30.2c0.1-0.1,0.3-0.3,0.4-0.4c0.3-0.3,0.5-0.6,0.8-0.9c0.1-0.1,0.1-0.1,0.2-0.1c0.4,0.2,0.9,0.3,1.3,0.5
		c0.1,0,0,0.1,0,0.1c-0.2,0.3-0.4,0.6-0.7,0.9c-0.3,0.3-0.6,0.4-1.1,0.3C20.2,30.5,19.9,30.4,19.5,30.2
		C19.5,30.2,19.5,30.2,19.5,30.2z"/>
	<path class="st3" d="M17.7,31.8c0.3-0.3,0.6-0.5,1-0.8c0.1-0.1,0.2-0.2,0.3-0.3c0.1-0.1,0.1-0.1,0.2,0c0.4,0.2,0.8,0.4,1.2,0.6
		c0.1,0,0.2,0.1,0.3,0.1c0.1,0,0,0.1,0,0.1c-0.3,0.3-0.5,0.6-0.9,0.8c-0.4,0.2-0.8,0.1-1.1,0c-0.3-0.1-0.5-0.2-0.8-0.3
		C17.8,31.9,17.7,31.9,17.7,31.8z"/>
	<path class="st1" d="M12.3,13.4c-0.3-0.2-0.5-0.4-0.8-0.5c0,0-0.1,0-0.1-0.1c-0.2-0.5-0.5-0.9-0.8-1.3c-0.2-0.2-0.4-0.5-0.7-0.7
		c-0.3-0.3-0.6-0.6-0.8-0.9C9,9.8,9,9.8,9,9.7c0-0.1,0.1,0,0.1,0c0.2,0.1,0.5,0.2,0.7,0.4c0.5,0.3,0.8,0.7,1.2,1.1
		c0.5,0.5,0.9,1.1,1.2,1.8C12.2,13.1,12.3,13.2,12.3,13.4C12.3,13.4,12.3,13.4,12.3,13.4z"/>
	<path class="st3" d="M9.1,33.5c0.4-0.1,0.8-0.3,1.2-0.4c0.1,0,0.1,0,0.1,0c0.5,0.5,0.9,0.9,1.4,1.3c0,0.1-0.1,0.1-0.1,0.1
		c-0.3,0.1-0.7,0.2-1.1,0.3c-0.3,0-0.6-0.1-0.8-0.2c-0.3-0.2-0.6-0.6-0.9-0.9C9.1,33.6,9,33.6,9.1,33.5z"/>
	<path class="st4" d="M21.7,9.2C21.7,9.2,21.6,9.2,21.7,9.2c-0.7,0.2-1.2,0.4-1.8,0.7c-0.4,0.2-0.7,0.4-1.1,0.7
		c-0.3,0.2-0.6,0.4-0.8,0.6c-0.2,0.2-0.4,0.4-0.6,0.6c-0.4,0.4-0.7,0.8-1,1.3c-0.1,0.2-0.2,0.4-0.3,0.6c0,0,0,0,0,0.1
		c0,0-0.1,0.1-0.1,0.1c-0.1,0,0-0.1,0-0.2c0.2-0.7,0.5-1.3,1-1.8c0.5-0.6,1.1-1.1,1.8-1.5c0.5-0.3,1.1-0.6,1.6-0.9
		C20.7,9.3,21,9.1,21.4,9c0.1,0,0.2,0,0.3,0c0.1,0,0.1,0,0.1,0.1C21.8,9.1,21.7,9.2,21.7,9.2z"/>
	<path class="st3" d="M15.2,24.4c0.3-0.3,0.5-0.5,0.8-0.8c0.1-0.1,0.3-0.3,0.4-0.4c0.2,0.2,0.4,0.3,0.5,0.5c0.3,0.2,0.6,0.5,0.9,0.7
		c0,0,0.1,0.1,0.1,0.1c0,0,0,0.1,0,0.1c-0.2,0.2-0.5,0.5-0.8,0.7c-0.3,0.2-0.6,0.2-0.9,0c-0.4-0.2-0.7-0.5-1-0.8
		C15.2,24.5,15.2,24.5,15.2,24.4z"/>
	<path class="st5" d="M13,37C13,37.1,13,37.1,13,37c0.5,0.3,1,0.5,1.5,0.6c0.2,0,0.4,0.1,0.6,0.1c0.2,0,0.5,0,0.7-0.1
		c0.4-0.1,0.7-0.2,1-0.4c0,0,0.1,0,0-0.1c0.2,0,0.3,0.1,0.5,0.1c0,0.1-0.1,0.1-0.1,0.1c-0.6,0.4-1.3,0.7-2,0.9
		c-0.3,0.1-0.5,0.1-0.8,0c-0.7-0.2-1.3-0.5-1.9-0.8c-0.1,0-0.1-0.1-0.2-0.1C12.7,37.1,12.8,37.1,13,37z"/>
	<path class="st3" d="M8.1,29c0.2-0.1,0.4-0.2,0.6-0.3c0.1-0.1,0.3-0.1,0.4-0.2c0.1,0,0.1,0,0.2,0c0.3,0.4,0.6,0.8,0.9,1.1
		c0.1,0.1,0.2,0.2,0.3,0.3c0,0.1,0,0.1-0.1,0.1c-0.3,0.1-0.6,0.3-0.9,0.3c-0.2,0-0.5-0.1-0.7-0.2C8.5,29.9,8.3,29.5,8.1,29
		C8.1,29.1,8,29.1,8.1,29z"/>
	<path class="st2" d="M19.8,9.6c-0.5,0.3-1.1,0.6-1.6,1c-0.7,0.5-1.2,1-1.7,1.7c-0.2,0.4-0.4,0.8-0.6,1.2c0,0,0,0.1-0.1,0.1
		c-0.1-0.2-0.2-0.5-0.4-0.7c0-0.1,0-0.1,0.1-0.1c0.3-0.5,0.6-0.9,1.1-1.3c0.6-0.5,1.2-1,1.9-1.4c0.4-0.2,0.8-0.4,1.2-0.5
		C19.8,9.5,19.8,9.5,19.8,9.6C19.9,9.6,19.9,9.6,19.8,9.6C19.8,9.6,19.8,9.6,19.8,9.6z"/>
	<path class="st3" d="M18.1,34.5c0.3-0.2,0.6-0.4,0.8-0.7c0.2-0.2,0.4-0.4,0.6-0.5c0,0,0.1-0.1,0.1,0c0.5,0.2,1,0.3,1.5,0.4
		c0,0,0,0.1,0,0.1c-0.3,0.4-0.7,0.7-1.2,0.9c-0.4,0.1-0.8,0.1-1.1,0c-0.2,0-0.3-0.1-0.5-0.1C18.1,34.5,18.1,34.5,18.1,34.5z"/>
	<path class="st2" d="M14.6,18.6c-0.1,0.2-0.3,0.3-0.4,0.5c-0.1,0.1-0.2,0-0.2,0c-0.2-0.5-0.5-1-0.9-1.4c-0.5-0.5-0.9-0.9-1.5-1.3
		c-0.1,0-0.1-0.1-0.2-0.1c0-0.1,0.1,0,0.1,0c0.8,0.3,1.6,0.7,2.3,1.2c0.3,0.3,0.6,0.6,0.8,1C14.6,18.5,14.7,18.6,14.6,18.6z"/>
	<path class="st3" d="M10.1,25.6c0.1-0.1,0.2-0.1,0.3-0.2c0.3-0.2,0.6-0.5,1-0.7c0,0,0.1-0.1,0.1,0c0.4,0.4,0.7,0.8,1.1,1.2
		c0,0,0,0,0,0c0,0,0,0.1,0,0.1c-0.3,0.2-0.7,0.5-1.1,0.6c-0.3,0.1-0.6,0-0.8-0.2c-0.2-0.2-0.4-0.4-0.5-0.6
		C10.1,25.7,10,25.6,10.1,25.6z"/>
	<path class="st3" d="M12.4,21.3c0.3-0.3,0.5-0.6,0.8-0.8c0.1-0.1,0.2-0.2,0.3-0.4c0.1,0.1,0.2,0.2,0.3,0.3c0.2,0.3,0.5,0.6,0.8,0.9
		c0,0,0,0,0.1,0.1c0,0.1,0,0.1,0,0.1c-0.2,0.2-0.4,0.4-0.7,0.6c-0.1,0.1-0.2,0.1-0.4,0.2c-0.2,0-0.4-0.1-0.5-0.3
		c-0.2-0.2-0.3-0.4-0.5-0.6C12.4,21.4,12.3,21.4,12.4,21.3z"/>
	<path class="st2" d="M15.5,14.8c-0.2,0.3-0.3,0.7-0.5,1c-0.2,0.5-0.2,0.9-0.3,1.4c0,0.2,0,0.5,0,0.7c-0.3-0.4-0.6-0.7-1-1
		c0,0,0-0.1,0-0.1c0.4-0.7,0.8-1.3,1.4-1.8c0.1-0.1,0.2-0.1,0.3-0.2C15.5,14.7,15.5,14.7,15.5,14.8z"/>
	<path class="st3" d="M18,21.5c0.2-0.3,0.5-0.6,0.7-1c0-0.1,0.1-0.1,0.1-0.2c0.1,0.1,0.3,0.3,0.4,0.4c0.3,0.3,0.6,0.5,1,0.8
		c0,0,0,0.1,0,0.1c-0.1,0.2-0.3,0.4-0.4,0.6c-0.3,0.2-0.5,0.3-0.8,0.1C18.6,22.2,18.3,21.9,18,21.5C18,21.6,18,21.5,18,21.5z"/>
	<path class="st5" d="M12.9,34.6c0.4,0.3,0.8,0.5,1.3,0.7c0.2,0.1,0.4,0.1,0.6,0.1c0.5,0,0.9-0.1,1.3-0.3c0.3-0.1,0.5-0.3,0.8-0.4
		c0,0,0.1,0,0.1-0.1c0.1,0,0.2,0.1,0.3,0.1c0,0,0,0.1-0.1,0.1c-0.7,0.5-1.4,0.9-2.2,1.2c-0.1,0-0.1,0-0.2,0
		c-0.7-0.4-1.5-0.8-2.1-1.3c0,0,0,0-0.1-0.1C12.7,34.7,12.8,34.6,12.9,34.6z"/>
	<path class="st3" d="M10.7,22.9c0.2-0.1,0.4-0.3,0.5-0.4c0.3-0.2,0.5-0.4,0.7-0.7c0,0,0.1-0.1,0.1-0.1c0.1,0.1,0.1,0.1,0.1,0.2
		c0.2,0.3,0.5,0.6,0.7,0.9c0,0,0.1,0.1,0.1,0.1C13,23,12.8,23,12.7,23.1c-0.2,0.2-0.4,0.3-0.6,0.4c-0.4,0.3-0.8,0.2-1.2-0.1
		c-0.1-0.1-0.2-0.3-0.3-0.4C10.7,23,10.6,22.9,10.7,22.9z"/>
	<path class="st3" d="M19.8,23.1c0.1-0.2,0.3-0.4,0.4-0.7c0.1-0.2,0.2-0.4,0.4-0.6c0.1-0.1,0.1-0.1,0.1,0c0.3,0.1,0.5,0.3,0.8,0.4
		c0,0,0.1,0,0.1,0.1c0.1,0.2,0.2,0.5,0.3,0.7c-0.1,0.3-0.3,0.5-0.5,0.7c-0.1,0.1-0.2,0.1-0.4,0.1c-0.2,0-0.4-0.1-0.6-0.3
		c-0.2-0.1-0.3-0.2-0.5-0.3C19.8,23.1,19.8,23.1,19.8,23.1z"/>
	<path class="st5" d="M15.4,30.5c0.4,0.3,0.8,0.5,1.2,0.6c0.4,0.1,0.8,0,1.1-0.2c0.3-0.2,0.5-0.4,0.8-0.6c0,0,0.1-0.1,0.1-0.1
		c0.1,0,0.2,0.1,0.3,0.2c0,0.1,0,0.1-0.1,0.1c-0.5,0.5-1,0.9-1.6,1.3c-0.1,0-0.1,0.1-0.2,0c-0.7-0.4-1.3-0.8-1.9-1.2c0,0,0,0-0.1,0
		C15.2,30.6,15.3,30.6,15.4,30.5z"/>
	<path class="st4" d="M12.3,13.4C12.3,13.4,12.3,13.4,12.3,13.4c-0.1-0.4-0.2-0.6-0.3-0.8c-0.2-0.3-0.4-0.6-0.6-0.9
		c-0.1-0.2-0.3-0.3-0.4-0.5c-0.2-0.2-0.3-0.4-0.5-0.5c-0.2-0.2-0.5-0.4-0.7-0.6C9.5,9.9,9.2,9.8,9,9.7c0,0,0,0-0.1,0
		C8.9,9.6,8.8,9.5,8.8,9.3c0,0,0,0,0.1,0c0.4,0.2,0.9,0.4,1.3,0.7c0.5,0.3,0.8,0.7,1.2,1.1c0.5,0.6,0.8,1.2,1.1,1.9
		c0.1,0.2,0.1,0.3,0.2,0.5c0,0,0,0.1,0,0.1C12.5,13.6,12.4,13.5,12.3,13.4z"/>
	<path class="st3" d="M13.7,22.9c0.3-0.3,0.6-0.6,0.9-0.9c0.1-0.1,0.1-0.1,0.2-0.2c0.1-0.1,0.1-0.1,0.1,0c0.3,0.3,0.5,0.5,0.8,0.8
		c0.1,0.1,0.2,0.2,0.3,0.3c0,0,0,0.1,0,0.1c-0.2,0.3-0.5,0.6-0.8,0.8c-0.2,0.2-0.5,0.2-0.7,0c-0.3-0.2-0.6-0.5-0.8-0.7
		C13.7,23,13.6,23,13.7,22.9z"/>
	<path class="st6" d="M13.9,15.1c0-0.1,0.1-0.2,0.1-0.3c0-0.1,0-0.2,0-0.3c0,0,0-0.1,0-0.1c0-0.2,0-0.3,0-0.5c0-0.2,0-0.4,0-0.6
		c0-0.3-0.1-0.5-0.1-0.8c-0.1-0.4-0.2-0.8-0.4-1.2c-0.1-0.2-0.2-0.4-0.4-0.6c0-0.1,0-0.3,0-0.4c0.1,0,0.1,0.1,0.1,0.1
		c0.5,0.6,0.8,1.3,1,2c0.1,0.5,0.2,0.9,0.3,1.4c0,0.4,0,0.7,0,1.1c0,0.1,0,0.2,0,0.3c0,0.1-0.1,0.2-0.2,0.3
		C14.1,15.4,14,15.3,13.9,15.1z"/>
	<path class="st3" d="M13.7,19.7c0.1-0.1,0.1-0.2,0.2-0.3c0,0,0.1-0.1,0.1,0c0.4,0.1,0.8,0,1.2,0c0.1,0,0.2,0,0.3,0c0,0,0.1,0,0.1,0
		c0.1,0.2,0.2,0.3,0.3,0.5c0,0.1,0,0.1,0,0.1c-0.2,0.2-0.4,0.4-0.6,0.6c-0.3,0.2-0.6,0.2-0.9,0c-0.3-0.2-0.5-0.5-0.7-0.7
		C13.7,19.8,13.7,19.8,13.7,19.7z"/>
	<path class="st2" d="M12.8,12.7c0,0.2-0.1,0.5-0.1,0.7c-0.1-0.3-0.2-0.6-0.3-0.8c-0.3-0.5-0.6-1.1-1-1.5c-0.4-0.5-0.9-1-1.5-1.3
		C9.7,9.6,9.5,9.5,9.3,9.4c0-0.1,0.1,0,0.1,0c0.3,0.1,0.5,0.2,0.7,0.3c0.5,0.2,1,0.6,1.5,1c0.4,0.4,0.7,1,1,1.5
		C12.7,12.4,12.8,12.5,12.8,12.7z"/>
	<path class="st3" d="M16.8,22.9c0.2-0.2,0.4-0.5,0.6-0.7c0.1-0.1,0.2-0.2,0.3-0.3c0.1-0.1,0.1-0.1,0.1,0c0.3,0.3,0.6,0.6,0.9,0.8
		c0.2,0.1,0.3,0.3,0.5,0.4c0,0.1,0,0.1,0,0.1c-0.2,0.2-0.3,0.4-0.6,0.5c-0.2,0.1-0.4,0.1-0.6,0.1c-0.3-0.1-0.5-0.3-0.7-0.4
		c-0.1-0.1-0.3-0.2-0.4-0.3C16.8,23,16.7,23,16.8,22.9z"/>
	<path class="st3" d="M15.2,21.4C15.2,21.4,15.3,21.4,15.2,21.4c0.4-0.4,0.7-0.8,1-1.1c0,0,0-0.1,0.1-0.1c0,0,0,0,0,0.1
		c0.3,0.4,0.6,0.8,1,1.2c0,0,0,0,0,0c0,0,0,0.1,0,0.1c-0.2,0.2-0.3,0.4-0.6,0.5c-0.2,0.1-0.5,0.2-0.7,0C15.7,22,15.5,21.8,15.2,21.4
		C15.2,21.5,15.2,21.5,15.2,21.4z"/>
	<path class="st3" d="M18.7,24.5c0.2-0.3,0.5-0.6,0.7-0.9c0-0.1,0.1-0.1,0.1-0.2c0,0,0.1,0,0.1,0.1c0.4,0.3,0.9,0.7,1.4,0.9
		c0,0,0,0,0,0c0,0.1-0.1,0.1-0.1,0.2c-0.3,0.4-0.7,0.5-1.2,0.4c-0.4-0.1-0.7-0.3-1-0.5C18.7,24.5,18.7,24.5,18.7,24.5z"/>
	<path class="st5" d="M17.7,31.8C17.7,31.8,17.8,31.8,17.7,31.8c0.4,0.2,0.8,0.4,1.2,0.5c0.5,0.1,0.9,0,1.2-0.3
		c0.2-0.2,0.4-0.3,0.5-0.5c0,0,0.1-0.1,0-0.1c0.1,0,0.2,0.1,0.3,0.1c0,0,0,0.1-0.1,0.1c-0.4,0.5-0.9,1-1.3,1.4
		c-0.1,0.1-0.1,0.1-0.2,0c-0.7-0.2-1.3-0.5-1.9-0.8c0,0-0.1,0-0.1-0.1C17.5,31.9,17.6,31.8,17.7,31.8z"/>
	<path class="st5" d="M13.1,31.9c0.1,0.1,0.1,0.1,0.2,0.2c0.2,0.2,0.4,0.3,0.7,0.4c0.3,0.2,0.7,0.3,1.1,0.3c0.3,0,0.5-0.1,0.7-0.3
		c0.3-0.2,0.5-0.3,0.7-0.5c0,0,0.1-0.1,0.1-0.1c0.1,0.1,0.2,0.1,0.3,0.2c0,0,0,0.1-0.1,0.1c-0.6,0.4-1.2,0.9-1.9,1.2
		c-0.1,0-0.1,0-0.2,0c-0.7-0.4-1.3-0.8-1.9-1.3c0,0,0,0,0,0C12.9,31.9,13,31.9,13.1,31.9z"/>
	<path class="st3" d="M7.9,31.6c0.3-0.1,0.6-0.2,0.9-0.3c0.1,0,0.1,0,0.1,0c0.1,0.1,0.2,0.3,0.4,0.4c0.2,0.3,0.5,0.6,0.7,0.8
		c0,0,0.1,0.1,0.1,0.1c0,0,0,0-0.1,0.1C9.7,32.9,9.5,33,9.2,33c-0.4,0-0.7-0.2-0.9-0.5C8.1,32.3,8,32,7.9,31.8
		C7.9,31.7,7.8,31.7,7.9,31.6z"/>
	<path class="st3" d="M19.2,27.3c0.1-0.1,0.2-0.2,0.3-0.4c0.2-0.2,0.5-0.5,0.7-0.8c0,0,0.1-0.1,0.1,0c0.4,0.2,0.8,0.4,1.2,0.7
		c0,0,0,0.1,0,0.1c-0.3,0.4-0.6,0.7-1.1,0.8c-0.3,0.1-0.7-0.1-1-0.2C19.4,27.5,19.3,27.5,19.2,27.3z"/>
	<path class="st5" d="M17.4,29c0.3,0.2,0.5,0.3,0.8,0.5c0.2,0.1,0.5,0.1,0.7,0.1c0.2,0,0.4-0.1,0.5-0.2c0.3-0.2,0.6-0.5,0.8-0.8
		c0.1,0,0.2,0.1,0.3,0.1c0,0,0,0.1-0.1,0.1c-0.4,0.5-0.9,1-1.4,1.5c-0.1,0.1-0.1,0.1-0.2,0c-0.6-0.3-1.2-0.7-1.8-1c0,0,0,0,0,0
		C17.2,29.1,17.3,29,17.4,29z"/>
	<path class="st3" d="M8,22.1c0.3-0.1,0.6-0.3,0.9-0.5c0.1-0.1,0.2-0.1,0.3-0.2c0,0,0,0,0.1,0.1c0.2,0.4,0.4,0.8,0.7,1.2
		c0,0,0,0,0,0c0,0.1,0,0.1-0.1,0.1c-0.2,0.2-0.5,0.4-0.7,0.5c-0.3,0.1-0.5,0.1-0.7-0.1c-0.2-0.2-0.3-0.4-0.4-0.6
		c0-0.1-0.1-0.2-0.1-0.3C8,22.3,7.9,22.2,8,22.1z"/>
	<path class="st6" d="M16.3,14.4c-0.1,0-0.1,0.1-0.1,0.1c-0.2,0.3-0.4,0.6-0.5,0.9c-0.1,0.3-0.3,0.7-0.3,1.1
		c-0.1,0.3-0.1,0.6-0.1,0.9c0,0.2,0,0.4,0,0.6c0,0,0,0.1,0.1,0.1c0,0,0,0-0.1,0c-0.1,0-0.1,0.1-0.2,0.1c-0.1-0.1-0.1-0.1-0.1-0.2
		c0-0.2,0-0.3,0-0.5c0-1.1,0.3-2,0.9-2.9c0.1-0.2,0.3-0.4,0.4-0.6c0,0,0.1-0.1,0.1-0.1c0.1,0,0,0.1,0,0.2
		C16.4,14.2,16.4,14.3,16.3,14.4z"/>
	<path class="st3" d="M9,35.6c0.4,0,0.7-0.1,1.1-0.1c0,0,0.1,0,0.1,0c0.5,0.5,1,0.9,1.6,1.4c0,0.1,0,0.1-0.1,0.1
		c-0.4,0-0.7,0.1-1.1,0c-0.4-0.1-0.8-0.3-1.1-0.5c-0.2-0.2-0.4-0.4-0.6-0.6c0,0-0.1-0.1-0.1-0.1C8.9,35.5,8.9,35.6,9,35.6z"/>
	<path class="st3" d="M11.3,19.6c0.1-0.2,0.3-0.3,0.4-0.5c0,0,0.1-0.1,0.1-0.1c0.3-0.1,0.5-0.1,0.8-0.1c0,0,0.1,0,0.1,0
		c0.2,0.2,0.3,0.5,0.5,0.7c-0.2,0.3-0.5,0.6-0.8,0.8c-0.2,0.1-0.4,0.1-0.6-0.1C11.6,20.3,11.4,20,11.3,19.6
		C11.2,19.7,11.2,19.7,11.3,19.6z"/>
	<path class="st5" d="M15.5,36c0.1,0.1,0.2,0.1,0.3,0.1c0.3,0.1,0.7,0.3,1,0.3c0.4,0.1,0.8,0,1.2-0.2c0.3-0.2,0.6-0.5,0.9-0.7
		c0.1-0.1,0.2-0.2,0.3-0.3c0.1,0,0.2,0,0.4,0.1c0,0,0,0.1-0.1,0.1c-0.6,0.5-1.2,1-1.8,1.4C17.7,37,17.6,37,17.5,37
		c-0.8-0.1-1.6-0.4-2.3-0.7c0,0,0,0-0.1,0C15.3,36.1,15.4,36.1,15.5,36z"/>
	<path class="st5" d="M15.4,33.4C15.4,33.4,15.5,33.4,15.4,33.4c0.5,0.3,0.9,0.5,1.3,0.6c0.4,0.1,0.9,0.1,1.3-0.1
		c0.3-0.2,0.6-0.4,0.9-0.6c0,0,0.1-0.1,0.1-0.1c0.1,0,0.2,0.1,0.2,0.1c0,0.1,0,0.1-0.1,0.1c-0.5,0.5-1.1,0.9-1.7,1.3
		c-0.1,0.1-0.2,0.1-0.2,0c-0.7-0.3-1.4-0.6-2.1-1c0,0-0.1,0-0.1-0.1C15.2,33.5,15.3,33.4,15.4,33.4z"/>
	<path class="st6" d="M13,16.4C13,16.4,13,16.4,13,16.4c0-0.2-0.1-0.3-0.1-0.4c-0.2-0.5-0.4-0.9-0.7-1.3c-0.2-0.3-0.5-0.6-0.7-0.9
		c-0.2-0.3-0.5-0.5-0.8-0.7c-0.1-0.1-0.3-0.2-0.5-0.2c-0.1-0.1-0.1-0.2-0.1-0.2c0-0.1,0-0.1,0.1-0.1c0.1,0,0.2,0.1,0.3,0.1
		c0.4,0.3,0.8,0.5,1.1,0.9c0.4,0.3,0.6,0.7,0.9,1.1c0.2,0.4,0.5,0.8,0.7,1.2c0.1,0.2,0.2,0.4,0.2,0.6c0,0,0,0,0,0.1
		C13.2,16.6,13.1,16.5,13,16.4z"/>
	<path class="st5" d="M8.1,29c0.1,0.3,0.3,0.6,0.5,0.8C8.7,30,8.8,30.2,9,30.3c0.2,0.1,0.3,0.1,0.5,0.1c0.3,0,0.6-0.1,0.8-0.3
		c0,0,0,0,0.1-0.1c0.1,0.1,0.1,0.1,0.2,0.2c0,0.1,0,0.1-0.1,0.1C10,30.6,9.5,30.8,9,31c-0.1,0-0.1,0-0.2,0c-0.4-0.6-0.8-1.2-1.1-1.8
		C7.8,29.1,7.9,29.1,8.1,29z"/>
	<path class="st7" d="M14.4,10.8c0-0.3-0.1-0.5-0.2-0.8c-0.1-0.4-0.3-0.9-0.5-1.3c-0.2-0.4-0.4-0.7-0.7-1c-0.1-0.2-0.3-0.3-0.4-0.5
		c-0.5-0.5-1-0.7-1.6-0.9c0,0-0.1,0-0.1,0c-0.2-0.1-0.4-0.2-0.6-0.3c0.1,0,0.1,0,0.2,0c0.8,0.1,1.6,0.4,2.2,0.9
		C13.3,7.5,13.7,8,14,8.5c0.3,0.5,0.5,1,0.6,1.5c0,0.1,0,0.2,0,0.3c0,0.1,0,0.2-0.1,0.3C14.5,10.7,14.5,10.8,14.4,10.8z"/>
	<path class="st3" d="M9.7,21.1c0.4-0.3,0.8-0.7,1.2-1.1c0,0,0.1,0,0.1,0.1c0.2,0.4,0.5,0.8,0.8,1.1c0,0,0,0,0,0
		c0,0.1-0.2,0.2-0.2,0.2c-0.2,0.2-0.4,0.3-0.6,0.4c-0.3,0.1-0.5,0.1-0.8-0.1c-0.2-0.2-0.3-0.4-0.4-0.6C9.7,21.2,9.7,21.2,9.7,21.1z"
		/>
	<path class="st7" d="M16.3,6.5c0,0.1,0,0.2-0.1,0.4C16.1,7.3,16,7.7,15.9,8c-0.2,0.5-0.4,1-0.6,1.5C15.2,10,15,10.4,15,10.8
		c0,0.2,0,0.3,0,0.5c0,0.2,0,0.4,0,0.6c0,0.1,0,0.2,0,0.3c-0.1-0.2-0.3-0.3-0.4-0.5c-0.1-0.1,0-0.2,0-0.4c0-0.6,0.2-1.2,0.4-1.7
		c0.2-0.5,0.4-1,0.6-1.5c0.2-0.5,0.4-1,0.5-1.5c0-0.1,0-0.1,0.1-0.2C16.2,6.4,16.3,6.5,16.3,6.5z"/>
	<path class="st7" d="M19.9,9.6C19.8,9.5,19.8,9.5,19.9,9.6c-0.4,0.1-0.7,0.2-0.9,0.3c-0.4,0.2-0.7,0.4-1.1,0.6
		c-0.3,0.2-0.6,0.4-0.8,0.6c-0.2,0.2-0.4,0.3-0.6,0.5c-0.2,0.2-0.4,0.5-0.6,0.8c-0.1,0.2-0.2,0.3-0.3,0.5c-0.1-0.2-0.1-0.2,0-0.3
		c0.7-1.1,1.7-2,2.9-2.6c0.8-0.4,1.6-0.7,2.4-1c0.1,0,0.2-0.1,0.3,0c0.1,0,0.2,0,0.2,0c0,0,0.1,0,0.1,0c0,0,0,0,0,0c0,0,0,0,0,0l0,0
		c0,0-0.1,0-0.1,0C20.9,9,20.4,9.3,19.9,9.6C19.9,9.5,19.9,9.5,19.9,9.6z"/>
	<path class="st3" d="M8.4,26.6c0.4-0.2,0.7-0.4,1.1-0.6c0.1,0,0.1,0,0.1,0c0.3,0.4,0.7,0.8,1,1.2c0,0.1,0,0.1-0.1,0.1
		c-0.2,0.1-0.5,0.3-0.7,0.3c-0.4,0.1-0.7-0.1-1-0.3c-0.2-0.2-0.3-0.3-0.4-0.5C8.4,26.7,8.4,26.6,8.4,26.6z"/>
	<path class="st6" d="M20.7,13.7c0,0-0.1,0-0.1,0c-0.4,0.1-0.9,0.2-1.3,0.5c-0.3,0.2-0.6,0.4-0.9,0.6c-0.3,0.3-0.6,0.6-0.8,0.9
		c-0.2,0.3-0.4,0.7-0.5,1.1c0,0.2-0.1,0.3-0.1,0.5c-0.1,0-0.2,0.1-0.3,0.1c-0.1,0-0.1,0-0.1-0.1c-0.1-0.2,0-0.4,0-0.5
		c0.1-0.4,0.3-0.8,0.6-1.2c0.4-0.5,0.9-1,1.5-1.3c0.4-0.3,0.9-0.4,1.3-0.5c0.2,0,0.5-0.1,0.7-0.2C20.8,13.6,20.8,13.7,20.7,13.7z"/>
	<path class="st4" d="M13.6,10.3C13.6,10.3,13.6,10.3,13.6,10.3c-0.2-0.6-0.5-1.2-0.8-1.7c-0.2-0.2-0.3-0.4-0.5-0.6
		c-0.2-0.2-0.3-0.3-0.5-0.5c-0.2-0.2-0.4-0.4-0.7-0.6c-0.2-0.2-0.5-0.3-0.7-0.5c0,0-0.1-0.1-0.2-0.1c0-0.1,0-0.1,0.1-0.1
		c0.3,0.1,0.6,0.3,0.9,0.5c0.5,0.4,1,0.8,1.4,1.3c0.3,0.3,0.5,0.7,0.7,1c0.3,0.5,0.5,1,0.7,1.5c0,0,0,0.1,0,0.1c0,0,0,0,0,0
		C13.8,10.6,13.7,10.4,13.6,10.3z"/>
	<path class="st5" d="M10.1,25.6c0,0.1,0.1,0.1,0.1,0.2c0.2,0.2,0.3,0.4,0.6,0.6c0.2,0.2,0.5,0.2,0.8,0.1c0.3-0.1,0.5-0.2,0.7-0.4
		c0.1-0.1,0.2-0.1,0.3-0.2c0,0,0.1,0.1,0.1,0.1c0.1,0.1,0.1,0.1,0,0.1c-0.4,0.3-0.9,0.6-1.3,0.9c-0.1,0.1-0.2,0.1-0.3,0.2
		c-0.1,0.1-0.1,0.1-0.2,0c-0.3-0.3-0.6-0.7-0.9-1.1c-0.1-0.1-0.2-0.2-0.3-0.3C9.9,25.7,10,25.6,10.1,25.6z"/>
	<path class="st5" d="M13.4,25.9c0.2,0.2,0.4,0.4,0.6,0.5c0.2,0.1,0.4,0.3,0.6,0.3c0.3,0.1,0.6,0.1,0.9-0.1c0.3-0.2,0.5-0.4,0.7-0.6
		c0.1-0.1,0.1-0.1,0.2-0.2c0.1,0.1,0.2,0.1,0.2,0.2c0,0,0,0.1-0.1,0.1c-0.5,0.4-1,0.9-1.6,1.3c-0.1,0-0.1,0.1-0.2,0
		c-0.6-0.4-1.1-0.9-1.6-1.4c0,0,0,0,0,0C13.2,26,13.3,26,13.4,25.9z"/>
	<path class="st5" d="M10.8,32.9c0.1,0.1,0.1,0.2,0.2,0.2c0.3,0.3,0.6,0.5,0.9,0.7c0.2,0.1,0.5,0.2,0.7,0.1c0.3,0,0.5-0.1,0.7-0.2
		c0.3-0.1,0.6-0.3,0.9-0.4c0,0,0,0,0,0c0.1,0.1,0.2,0.1,0.3,0.2c0,0,0,0.1-0.1,0.1c-0.7,0.4-1.4,0.7-2.1,0.9c-0.1,0-0.1,0-0.2,0
		c-0.6-0.4-1.1-0.9-1.7-1.4c0,0,0,0,0-0.1C10.7,33,10.8,33,10.8,32.9z"/>
	<path class="st5" d="M18.1,34.5c0.1,0.1,0.3,0.1,0.4,0.1c0.2,0.1,0.5,0.1,0.7,0.1c0.2,0,0.3,0,0.5-0.1c0.3-0.1,0.6-0.2,0.8-0.4
		c0.2-0.1,0.3-0.3,0.5-0.5c0,0,0.1-0.1,0.1-0.1c0.1,0,0.2,0,0.3,0.1c0,0,0,0.1,0,0.1c-0.4,0.5-0.8,0.9-1.3,1.3
		c-0.1,0.1-0.1,0.1-0.2,0.1c-0.7-0.1-1.4-0.3-2.1-0.5c0,0,0,0-0.1,0C17.8,34.6,17.9,34.5,18.1,34.5z"/>
	<path class="st4" d="M20.5,17.4c0,0-0.1,0-0.1,0c-0.3,0-0.6,0-0.9,0.1c-0.6,0.1-1.2,0.3-1.8,0.5c-0.5,0.2-1,0.4-1.4,0.7
		c-0.2,0.1-0.3,0.2-0.4,0.4c0,0,0,0,0,0.1c0,0,0.1,0,0.1,0c-0.1,0-0.3,0-0.4,0c-0.1,0-0.2,0-0.3,0c0-0.1,0-0.1,0.1-0.1
		c0.4-0.5,1-0.8,1.5-1.1c0.7-0.3,1.5-0.5,2.2-0.6c0.3-0.1,0.6-0.1,0.9-0.1c0.2,0,0.4,0,0.6,0C20.5,17.4,20.5,17.4,20.5,17.4z"/>
	<path class="st1" d="M16.8,7.2C16.9,7.6,17,8,17.1,8.4c0.1,0.6,0.2,1.2,0.1,1.8c0,0.1,0,0.1-0.1,0.2c-0.2,0.2-0.5,0.4-0.7,0.6
		c-0.1,0,0-0.1,0-0.1c0.1-0.5,0.2-1,0.3-1.5c0-0.3,0.1-0.6,0.1-0.9c0-0.4,0-0.7,0-1.1C16.7,7.3,16.7,7.3,16.8,7.2z"/>
	<path class="st5" d="M19.2,27.3c0.3,0.2,0.6,0.3,0.9,0.4c0.5,0.1,0.9-0.1,1.2-0.5c0.1-0.1,0.2-0.2,0.2-0.3c0.1,0,0.2,0.1,0.3,0.1
		c-0.2,0.2-0.3,0.4-0.4,0.6c-0.2,0.3-0.4,0.5-0.6,0.8c0,0-0.1,0.1-0.1,0c-0.6-0.3-1.1-0.6-1.7-0.9C19.1,27.5,19.1,27.4,19.2,27.3z"
		/>
	<path class="st5" d="M11.4,27.3C11.4,27.3,11.5,27.3,11.4,27.3c0.3,0.3,0.6,0.6,0.9,0.8c0.2,0.1,0.5,0.2,0.7,0.2
		c0.2,0,0.5-0.1,0.7-0.2c0.3-0.1,0.5-0.3,0.7-0.5c0,0,0,0,0-0.1c0.1,0.1,0.2,0.1,0.2,0.2c0,0,0,0.1-0.1,0.1
		c-0.5,0.4-1.1,0.8-1.7,1.1c-0.1,0.1-0.1,0.1-0.2,0c-0.5-0.4-1-0.9-1.5-1.4c0,0-0.1-0.1-0.1-0.1C11.3,27.4,11.4,27.3,11.4,27.3z"/>
	<path class="st5" d="M19.5,30.2c0.3,0.1,0.6,0.3,0.9,0.3c0.4,0.1,0.8,0,1.1-0.3c0.2-0.2,0.4-0.4,0.5-0.7c0,0,0.1-0.1,0.1-0.1
		c0,0,0-0.1,0-0.1c0.1,0,0.2,0,0.2,0.1c0,0.1,0,0.1-0.1,0.1c-0.4,0.6-0.7,1.1-1.2,1.6c-0.1,0.1-0.1,0.1-0.2,0.1
		c-0.6-0.2-1.1-0.5-1.7-0.7c0,0-0.1,0-0.1-0.1C19.4,30.3,19.4,30.2,19.5,30.2z"/>
	<path class="st2" d="M13.9,15.9c-0.1,0.2-0.3,0.4-0.4,0.6c0,0,0,0,0-0.1c-0.1-0.2-0.1-0.3-0.2-0.5c-0.3-0.6-0.6-1.2-1-1.8
		c-0.3-0.3-0.5-0.6-0.9-0.9c-0.1,0-0.1-0.1-0.2-0.1c0,0,0,0,0,0c0.1,0,0.2,0.1,0.3,0.2c0.8,0.6,1.6,1.3,2.1,2.1
		c0.1,0.1,0.2,0.2,0.2,0.4C13.9,15.8,13.9,15.8,13.9,15.9z"/>
	<path class="st3" d="M9,24.1c0.3-0.2,0.6-0.4,0.9-0.6c0.1-0.1,0.2-0.2,0.3-0.2c0,0,0,0,0.1,0c0.3,0.4,0.5,0.7,0.8,1.1c0,0,0,0,0,0
		c0,0.1,0,0.1-0.1,0.1c-0.2,0.2-0.5,0.3-0.7,0.4C10,25,9.7,24.9,9.5,24.7c-0.1-0.1-0.3-0.3-0.4-0.5C9.1,24.2,9,24.1,9,24.1z"/>
	<path class="st3" d="M16.6,19.8c0.1-0.2,0.2-0.4,0.4-0.5c0,0,0.1,0,0.1,0c0.3,0,0.5,0,0.8,0c0,0,0.1,0,0.1,0.1
		c0.2,0.2,0.3,0.4,0.5,0.7c0,0,0,0.1,0,0.1c-0.2,0.2-0.3,0.5-0.6,0.7c-0.2,0.1-0.4,0.1-0.5,0c-0.1-0.1-0.2-0.2-0.3-0.3
		c-0.1-0.2-0.2-0.3-0.4-0.5C16.6,19.9,16.6,19.8,16.6,19.8z"/>
	<path class="st2" d="M19.9,13.7c-0.3,0.1-0.7,0.2-1,0.3c-0.9,0.5-1.7,1.2-2.2,2.1c-0.1,0.2-0.1,0.3-0.2,0.5c0,0,0,0.1,0,0.1
		c0-0.2,0-0.3,0-0.5c0-0.2,0-0.4,0-0.7c0-0.1,0-0.1,0.1-0.2c0.8-1,1.9-1.6,3.2-1.8C19.8,13.6,19.9,13.6,19.9,13.7z"/>
	<path class="st3" d="M20.1,32.7c0.2-0.2,0.4-0.4,0.6-0.7c0.1-0.2,0.3-0.3,0.4-0.5c0-0.1,0.1-0.1,0.1,0c0.3,0.1,0.7,0.2,1,0.3
		c0.1,0,0.1,0,0.1,0.1c0,0,0,0,0,0.1c-0.1,0.3-0.4,0.6-0.6,0.8c-0.3,0.2-0.6,0.2-1,0.2c-0.2,0-0.4-0.1-0.5-0.1
		C20.2,32.8,20.1,32.8,20.1,32.7z"/>
	<path class="st5" d="M15.3,27.5c0.1,0.1,0.2,0.2,0.3,0.3c0.2,0.2,0.4,0.3,0.6,0.4c0.2,0.1,0.4,0.2,0.6,0.2c0.2,0,0.3,0,0.5-0.1
		c0.2-0.1,0.4-0.3,0.6-0.4c0.1-0.1,0.2-0.2,0.3-0.3c0.1,0,0.1-0.1,0.1-0.1c0.1,0,0.1,0.1,0.2,0.1c0,0,0,0.1,0,0.1
		c-0.5,0.5-1,0.9-1.5,1.4c-0.1,0-0.1,0.1-0.2,0c-0.6-0.4-1.2-0.8-1.8-1.3c0,0,0,0,0,0C15.2,27.6,15.2,27.6,15.3,27.5z"/>
	<path class="st7" d="M16.7,2.2C16.7,2.2,16.7,2.2,16.7,2.2c-0.1,0.1-0.2,0.2-0.3,0.3c-0.2,0.4-0.5,0.8-0.7,1.2
		c-0.2,0.3-0.3,0.7-0.4,1c-0.1,0.3-0.1,0.6-0.2,0.8c0,0.2-0.1,0.5-0.1,0.7c-0.1-0.3-0.3-0.6-0.4-0.9c0,0,0-0.1,0-0.1
		c0.1-0.4,0.3-0.7,0.5-1.1c0.2-0.4,0.5-0.7,0.7-1.1c0.2-0.3,0.3-0.6,0.5-1c0-0.1,0.1-0.1,0.1-0.2c0,0,0.1-0.1,0.1-0.1
		c0,0,0,0.1,0,0.1C16.7,2.1,16.7,2.2,16.7,2.2z"/>
	<path class="st5" d="M13.2,29c0.2,0.2,0.4,0.3,0.6,0.5c0.1,0.1,0.3,0.2,0.5,0.3c0.2,0.1,0.4,0.2,0.6,0.2c0.1,0,0.3,0,0.4-0.1
		c0.3-0.1,0.5-0.3,0.8-0.4c0.2-0.1,0.3-0.2,0.5-0.4c0,0,0,0,0-0.1c0.1,0,0.2,0.1,0.3,0.2c0,0,0,0.1-0.1,0.1
		c-0.5,0.4-1.1,0.8-1.7,1.2c-0.1,0.1-0.1,0.1-0.2,0c-0.6-0.4-1.1-0.8-1.7-1.2c0,0-0.1-0.1-0.1-0.1C13.1,29.1,13.2,29,13.2,29z"/>
	<path class="st5" d="M10.6,35.3c0.2,0.2,0.4,0.4,0.7,0.6c0.2,0.2,0.4,0.3,0.6,0.4c0.3,0.1,0.6,0.2,0.9,0.2c0.2,0,0.4,0,0.6-0.1
		c0.3-0.1,0.6-0.2,0.9-0.3c0,0,0.1,0,0.1-0.1c0.1,0,0.2,0.1,0.3,0.2c-0.3,0.1-0.5,0.2-0.8,0.3c-0.5,0.2-1,0.3-1.5,0.4
		c-0.1,0-0.1,0-0.2,0c-0.6-0.5-1.2-1-1.8-1.5c0,0,0,0,0-0.1C10.5,35.3,10.5,35.3,10.6,35.3z"/>
	<path class="st5" d="M8.5,30.9c0.1,0.1,0.1,0.1,0.2,0.2c0,0,0,0,0,0.1c-0.4,0.1-0.7,0.3-1.1,0.4c-0.1,0-0.1,0-0.1-0.1
		c-0.3-0.5-0.5-1-0.7-1.6c0-0.1,0-0.2,0-0.3c0,0,0-0.1,0.1-0.1c0.1,0,0.2,0,0.3-0.1c0.1,0.3,0.2,0.6,0.3,0.8
		c0.1,0.1,0.1,0.3,0.2,0.4c0.2,0.2,0.4,0.3,0.7,0.3C8.3,30.9,8.4,30.8,8.5,30.9z"/>
	<path class="st5" d="M9.7,21.1c0,0.2,0.2,0.3,0.2,0.5c0.1,0.1,0.1,0.2,0.2,0.2c0.2,0.2,0.5,0.2,0.7,0.1c0.2-0.1,0.4-0.3,0.6-0.4
		c0.1-0.1,0.2-0.1,0.3-0.2c0.1,0,0.1,0.1,0.1,0.1c0.1,0.1,0,0.1,0,0.1c-0.2,0.2-0.4,0.4-0.6,0.5c-0.3,0.3-0.6,0.5-0.9,0.7
		c0,0,0,0-0.1-0.1c-0.3-0.4-0.6-0.9-0.8-1.4c-0.1-0.1-0.1-0.1,0-0.2C9.6,21.2,9.6,21.2,9.7,21.1z"/>
	<path class="st5" d="M17.2,26c0,0.1,0.1,0.1,0.1,0.1c0.3,0.2,0.6,0.4,0.9,0.5c0.2,0.1,0.3,0.1,0.5,0.1c0.2,0,0.4-0.1,0.6-0.2
		c0.2-0.2,0.4-0.4,0.6-0.6c0,0,0,0,0-0.1c0.1,0,0.1,0.1,0.2,0.1c0,0-0.1,0.1-0.1,0.1c-0.4,0.4-0.7,0.8-1.1,1.2
		c-0.1,0.1-0.1,0.1-0.2,0c-0.6-0.4-1.2-0.8-1.7-1.2c0,0,0,0,0,0C17,26.1,17.1,26,17.2,26z"/>
	<path class="st6" d="M14,8.2C14,8.1,14,8.1,14,8.2c0-0.3,0-0.4,0-0.6c0-0.3-0.1-0.6-0.1-0.8c-0.1-0.5-0.3-0.9-0.5-1.4
		C13.3,5,13.1,4.8,13,4.5c-0.1-0.2-0.3-0.4-0.4-0.5c0-0.1,0-0.1,0-0.2c0,0,0.1,0,0.1,0.1c0.5,0.5,0.9,1.1,1.2,1.8
		c0.2,0.5,0.3,1.1,0.4,1.6c0.1,0.4,0.1,0.9,0.2,1.3c0,0.1,0,0.3,0,0.4C14.3,8.7,14.1,8.4,14,8.2z"/>
	<path class="st5" d="M20.8,35.5c0.1,0,0.2,0,0.3,0c0,0,0,0.1,0,0.1c-0.4,0.6-0.9,1.1-1.5,1.4c0,0-0.1,0-0.1,0c-0.5,0-1,0-1.5,0
		c0.1-0.1,0.2-0.1,0.2-0.2c0.1-0.1,0.1-0.1,0.2-0.1c0.5,0,1-0.1,1.4-0.4c0.3-0.2,0.5-0.4,0.8-0.7C20.7,35.6,20.8,35.5,20.8,35.5z"/>
	<path class="st3" d="M7.7,33.9c0.2-0.1,0.5-0.1,0.7-0.2c0.1,0,0.1,0,0.1,0c0.3,0.4,0.7,0.9,1.1,1.3c0,0.1,0,0.1-0.1,0.1
		c-0.4,0.1-0.7,0.1-1.1,0C8.3,35,8.1,34.8,8,34.6c-0.1-0.2-0.2-0.4-0.3-0.6C7.6,33.9,7.6,33.9,7.7,33.9z"/>
	<path class="st4" d="M16.8,7.2c0,0.1,0,0.2,0,0.3c0,0.1,0,0.2,0,0.4c0,0.1,0,0.2,0,0.3c0,0,0,0,0,0.1c0,0.2,0,0.4,0,0.6
		c0,0.2,0,0.5-0.1,0.7c0,0.3-0.1,0.5-0.1,0.8c0,0.2-0.1,0.5-0.1,0.7c0,0,0,0.1,0,0.1c-0.2,0.2-0.3,0.3-0.5,0.5c0,0,0,0,0,0
		c0.1-0.4,0.2-0.7,0.3-1.1c0.1-0.4,0.2-0.9,0.2-1.3c0-0.3,0.1-0.7,0-1c0-0.4,0-0.7,0-1.1c0-0.2-0.1-0.4-0.1-0.7c0,0,0-0.1,0-0.1
		C16.5,6.7,16.7,6.9,16.8,7.2z"/>
	<path class="st5" d="M8,22.1c0.1,0.3,0.3,0.7,0.5,1c0,0.1,0.1,0.1,0.2,0.2c0.2,0.1,0.4,0.1,0.5,0c0.2-0.1,0.4-0.2,0.6-0.4
		c0.1-0.1,0.2-0.1,0.2-0.2c0.1,0.1,0.1,0.1,0.1,0.2c0,0,0,0.1,0,0.1c-0.1,0.1-0.2,0.1-0.3,0.2c-0.4,0.3-0.8,0.5-1.2,0.8
		c-0.1,0.1-0.1,0.1-0.2,0c-0.3-0.4-0.5-0.9-0.7-1.3c0-0.1,0-0.1,0-0.2C7.8,22.4,7.9,22.3,8,22.1C7.9,22.2,7.9,22.1,8,22.1z"/>
	<path class="st3" d="M21.1,28.4C21.1,28.3,21.1,28.3,21.1,28.4c0.3-0.4,0.6-0.8,0.8-1.2c0.1-0.1,0.1-0.1,0.2-0.1
		c0.1,0.1,0.3,0.1,0.4,0.2c0.1,0,0.1,0.1,0.1,0.1c0,0.1,0,0.2,0,0.2c0,0.4,0,0.7,0,1.1c0,0.2-0.1,0.2-0.2,0.2
		c-0.4-0.1-0.8-0.3-1.2-0.4C21.2,28.4,21.1,28.4,21.1,28.4z"/>
	<path class="st5" d="M18.7,24.5c0.1,0.1,0.2,0.2,0.3,0.2c0.3,0.2,0.6,0.3,1,0.4c0.2,0,0.5-0.1,0.7-0.2c0.2-0.1,0.3-0.3,0.4-0.4
		c0.1,0,0.1,0.1,0.2,0.1c0,0,0,0.1,0,0.1c-0.3,0.4-0.6,0.8-0.9,1.2c0,0.1-0.1,0.1-0.1,0c-0.6-0.4-1.1-0.8-1.7-1.2c0,0,0,0,0,0
		C18.6,24.6,18.6,24.5,18.7,24.5z"/>
	<path class="st5" d="M8.9,28.2C8.9,28.2,9,28.3,9,28.4c0,0,0,0,0,0c-0.4,0.2-0.9,0.4-1.3,0.5c-0.1,0-0.1,0-0.1-0.1
		c-0.2-0.5-0.5-1-0.7-1.5c0-0.1,0-0.1,0-0.1c0.1,0,0.2-0.1,0.3-0.1c0.1,0.1,0.1,0.2,0.1,0.3c0.1,0.2,0.2,0.4,0.4,0.6
		c0.2,0.2,0.5,0.3,0.8,0.2C8.6,28.2,8.7,28.2,8.9,28.2z"/>
	<path class="st5" d="M8.4,26.6C8.4,26.6,8.4,26.6,8.4,26.6c0.2,0.3,0.4,0.6,0.6,0.8c0.2,0.2,0.5,0.2,0.8,0.1
		c0.3-0.1,0.5-0.2,0.7-0.3c0,0,0,0,0-0.1c0.1,0.1,0.2,0.2,0.2,0.3c-0.1,0.1-0.2,0.1-0.3,0.2c-0.4,0.2-0.8,0.5-1.2,0.7
		c-0.1,0-0.1,0-0.2,0c-0.3-0.5-0.7-1-1-1.5c0,0,0,0,0-0.1C8.3,26.6,8.4,26.6,8.4,26.6z"/>
	<path class="st5" d="M9.6,28.4c0.1,0.2,0.3,0.4,0.5,0.6c0.2,0.2,0.4,0.4,0.7,0.5c0.2,0.1,0.5,0.1,0.7,0c0.3-0.1,0.6-0.2,0.8-0.4
		c0.1,0,0.2-0.1,0.2-0.2c0.1,0,0.1,0.1,0.2,0.1c0,0.1,0,0.1-0.1,0.1c-0.5,0.3-1.1,0.7-1.7,0.9c-0.1,0.1-0.1,0.1-0.2,0
		c-0.5-0.5-0.9-1-1.3-1.5c0,0-0.1-0.1-0.1-0.1C9.4,28.4,9.5,28.4,9.6,28.4z"/>
	<path class="st5" d="M9.3,31.1C9.3,31.1,9.3,31.2,9.3,31.1c0.2,0.3,0.3,0.5,0.5,0.7c0.1,0.1,0.2,0.2,0.3,0.3
		c0.3,0.2,0.6,0.3,0.9,0.2c0.2,0,0.3-0.1,0.4-0.2c0.2-0.1,0.4-0.2,0.7-0.3c0,0,0.1,0,0.1-0.1c0.1,0.1,0.2,0.1,0.2,0.2
		c0,0,0,0.1-0.1,0.1c-0.6,0.3-1.2,0.6-1.8,0.8c-0.1,0-0.1,0-0.2,0c-0.5-0.5-0.9-1-1.3-1.5c0,0,0,0,0-0.1C9.1,31.2,9.2,31.1,9.3,31.1
		z"/>
	<path class="st3" d="M20.7,25.7c0.1-0.2,0.3-0.3,0.4-0.5c0.1-0.2,0.3-0.3,0.4-0.5c0,0,0.1-0.1,0.1,0c0.3,0.1,0.5,0.2,0.8,0.3
		c0.1,0,0.1,0,0.1,0.1c0,0.1,0,0.1,0,0.2c0,0.1,0,0.2-0.1,0.3c-0.1,0.2-0.2,0.3-0.3,0.5c-0.1,0.2-0.3,0.2-0.5,0.2
		C21.2,26.1,21,26,20.7,25.7C20.7,25.8,20.6,25.8,20.7,25.7z"/>
	<path class="st5" d="M9.1,33.5c0,0,0,0.1,0,0.1c0.2,0.3,0.4,0.5,0.6,0.7c0.2,0.2,0.4,0.3,0.6,0.3c0.1,0,0.3,0,0.5,0
		c0.4,0,0.7-0.2,1-0.3c0,0,0,0,0,0c0.1,0.1,0.2,0.1,0.3,0.2c0,0-0.1,0-0.1,0c-0.6,0.2-1.2,0.4-1.8,0.5c-0.1,0-0.1,0-0.2-0.1
		c-0.4-0.4-0.8-0.9-1.2-1.4c0,0-0.1-0.1-0.1-0.1C8.9,33.6,9,33.6,9.1,33.5z"/>
	<path class="st5" d="M20.1,32.7C20.1,32.7,20.1,32.7,20.1,32.7c0.4,0.1,0.7,0.2,1,0.2c0.3,0,0.5-0.1,0.7-0.3
		c0.2-0.2,0.4-0.4,0.5-0.6c0,0,0,0,0,0c0,0.2-0.1,0.4-0.1,0.6c0,0,0,0.1-0.1,0.1c-0.2,0.3-0.4,0.5-0.6,0.8c-0.1,0.1-0.1,0.1-0.2,0.1
		c-0.5-0.1-1.1-0.3-1.6-0.4c0,0-0.1,0-0.1,0C19.9,32.9,20,32.8,20.1,32.7z"/>
	<path class="st5" d="M9,35.6C8.9,35.6,8.9,35.6,9,35.6c-0.1,0.1-0.1,0.1,0,0.1c0.2,0.2,0.4,0.4,0.6,0.6c0.3,0.3,0.7,0.5,1.1,0.5
		c0.2,0,0.4,0.1,0.5,0c0.1,0,0.2,0,0.2,0c0.1,0,0.2,0,0.3,0c0.1,0.1,0.2,0.1,0.3,0.2c-0.1,0.1-0.2,0.1-0.4,0.1
		c-0.5,0.1-0.9,0.1-1.4,0.1c-0.1,0-0.2,0-0.2-0.1c-0.6-0.4-1.1-0.8-1.5-1.3c0,0-0.1-0.1-0.1-0.1C8.6,35.6,8.8,35.6,9,35.6z"/>
	<path class="st5" d="M15.2,24.4C15.2,24.4,15.2,24.5,15.2,24.4c0.3,0.3,0.6,0.6,0.9,0.8c0.1,0,0.1,0.1,0.2,0.1
		c0.2,0.1,0.5,0.1,0.7-0.1c0.1-0.1,0.2-0.1,0.3-0.2c0.2-0.2,0.4-0.3,0.6-0.5c0.1,0,0.1,0.1,0.2,0.2c0,0,0,0.1-0.1,0.1
		c-0.4,0.4-0.8,0.8-1.2,1.2c-0.1,0.1-0.1,0.1-0.2,0c-0.5-0.4-1.1-0.9-1.6-1.3c0,0,0,0-0.1,0c0,0,0-0.1,0-0.1
		C15.1,24.5,15.2,24.4,15.2,24.4z"/>
	<path class="st5" d="M15.2,21.4c0.1,0.2,0.3,0.3,0.5,0.4c0.1,0.1,0.2,0.2,0.4,0.2c0.3,0.1,0.5,0.1,0.7-0.1c0.2-0.1,0.4-0.3,0.6-0.6
		c0,0,0,0,0,0c0.1,0.1,0.1,0.1,0.2,0.2c0,0,0,0.1,0,0.1c-0.3,0.4-0.7,0.8-1.1,1.2c-0.1,0.1-0.1,0-0.1,0c-0.3-0.3-0.6-0.6-1-0.9
		c-0.1-0.1-0.2-0.2-0.3-0.3c0,0,0-0.1,0-0.1C15.1,21.5,15.2,21.5,15.2,21.4z"/>
	<path class="st5" d="M9,24.1C9,24.1,9,24.1,9,24.1c0.2,0.3,0.3,0.5,0.6,0.7c0.2,0.2,0.5,0.2,0.7,0.1c0.3-0.1,0.6-0.3,0.8-0.5
		c0,0,0,0,0-0.1c0,0,0.1,0.1,0.1,0.2c-0.1,0.1-0.2,0.1-0.3,0.2c-0.4,0.3-0.8,0.6-1.3,0.9c0,0,0,0,0,0c-0.1,0.1-0.1,0.1-0.2,0
		c0-0.1-0.1-0.1-0.1-0.2c-0.2-0.3-0.5-0.7-0.7-1c0,0-0.1-0.1-0.1-0.1C8.8,24.2,8.9,24.1,9,24.1z"/>
	<path class="st5" d="M7.9,31.6c0,0,0,0.1,0,0.1c0.2,0.3,0.3,0.6,0.6,0.9c0.2,0.2,0.4,0.3,0.6,0.3c0.3,0,0.6-0.1,0.8-0.2
		c0,0,0.1,0,0.1,0c0.1,0.1,0.1,0.1,0.2,0.2c0,0-0.1,0-0.1,0.1c-0.5,0.2-0.9,0.3-1.4,0.4c-0.1,0-0.1,0-0.2-0.1c-0.4-0.5-0.7-1-1-1.5
		c0,0,0,0,0,0c0,0,0-0.1,0-0.1C7.7,31.7,7.8,31.7,7.9,31.6z"/>
	<path class="st1" d="M17.2,3.3C17.2,3.3,17.2,3.3,17.2,3.3c0,0,0,0.1,0,0.1c0.1,0.5,0.2,1.1,0.2,1.6c0,0.6,0,1.2-0.1,1.8
		c0,0.2-0.1,0.4-0.2,0.6c0,0,0,0,0,0.1C17,7.2,16.9,7,16.8,6.7c0-0.1,0-0.1,0-0.2c0.2-0.7,0.3-1.4,0.3-2.1c0-0.3,0-0.7,0-1
		C17.1,3.4,17.1,3.3,17.2,3.3z"/>
	<path class="st8" d="M11.2,30.2C11.2,30.2,11.2,30.3,11.2,30.2c0.3,0.4,0.6,0.7,1,0.9c0.3,0.2,0.7,0.3,1,0.1
		c0.3-0.1,0.6-0.3,0.9-0.4c0.1-0.1,0.2-0.1,0.3-0.2c0,0,0,0,0,0c0.1,0,0.1,0.1,0.2,0.1c0,0.1-0.1,0.1-0.1,0.1
		c-0.6,0.4-1.2,0.7-1.8,1.1c-0.1,0-0.1,0-0.2,0c-0.6-0.5-1.1-0.9-1.6-1.4c0,0,0,0,0,0C11.1,30.3,11.1,30.2,11.2,30.2z"/>
	<path class="st5" d="M16.6,19.8c0.2,0.3,0.4,0.6,0.6,0.8c0.2,0.2,0.4,0.2,0.6,0.1c0.1-0.1,0.2-0.1,0.3-0.2c0.1-0.2,0.3-0.3,0.4-0.5
		c0,0,0,0,0,0c0.1,0.1,0.2,0.1,0.2,0.2c0,0.1-0.1,0.2-0.1,0.2c-0.2,0.3-0.5,0.7-0.8,1c0,0,0,0.1-0.1,0.1c0,0,0,0-0.1,0
		c-0.4-0.4-0.8-0.9-1.2-1.3c-0.1-0.1-0.1-0.1,0-0.2C16.5,19.9,16.6,19.8,16.6,19.8z"/>
	<path class="st7" d="M14.6,18.6c0,0,0-0.1,0-0.1c-0.2-0.3-0.4-0.5-0.6-0.8c-0.3-0.3-0.6-0.5-1-0.8c-0.5-0.3-1-0.5-1.5-0.7
		c0,0-0.1,0-0.1,0c-0.3-0.1-0.6-0.2-0.9-0.3c0.1,0,0.1,0,0.2,0c0.7,0.1,1.5,0.3,2.1,0.6c0.6,0.3,1.1,0.7,1.5,1.1
		c0.2,0.2,0.3,0.4,0.5,0.6c0.1,0.1,0.1,0.1,0,0.2C14.8,18.5,14.7,18.6,14.6,18.6z"/>
	<path class="st5" d="M13.7,19.7c0,0.1,0,0.1,0.1,0.1c0.2,0.3,0.4,0.5,0.7,0.7c0.4,0.3,0.6,0.2,0.9,0c0.2-0.2,0.4-0.4,0.6-0.6
		c0,0,0,0,0-0.1c0.1,0.2,0.1,0.2,0,0.3c-0.3,0.4-0.7,0.8-1.1,1.2c0,0,0,0,0,0c0,0.1-0.1,0-0.1,0c-0.2-0.2-0.3-0.4-0.5-0.6
		c-0.2-0.3-0.5-0.5-0.7-0.8c-0.1-0.1-0.1-0.1,0-0.2C13.7,19.8,13.7,19.8,13.7,19.7z"/>
	<path class="st8" d="M11.8,24.4c0.3,0.3,0.5,0.6,0.9,0.8c0.3,0.2,0.6,0.2,0.9,0c0.2-0.1,0.4-0.3,0.6-0.4c0.1-0.1,0.3-0.2,0.4-0.4
		c0.1,0,0.1,0.1,0.2,0.2c0,0,0,0.1,0,0.1c-0.5,0.4-1,0.9-1.6,1.3c0,0-0.1,0.1-0.1,0c-0.4-0.4-0.9-0.9-1.3-1.4c0,0,0,0,0,0
		C11.7,24.5,11.7,24.4,11.8,24.4z"/>
	<path class="st5" d="M9.3,25.6c0.1,0.1,0.1,0.1,0.1,0.2c-0.3,0.2-0.5,0.3-0.8,0.5c-0.2,0.1-0.3,0.2-0.5,0.3c0,0-0.1,0-0.1,0
		c-0.3-0.5-0.5-1-0.7-1.5c0-0.1,0-0.1,0.1-0.1c0.1,0,0.1,0,0.2,0c0.1,0,0.1,0.1,0.1,0.2c0.1,0.2,0.2,0.3,0.3,0.5
		c0.3,0.3,0.7,0.4,1.2,0.2C9.2,25.6,9.3,25.6,9.3,25.6z"/>
	<path class="st5" d="M18,21.5c0.2,0.2,0.3,0.4,0.5,0.5c0.2,0.1,0.3,0.2,0.5,0.3c0.3,0.1,0.5,0.1,0.7-0.1c0.2-0.1,0.3-0.3,0.4-0.5
		c0-0.1,0.1-0.1,0.1-0.2c0.1,0,0.2,0.1,0.2,0.1c0,0.1-0.1,0.1-0.1,0.2c-0.2,0.4-0.5,0.8-0.8,1.2c-0.1,0.1-0.1,0.1-0.2,0
		c-0.5-0.4-1-0.8-1.4-1.3c0,0,0,0-0.1-0.1c0,0,0-0.1,0-0.1C17.9,21.6,18,21.5,18,21.5z"/>
	<path class="st4" d="M13.5,19c0-0.1-0.1-0.2-0.1-0.3c-0.2-0.3-0.4-0.6-0.6-0.9c-0.3-0.4-0.7-0.7-1.2-1c-0.3-0.2-0.6-0.3-0.9-0.4
		c0,0-0.1,0-0.1,0c-0.1-0.1-0.2-0.1-0.2-0.3c0.1,0,0.1,0,0.2,0c0.2,0.1,0.4,0.1,0.6,0.2c0.4,0.1,0.7,0.4,1,0.6
		c0.3,0.3,0.7,0.6,0.9,0.9c0.3,0.4,0.6,0.7,0.7,1.2c0,0,0,0.1,0,0.1C13.8,19.1,13.6,19,13.5,19z"/>
	<path class="st3" d="M8.5,30.9c-0.1,0-0.2,0-0.3,0.1c-0.3,0.1-0.5-0.1-0.7-0.3c-0.2-0.2-0.3-0.5-0.4-0.8c0-0.1-0.1-0.3-0.1-0.4
		c0,0,0-0.1,0-0.1c0.1,0,0.3-0.1,0.4-0.1c0.1,0,0.1,0,0.2,0.1c0.2,0.5,0.5,0.9,0.8,1.3C8.4,30.7,8.5,30.8,8.5,30.9z"/>
	<path class="st5" d="M16.8,22.9c0.1,0.1,0.2,0.2,0.3,0.3c0.2,0.2,0.4,0.3,0.6,0.4c0.1,0.1,0.3,0.1,0.4,0.2c0.2,0,0.3,0,0.5-0.1
		c0.3-0.2,0.5-0.4,0.6-0.6c0,0,0,0,0-0.1c0.1,0,0.2,0.1,0.2,0.2c0,0.1-0.1,0.1-0.1,0.2c-0.3,0.3-0.5,0.7-0.8,1c0,0.1-0.1,0.1-0.1,0
		c-0.6-0.4-1.1-0.9-1.6-1.3c0,0,0,0,0,0C16.6,23,16.7,23,16.8,22.9z"/>
	<path class="st5" d="M10.7,22.9c0.1,0.2,0.2,0.3,0.3,0.4c0.1,0.1,0.2,0.2,0.3,0.2c0.3,0.2,0.6,0.2,0.8,0.1c0.2-0.1,0.4-0.2,0.5-0.3
		c0.2-0.1,0.3-0.3,0.5-0.4c0.1,0,0.1,0.1,0.2,0.2c0,0,0,0.1-0.1,0.1c-0.5,0.4-1,0.8-1.5,1.2c-0.1,0.1-0.1,0.1-0.2,0
		c-0.3-0.4-0.6-0.8-0.9-1.1c-0.1-0.1-0.1-0.1,0-0.2C10.6,22.9,10.6,22.9,10.7,22.9z"/>
	<path class="st5" d="M11.3,19.6c0.1,0.2,0.2,0.4,0.4,0.6c0.1,0.1,0.2,0.2,0.3,0.3c0.1,0.1,0.3,0.1,0.5,0c0.2-0.1,0.3-0.3,0.5-0.4
		c0.1-0.1,0.2-0.3,0.3-0.4c0.1,0.1,0.1,0.1,0,0.3c-0.3,0.4-0.7,0.8-1.1,1.2c-0.1,0.1-0.1,0.1-0.1,0c-0.3-0.4-0.6-0.9-0.9-1.3
		c0-0.1,0-0.1,0-0.1C11.2,19.8,11.2,19.7,11.3,19.6z"/>
	<path class="st4" d="M19.8,5.4C19.8,5.4,19.8,5.4,19.8,5.4c-0.3,0.5-0.6,0.9-0.8,1.4c-0.1,0.2-0.2,0.4-0.2,0.6
		c-0.2,0.5-0.4,1.1-0.5,1.7c-0.1,0.2-0.1,0.5-0.1,0.7c0,0,0,0,0,0c-0.2,0.1-0.4,0.2-0.6,0.4c0-0.1,0-0.1,0-0.2
		c0.2-0.6,0.4-1.2,0.7-1.8c0.3-0.6,0.5-1.1,0.8-1.7c0.2-0.4,0.4-0.8,0.7-1.2c0,0,0,0,0.1-0.1C19.9,5.3,19.9,5.3,19.8,5.4z"/>
	<path class="st3" d="M8.9,28.2c0,0.1-0.1,0.1-0.2,0.1c-0.1,0.1-0.3,0.1-0.4,0.1c-0.2,0-0.4-0.1-0.5-0.2c-0.3-0.3-0.4-0.6-0.5-1
		c0.2-0.1,0.5-0.2,0.7-0.3c0.1,0,0.1,0,0.1,0c0.2,0.4,0.4,0.7,0.7,1.1C8.8,28,8.8,28.1,8.9,28.2z"/>
	<path class="st3" d="M20.8,35.5c-0.1,0.1-0.3,0.3-0.4,0.4c-0.2,0.1-0.3,0.3-0.5,0.4c-0.3,0.2-0.5,0.3-0.9,0.4c-0.2,0-0.3,0-0.5,0
		c0,0-0.1,0-0.1,0c0.3-0.3,0.7-0.5,1-0.8c0.2-0.1,0.3-0.3,0.5-0.4c0,0,0.1-0.1,0.1-0.1C20.3,35.5,20.6,35.5,20.8,35.5z"/>
	<path class="st9" d="M19.3,17c0.5,0,1.1,0,1.2,0.2c-0.1,0-0.1,0-0.1,0c-0.2,0-0.3,0-0.5,0c-0.3,0-0.7,0-1,0.1
		c-0.7,0.1-1.5,0.3-2.2,0.6c-0.5,0.2-1,0.5-1.4,0.9c-0.1,0.1-0.2,0.2-0.3,0.3c-0.1,0.1-0.1,0.1-0.2,0.1c0,0-0.1,0-0.1,0
		c-0.1,0-0.1,0-0.2,0c0-0.1,0-0.1,0.1-0.1c0.9-0.8,1.8-1.3,2.9-1.7C18.2,17.2,18.7,17,19.3,17C19.3,17,19.3,17,19.3,17z"/>
	<path class="st5" d="M12.4,21.3c0.1,0.1,0.2,0.3,0.3,0.4c0.1,0.2,0.2,0.3,0.4,0.4c0.2,0.1,0.4,0.2,0.6,0.1c0.2-0.1,0.3-0.2,0.4-0.3
		c0.1-0.1,0.3-0.3,0.4-0.4c0,0,0.1-0.1,0.1-0.1c0,0,0.1,0.1,0.1,0.1c0.1,0.1,0.1,0.1,0,0.1c-0.2,0.2-0.4,0.3-0.5,0.5
		c-0.2,0.2-0.5,0.4-0.7,0.6c-0.1,0.1-0.1,0.1-0.1,0c-0.4-0.4-0.7-0.8-1-1.2c0,0,0-0.1,0-0.1C12.3,21.4,12.3,21.4,12.4,21.3z"/>
	<path class="st3" d="M19.1,20c0.1-0.1,0.1-0.2,0.2-0.3c0-0.1,0.1-0.1,0.1,0c0.3,0.1,0.6,0.3,0.8,0.5c0.2,0.1,0.3,0.3,0.5,0.5
		c0,0.2-0.2,0.3-0.4,0.3c-0.2,0-0.4-0.1-0.5-0.2c-0.2-0.2-0.4-0.3-0.6-0.5C19.1,20.1,19.1,20,19.1,20z"/>
	<path class="st5" d="M19.8,23.1c0.3,0.2,0.5,0.4,0.8,0.5c0.1,0.1,0.3,0.1,0.4,0.1c0.1,0,0.3,0,0.4-0.1c0.2-0.2,0.3-0.4,0.4-0.6
		c0,0,0-0.1,0-0.1c0.1,0.1,0.1,0.2,0.1,0.3c0,0.1,0,0.1,0,0.1c-0.2,0.3-0.4,0.6-0.5,0.9c-0.1,0.1-0.1,0.1-0.1,0
		c-0.5-0.3-1-0.6-1.4-0.9c0,0,0,0-0.1,0C19.6,23.2,19.6,23.2,19.8,23.1z"/>
	<path class="st4" d="M17.2,3.3c0,0,0,0.1,0,0.1c0,0.1,0,0.2,0,0.3c0,0.3,0,0.5,0,0.8c0,0.3,0,0.5-0.1,0.8c0,0.3-0.1,0.6-0.1,0.9
		c0,0.2-0.1,0.3-0.1,0.5c0,0,0-0.1,0-0.1c-0.1-0.1-0.1-0.2,0-0.3c0.1-0.3,0.1-0.7,0.1-1c0-0.7,0-1.4,0-2.1c0-0.4-0.1-0.9-0.1-1.3
		c0,0,0.1,0,0.1,0.1c0.1,0.1,0.1,0.2,0.1,0.3C17,2.7,17.1,3,17.2,3.3z"/>
	<path class="st3" d="M9.3,25.6c0,0.1-0.1,0.1-0.2,0.1c-0.2,0.1-0.5,0.2-0.7,0.1c-0.3-0.1-0.5-0.2-0.7-0.5c-0.1-0.1-0.2-0.3-0.2-0.5
		c0.2-0.1,0.5-0.2,0.7-0.3c0.1,0,0.2-0.1,0.2-0.1c0.1,0.1,0.1,0.2,0.2,0.2C8.9,24.9,9.1,25.2,9.3,25.6z"/>
	<path class="st5" d="M20.7,25.7c0,0.1,0.1,0.1,0.2,0.1c0.2,0.1,0.4,0.2,0.6,0.3c0.4,0.1,0.5,0.1,0.7-0.2c0.1-0.1,0.2-0.3,0.3-0.4
		c0-0.1,0-0.1,0-0.2c0,0.2,0,0.3,0.1,0.5c0,0,0,0.1,0,0.1c-0.2,0.3-0.3,0.6-0.5,0.9c0,0,0,0.1-0.1,0c-0.5-0.2-1-0.5-1.4-0.8
		C20.5,25.9,20.6,25.8,20.7,25.7z"/>
	<path class="st10" d="M13.7,22.9c0,0.1,0.1,0.1,0.1,0.2c0.2,0.2,0.4,0.4,0.6,0.6c0.1,0.1,0.2,0.1,0.2,0.2c0.2,0.1,0.4,0.1,0.5,0
		c0.1-0.1,0.2-0.1,0.3-0.2c0.1-0.1,0.2-0.2,0.3-0.3c0.1-0.1,0.2-0.2,0.3-0.3c0,0,0,0,0-0.1c0.1,0,0.1,0.1,0.2,0.1
		c0.1,0.1,0.1,0.1,0,0.1c-0.2,0.2-0.5,0.5-0.8,0.7c-0.1,0.1-0.3,0.3-0.5,0.4c0,0-0.1,0.1-0.1,0.1c-0.5-0.4-0.9-0.9-1.4-1.4
		C13.5,23,13.6,22.9,13.7,22.9z"/>
	<path class="st3" d="M11.1,37.3c0.4,0,0.7-0.1,1.1-0.1c0.1,0,0.1,0,0.1,0c0.3,0.2,0.7,0.4,1,0.6c0.1,0.1,0.3,0.2,0.5,0.2
		c0,0,0,0-0.1,0c-0.6-0.1-1.1-0.2-1.7-0.2c0,0,0,0-0.1,0C11.7,37.7,11.4,37.6,11.1,37.3C11.1,37.4,11.1,37.4,11.1,37.3z"/>
	<path class="st11" d="M12.8,12.7c-0.1,0-0.1-0.1-0.1-0.2c-0.2-0.4-0.3-0.8-0.6-1.2c-0.2-0.3-0.5-0.6-0.8-0.9c-0.6-0.5-1.2-0.8-2-1
		c0,0-0.1,0-0.1,0C9.2,9.4,9.1,9.3,8.9,9.2c0.1,0,0.2,0,0.3,0c0.5,0.1,1,0.3,1.4,0.5c0.9,0.5,1.6,1.2,2,2.2c0.1,0.1,0.1,0.2,0.1,0.3
		C12.9,12.4,12.9,12.6,12.8,12.7z"/>
	<path class="st5" d="M8.2,33.2c0.1,0.1,0.1,0.2,0.2,0.3c0,0-0.1,0-0.1,0c-0.3,0.1-0.6,0.1-0.9,0.2c-0.1,0-0.1,0-0.1-0.1
		c-0.2-0.5-0.3-1-0.4-1.6c0-0.1,0-0.1,0.1-0.2c0,0,0.1,0,0.1,0c0.1,0,0.1,0.1,0.1,0.2c0.1,0.2,0.2,0.5,0.3,0.7
		c0.2,0.3,0.3,0.5,0.6,0.4C8.1,33.2,8.1,33.2,8.2,33.2z"/>
	<path class="st10" d="M7.7,33.9C7.7,33.9,7.6,33.9,7.7,33.9c0.1,0.4,0.2,0.7,0.4,0.9c0.2,0.2,0.4,0.3,0.7,0.3c0.3,0,0.5,0,0.8,0
		c0,0,0.1,0,0.1-0.1c0.1,0.1,0.1,0.1,0.2,0.2c-0.1,0-0.1,0-0.2,0c-0.5,0.1-0.9,0.1-1.4,0.1c-0.1,0-0.1,0-0.2-0.1
		c-0.3-0.4-0.5-0.9-0.7-1.3c0,0,0,0,0-0.1C7.5,33.9,7.6,33.9,7.7,33.9z"/>
	<path class="st11" d="M19.3,17C19.3,17,19.3,17,19.3,17c-0.4,0-0.7,0.1-1,0.2c-0.4,0.1-0.9,0.2-1.3,0.4c-0.5,0.2-1,0.5-1.5,0.8
		c-0.3,0.2-0.5,0.4-0.8,0.6c-0.1,0.1-0.2,0.1-0.2,0.2c0.1,0,0.2,0,0.2,0c-0.1,0-0.3,0-0.4,0c0-0.1,0-0.1,0.1-0.1
		c0.5-0.6,1.2-1.1,1.9-1.4c0.6-0.3,1.2-0.5,1.9-0.6C18.6,17.1,19,17,19.3,17z"/>
	<path class="st11" d="M19.9,13.7c0,0-0.1,0-0.2,0c-0.5,0.1-1,0.2-1.5,0.5c-0.4,0.2-0.7,0.4-1.1,0.7c-0.2,0.1-0.3,0.3-0.5,0.5
		c-0.1,0.1-0.2,0.2-0.2,0.3c0,0.1-0.1,0.1-0.1,0.2c0,0.2,0,0.4,0,0.6c0,0,0-0.1,0-0.1c0-0.2,0-0.4,0-0.6c0-0.1,0-0.2,0.1-0.2
		c0.3-0.3,0.6-0.6,0.9-0.9c0.6-0.4,1.4-0.7,2.1-0.9c0.3-0.1,0.6-0.1,0.9-0.1c0,0,0.1,0,0.1,0c0,0-0.1,0-0.1,0
		C20.3,13.6,20.1,13.6,19.9,13.7z"/>
	<path class="st3" d="M21.6,31.1c0-0.1,0.1-0.2,0.2-0.2c0.3-0.4,0.6-0.8,0.8-1.2c0,0,0-0.1,0.1-0.1c0,0.6-0.1,1.2-0.2,1.8
		c0,0.1-0.1,0-0.1,0C22.1,31.3,21.9,31.2,21.6,31.1C21.6,31.1,21.6,31.1,21.6,31.1z"/>
	<path class="st7" d="M15.5,14.8C15.5,14.7,15.5,14.7,15.5,14.8c-0.3,0.2-0.5,0.3-0.6,0.5c-0.2,0.2-0.3,0.4-0.5,0.6
		c-0.2,0.3-0.4,0.6-0.5,0.9c0,0.1-0.1,0.1-0.1,0.2c-0.3-0.2-0.2-0.1-0.1-0.4c0.4-0.7,0.9-1.3,1.5-1.9c0.2-0.2,0.4-0.4,0.6-0.5
		c0,0,0,0,0,0C15.8,14.4,15.7,14.6,15.5,14.8z"/>
	<path class="st4" d="M9.8,17.8c-0.1,0-0.2-0.1-0.4-0.2c0.2-0.1,0.3-0.1,0.4-0.1c0.2,0,0.5,0.1,0.7,0.2c0.3,0.1,0.6,0.2,0.8,0.4
		c0.2,0.1,0.3,0.3,0.4,0.5c0,0,0,0,0,0.1c0.1,0.2,0.1,0.2-0.1,0.2c-0.3-0.4-0.7-0.7-1.1-0.9c-0.2-0.1-0.4-0.2-0.6-0.2
		C9.9,17.8,9.9,17.8,9.8,17.8z"/>
	<path class="st11" d="M19.6,5.3C19.5,5.3,19.5,5.3,19.6,5.3c-0.5,0.3-0.9,0.6-1.3,1c-0.5,0.5-0.8,1.1-1,1.8c0,0.1,0,0.1,0,0.2
		c0-0.1-0.1-0.3-0.1-0.4c0,0,0-0.1,0-0.1C17.6,7,18,6.4,18.5,5.9c0.3-0.3,0.6-0.5,0.9-0.7c0.1,0,0.2-0.1,0.3-0.1
		C19.7,5.2,19.6,5.3,19.6,5.3z"/>
	<path class="st7" d="M15.6,14.1c-0.1-0.1-0.1-0.3-0.2-0.4c-0.2-0.5-0.4-0.9-0.6-1.3c-0.2-0.3-0.3-0.6-0.6-0.8
		c-0.2-0.3-0.4-0.5-0.7-0.7c0,0,0,0-0.1,0c-0.1-0.1-0.2-0.3-0.3-0.4c0,0,0,0,0,0c0.3,0.2,0.5,0.5,0.7,0.7c0.5,0.6,1,1.3,1.4,2
		c0.2,0.3,0.3,0.5,0.4,0.8c0.1,0.1,0.1,0.1-0.1,0.2C15.7,14,15.6,14.1,15.6,14.1z"/>
	<path class="st11" d="M13.9,15.9c0-0.1,0-0.1,0-0.1c-0.2-0.4-0.5-0.7-0.8-1c-0.2-0.3-0.5-0.5-0.8-0.8c-0.3-0.2-0.5-0.4-0.8-0.6
		c-0.1-0.1-0.2-0.1-0.3-0.2c-0.1,0-0.2-0.1-0.3-0.1c-0.2-0.1-0.3-0.2-0.5-0.3c0,0,0,0,0,0c0.2,0,0.4,0.1,0.5,0.2
		c0.6,0.3,1.1,0.7,1.6,1.1c0.4,0.3,0.7,0.7,0.9,1c0.1,0.2,0.3,0.4,0.4,0.6C14,15.7,14,15.7,13.9,15.9C13.9,15.8,13.9,15.9,13.9,15.9
		z"/>
	<path class="st3" d="M20.5,35c0.3-0.3,0.6-0.6,0.8-0.9c0.1-0.1,0.2-0.2,0.2-0.3c0,0,0-0.1,0.1,0c0.1,0,0.2,0,0.3,0.1
		c-0.1,0.3-0.2,0.7-0.4,1c0,0-0.1,0.1-0.1,0.1C21.2,35,20.9,35.1,20.5,35C20.6,35,20.5,35,20.5,35z"/>
	<path class="st3" d="M6.9,26.1c0-0.3,0.1-0.7,0.2-1c0,0,0,0,0-0.1c0,0,0.1,0,0.1,0c0,0,0,0,0,0.1c0.2,0.4,0.4,0.8,0.6,1.3
		c0,0,0,0.1,0,0.1c-0.3,0.2-0.7,0.2-0.9-0.1C6.9,26.2,6.9,26.1,6.9,26.1z"/>
	<path class="st10" d="M19.1,20c0,0.1,0,0.1,0.1,0.1c0.2,0.2,0.4,0.4,0.6,0.5c0.1,0.1,0.2,0.2,0.4,0.2c0.2,0.1,0.4,0,0.5-0.2
		c0,0,0,0,0,0c0.2,0.2,0.2,0.2,0.1,0.4c-0.1,0.1-0.1,0.2-0.2,0.3c0,0,0,0,0,0c-0.1,0-0.1,0-0.1-0.1c-0.5-0.3-0.9-0.7-1.3-1.1
		C19,20.1,19,20.2,19.1,20C19.1,20,19.1,20,19.1,20z"/>
	<path class="st10" d="M10.7,19.6c0.1,0.2,0.1,0.2,0,0.4c-0.4,0.4-0.7,0.7-1.2,1c0,0-0.1,0-0.1,0.1c0,0-0.1,0-0.1,0
		c-0.1-0.1-0.1-0.3-0.2-0.4c0,0,0-0.1,0-0.1c0.1-0.1,0.1-0.1,0.2-0.2c0.2,0.1,0.3,0.1,0.4,0C10.1,20.2,10.3,20,10.7,19.6
		C10.6,19.7,10.6,19.7,10.7,19.6z"/>
	<path class="st3" d="M8.2,33.2c-0.1,0-0.2,0-0.3,0c-0.2,0-0.3-0.1-0.4-0.3c-0.1-0.1-0.1-0.2-0.2-0.3c-0.1-0.3-0.2-0.5-0.3-0.8
		c0.2-0.1,0.2-0.1,0.3,0.1c0.2,0.4,0.5,0.8,0.7,1.1C8.1,33.1,8.2,33.2,8.2,33.2z"/>
	<path class="st1" d="M9.8,17.8c0.1,0,0.2,0,0.3,0c0.4,0.1,0.8,0.3,1.1,0.6c0.1,0.1,0.2,0.2,0.4,0.4c0,0,0,0.1,0,0.1
		c-0.1,0-0.3,0.1-0.4,0.1c-0.1,0-0.1,0-0.1-0.1c-0.1-0.2-0.2-0.3-0.3-0.5c-0.2-0.2-0.5-0.4-0.7-0.6C10,17.9,9.9,17.9,9.8,17.8
		C9.9,17.8,9.9,17.8,9.8,17.8C9.8,17.8,9.8,17.8,9.8,17.8z"/>
	<path class="st3" d="M7.3,23.9c0.1-0.4,0.2-0.7,0.3-1.1c0,0,0,0,0.1,0.1c0.2,0.3,0.3,0.7,0.5,1c0,0,0,0,0,0c0,0,0,0,0,0
		c-0.2,0.1-0.4,0.3-0.7,0.2C7.4,24.2,7.3,24.1,7.3,23.9z"/>
	<path class="st12" d="M16.3,38c0.5-0.2,0.9-0.4,1.3-0.7c0,0,0.1-0.1,0.1,0c0.3,0,0.5,0.1,0.8,0.1c0,0.1,0,0.1-0.1,0.1
		c-0.1,0.1-0.3,0.2-0.4,0.2c-0.3,0.1-0.6,0.2-0.9,0.2C16.9,37.9,16.7,38,16.3,38C16.4,38,16.4,38,16.3,38z"/>
	<path class="st10" d="M21.1,28.4c0.2,0.1,0.4,0.2,0.6,0.2c0.2,0.1,0.5,0.2,0.7,0.2c0.1,0,0.1,0,0.1,0c0-0.1,0.1-0.1,0.1-0.2
		c0-0.3,0-0.5,0-0.8c0,0,0-0.1,0-0.1c0,0,0,0,0,0c0,0.4,0,0.9,0,1.3c0,0,0,0.1,0,0.1c0,0.1-0.1,0.1-0.2,0.1c-0.5-0.2-1-0.3-1.5-0.6
		C21,28.5,21,28.4,21.1,28.4z"/>
	<path class="st5" d="M6.9,26.1c0,0.2,0.2,0.4,0.4,0.4c0.1,0,0.2,0,0.3,0c0.1,0,0.1,0,0.2-0.1c0.1,0.1,0.1,0.1,0.1,0.2
		c0,0-0.1,0.1-0.1,0.1c-0.3,0.1-0.6,0.3-0.9,0.4c-0.1,0.1-0.2,0-0.1-0.1c0-0.2,0-0.5,0.1-0.7C6.9,26.2,6.8,26.1,6.9,26.1z"/>
	<path class="st13" d="M7.3,23.9c0,0.2,0.2,0.3,0.3,0.3c0.2,0,0.4-0.1,0.6-0.2c0.1,0.1,0.1,0.2,0.1,0.2c0,0,0,0,0,0
		c-0.3,0.2-0.7,0.3-1,0.5c-0.1,0-0.1,0-0.1-0.1c0-0.1-0.1-0.2,0-0.3C7.2,24.2,7.3,24.1,7.3,23.9z"/>
	<path class="st14" d="M10.7,19.6C10.7,19.7,10.6,19.7,10.7,19.6c-0.3,0.3-0.5,0.6-0.8,0.7c-0.1,0.1-0.2,0.1-0.3,0.1
		c-0.1,0-0.2,0-0.2-0.1c0.3-0.3,0.7-0.6,1.1-0.8C10.6,19.5,10.6,19.5,10.7,19.6z"/>
	<path class="st15" d="M6.7,28.2c0-0.2,0-0.4,0-0.6c0,0,0,0,0,0.1c0.2,0.4,0.3,0.8,0.5,1.2c0,0,0,0,0,0C7.2,29,7,29,6.9,28.9
		c-0.1-0.1-0.2-0.2-0.2-0.3C6.7,28.5,6.7,28.4,6.7,28.2z"/>
	<path class="st9" d="M11.3,17.7c0.1,0.1,0.2,0.3,0.2,0.4c-0.1,0-0.1-0.1-0.1-0.1c-0.4-0.2-0.8-0.4-1.2-0.5c-0.1,0-0.2,0-0.3-0.1
		c0,0,0-0.1,0-0.1C10.4,17.3,11,17.3,11.3,17.7z"/>
	<path class="st16" d="M11.3,17.7c-0.2-0.1-0.4-0.2-0.6-0.3c-0.2,0-0.5,0-0.7,0c0,0,0,0,0,0c-0.2,0-0.3,0-0.5,0c0,0,0,0,0,0
		c0,0,0,0,0,0c0.4-0.3,0.9-0.4,1.3-0.3c0.1,0,0.2,0.1,0.3,0.2C11.2,17.4,11.3,17.5,11.3,17.7z"/>
	<path class="st10" d="M20.5,35c0.1,0.1,0.3,0.1,0.4,0c0.2,0,0.4-0.1,0.6-0.2c0,0.1-0.1,0.3-0.2,0.4c0,0.1-0.1,0.1-0.1,0.1
		c-0.2,0-0.5,0-0.7,0c-0.1,0-0.2,0-0.3,0C20.3,35.1,20.4,35.1,20.5,35z"/>
	<path class="st10" d="M21.6,31.1c0.2,0.1,0.5,0.2,0.7,0.3c0.1,0,0.1,0,0.2,0c0,0.1,0,0.1,0,0.2c0,0.1,0,0.1-0.1,0.1
		c-0.3-0.1-0.7-0.2-1-0.3C21.4,31.2,21.5,31.1,21.6,31.1z"/>
	<path class="st12" d="M21.7,24.2c0.1-0.2,0.2-0.4,0.4-0.6c0.1,0.3,0.2,0.6,0.2,0.9c0,0-0.1,0-0.1,0C22.1,24.4,21.9,24.4,21.7,24.2
		C21.8,24.3,21.7,24.3,21.7,24.2z"/>
	<path class="st17" d="M16.5,19.2c0.1,0,0.1,0,0.2,0c-0.1,0.2-0.3,0.4-0.5,0.6c-0.1-0.2-0.3-0.4-0.4-0.6c0.1,0,0.3,0,0.4,0
		C16.4,19.4,16.5,19.3,16.5,19.2z"/>
	<path class="st18" d="M18.8,19.4c0.1,0,0.1,0,0.2,0.1c0,0,0.1,0,0.1,0c-0.1,0.2-0.2,0.3-0.3,0.5c-0.2-0.2-0.4-0.5-0.6-0.7
		c0.2,0,0.3,0,0.4,0.1C18.7,19.5,18.7,19.5,18.8,19.4z"/>
	<path class="st18" d="M9.1,21.1c0.1,0.2,0.1,0.2-0.1,0.3c-0.2,0.2-0.5,0.3-0.8,0.4c0,0-0.1,0-0.1,0.1c0.1-0.1,0.1-0.3,0.2-0.4
		c0.2-0.1,0.4-0.2,0.6-0.3C9,21.1,9,21.1,9.1,21.1z"/>
	<path class="st17" d="M6.7,28.2c0,0.1,0,0.2,0,0.2c0,0.3,0.2,0.5,0.5,0.4c0,0,0,0,0.1,0c0,0,0,0,0,0.1c0,0,0,0,0,0.1
		c-0.2,0.1-0.5,0.2-0.7,0.2c0,0,0,0,0,0C6.7,28.9,6.7,28.6,6.7,28.2C6.7,28.3,6.7,28.3,6.7,28.2z"/>
	<path class="st18" d="M13.6,19.2c0.1,0,0.1,0,0.2,0c-0.1,0.2-0.2,0.3-0.3,0.5c-0.2-0.2-0.3-0.5-0.5-0.7c0.1,0,0.3,0.1,0.4,0.1
		c0,0,0,0,0,0C13.4,19.3,13.4,19.3,13.6,19.2z"/>
	<path class="st19" d="M11.1,37.3C11.1,37.4,11.1,37.4,11.1,37.3c0.3,0.2,0.6,0.4,0.9,0.5c0,0,0,0,0,0c-0.2,0-0.4-0.1-0.6-0.1
		c-0.3-0.1-0.5-0.2-0.8-0.3c0,0-0.1,0-0.1-0.1C10.8,37.3,10.9,37.3,11.1,37.3z"/>
	<path class="st18" d="M21.7,24.2c0.1,0.1,0.2,0.1,0.2,0.1c0.1,0,0.2,0.1,0.3,0.1c0,0.1,0,0.2,0.1,0.3c-0.3-0.1-0.5-0.2-0.8-0.3
		C21.6,24.4,21.7,24.3,21.7,24.2z"/>
	<path class="st12" d="M9.1,21.1c-0.2,0.1-0.4,0.3-0.6,0.4c0,0-0.1,0.1-0.1,0c0.2-0.3,0.4-0.5,0.6-0.7C9,20.9,9,21,9.1,21.1z"/>
	<path class="st20" d="M7,31.3c0,0.1,0.1,0.2,0.1,0.3c0,0.1,0,0.1,0,0.1c-0.1,0-0.2,0-0.3,0.1c0-0.2-0.1-0.5-0.1-0.7
		c0.1,0,0.1,0.1,0.2,0.1C6.9,31.2,7,31.2,7,31.3z"/>
	<path class="st21" d="M21.3,21.6c0.1,0.1,0.1,0.2,0.1,0.2c0,0-0.1,0-0.1,0c-0.2-0.1-0.4-0.2-0.6-0.3c-0.1,0-0.1-0.1,0-0.1
		c0,0,0.1-0.1,0.1-0.2C21,21.4,21.2,21.5,21.3,21.6z"/>
	<path class="st21" d="M22.6,26.8c0,0.1,0,0.2,0,0.3c-0.2-0.1-0.3-0.1-0.4-0.2c0,0,0,0,0-0.1c0-0.1,0.1-0.2,0.1-0.2
		C22.4,26.7,22.5,26.7,22.6,26.8z"/>
	<path class="st22" d="M22.6,26.8c-0.1,0-0.2-0.1-0.2-0.1c0,0-0.1,0-0.1-0.1c0.1-0.1,0.2-0.3,0.2-0.4c0,0,0,0,0,0
		C22.6,26.4,22.6,26.6,22.6,26.8z"/>
	<path class="st23" d="M11.3,19.2c-0.1,0.2-0.2,0.3-0.4,0.4c0,0,0,0,0,0c-0.2-0.2-0.2-0.2,0.1-0.4C11.1,19.3,11.2,19.2,11.3,19.2
		C11.3,19.2,11.3,19.2,11.3,19.2z"/>
	<path class="st24" d="M21.3,21.6c-0.2-0.1-0.3-0.1-0.4-0.2c0,0,0,0,0-0.1c0-0.1,0.1-0.2,0.1-0.3C21.1,21.2,21.3,21.4,21.3,21.6z"/>
	<path class="st25" d="M18.1,37.6c0.1-0.1,0.2-0.1,0.3-0.2c0.1-0.1,0.2-0.1,0.2-0.1c0.1,0,0.3,0,0.4,0
		C18.7,37.4,18.4,37.6,18.1,37.6z"/>
	<path class="st26" d="M7,31.3C7,31.3,7,31.3,7,31.3c-0.1-0.1-0.2-0.2-0.3-0.3c0-0.1,0-0.2,0-0.3c0,0,0-0.1,0-0.1
		C6.8,30.8,6.9,31.1,7,31.3z"/>
	<path class="st27" d="M22.1,33.2c0,0.1-0.1,0.2-0.1,0.3c0,0.1,0,0.1-0.1,0.1c0,0-0.1,0-0.1,0C21.9,33.5,22,33.3,22.1,33.2
		C22.1,33.2,22.1,33.2,22.1,33.2z"/>
	<path class="st28" d="M13.6,19.2c0,0-0.1,0.1-0.1,0.2c-0.1-0.1-0.2-0.1-0.1-0.2C13.4,19.2,13.5,19.2,13.6,19.2z"/>
	<path class="st29" d="M18.8,19.4c0,0.1,0,0.1-0.1,0.1c0,0-0.1-0.1-0.1-0.1c0,0-0.1-0.1,0-0.1C18.7,19.4,18.8,19.4,18.8,19.4z"/>
	<path class="st30" d="M16.5,19.2c0,0.1-0.1,0.1-0.1,0.2c-0.1,0-0.1-0.1-0.1-0.2C16.4,19.2,16.4,19.2,16.5,19.2z"/>
	<path class="st31" d="M10.9,12.9C10.9,12.9,10.9,12.9,10.9,12.9c0.1,0,0.2,0.1,0.3,0.1c0,0,0,0,0,0C11.1,13.1,11,13,10.9,12.9z"/>
	<path class="st32" d="M16.3,38C16.4,38,16.4,38,16.3,38c0,0.1,0,0-0.1,0.1C16.3,38,16.3,38,16.3,38z"/>
	<path class="st33" d="M21.3,8.9c-0.1,0-0.1,0-0.2,0C21.2,8.9,21.3,8.9,21.3,8.9z"/>
	<path class="st34" d="M10.5,12.6C10.5,12.6,10.4,12.6,10.5,12.6c-0.1,0-0.1,0-0.1,0C10.4,12.6,10.4,12.6,10.5,12.6z"/>
	<path class="st35" d="M16.4,6.4C16.4,6.4,16.4,6.4,16.4,6.4C16.3,6.4,16.3,6.4,16.4,6.4C16.4,6.3,16.4,6.4,16.4,6.4z"/>
	<path class="st36" d="M6.7,30.6C6.7,30.6,6.7,30.7,6.7,30.6C6.7,30.6,6.7,30.6,6.7,30.6C6.7,30.6,6.7,30.6,6.7,30.6z"/>
	<path class="st37" d="M13.3,10.3C13.2,10.3,13.2,10.3,13.3,10.3c-0.1,0-0.1,0-0.1,0C13.2,10.3,13.2,10.3,13.3,10.3z"/>
	<path class="st38" d="M13.8,38.1C13.8,38.1,13.8,38.1,13.8,38.1c0.1,0,0.1,0,0.1,0C13.8,38.1,13.8,38.1,13.8,38.1z"/>
	<path class="st39" d="M16,11.6C16,11.6,15.9,11.6,16,11.6C15.9,11.6,15.9,11.7,16,11.6C15.9,11.6,15.9,11.6,16,11.6
		C15.9,11.6,15.9,11.6,16,11.6C15.9,11.6,15.9,11.6,16,11.6z"/>
	<path class="st7" d="M14.4,11c0,0,0-0.1,0-0.1C14.4,10.9,14.4,10.9,14.4,11z"/>
	<path class="st40" d="M15.9,14.2C15.9,14.2,15.9,14.2,15.9,14.2C15.9,14.1,15.9,14.1,15.9,14.2C16,14.1,16,14.1,15.9,14.2
		C15.9,14.1,15.9,14.2,15.9,14.2z"/>
	<path class="st41" d="M11.3,19.2C11.3,19.2,11.3,19.2,11.3,19.2C11.3,19.2,11.3,19.2,11.3,19.2C11.4,19.2,11.3,19.2,11.3,19.2z"/>
	<path class="st42" d="M22.1,33.2C22.1,33.2,22.1,33.2,22.1,33.2C22.1,33.2,22.1,33.2,22.1,33.2C22.1,33.2,22.1,33.2,22.1,33.2z"/>
	<path class="st43" d="M16,14.1C16,14.1,16,14.1,16,14.1C16,14.1,16,14,16,14.1C16,14.1,16,14.1,16,14.1z"/>
	<path class="st33" d="M21.4,8.9c0,0,0.1,0,0.1,0C21.5,8.9,21.4,8.9,21.4,8.9z"/>
	<path class="st33" d="M21.5,8.9C21.5,8.9,21.5,8.9,21.5,8.9C21.5,8.9,21.5,8.9,21.5,8.9C21.5,8.9,21.5,8.9,21.5,8.9z"/>
	<path class="st44" d="M16,11.6C15.9,11.6,15.9,11.6,16,11.6C15.9,11.6,15.9,11.5,16,11.6C16,11.5,16,11.5,16,11.6
		C16,11.6,16,11.6,16,11.6z"/>
	<path class="st45" d="M9.5,17.5C9.5,17.5,9.5,17.5,9.5,17.5C9.5,17.5,9.5,17.5,9.5,17.5C9.5,17.5,9.5,17.5,9.5,17.5z"/>
	<path class="st4" d="M17.2,3.4C17.2,3.4,17.2,3.4,17.2,3.4C17.2,3.4,17.2,3.4,17.2,3.4z"/>
	<path class="st4" d="M9.9,17.8C9.9,17.8,9.9,17.8,9.9,17.8C9.9,17.8,9.9,17.8,9.9,17.8z"/>
	<path class="st6" d="M17,17.2C17,17.2,17,17.2,17,17.2C17,17.2,17,17.2,17,17.2z"/>
	<path class="st7" d="M19.8,9.6C19.8,9.6,19.8,9.6,19.8,9.6C19.8,9.6,19.8,9.6,19.8,9.6z"/>
	<path class="st5" d="M13.4,25.9C13.4,25.9,13.4,25.9,13.4,25.9C13.4,25.9,13.4,25.9,13.4,25.9z"/>
	<path class="st7" d="M15.6,14.1C15.6,14.1,15.6,14.1,15.6,14.1C15.6,14.1,15.6,14.1,15.6,14.1z"/>
	<path class="st46" d="M12.8,30.8c-0.1,0-0.1,0-0.2-0.1c-0.1-0.1-0.2-0.2-0.3-0.4c0-0.1,0-0.2,0-0.2c0.1-0.2,0.3-0.3,0.5-0.3
		c0.1,0,0.2,0,0.3,0c0.1,0.1,0.2,0.2,0.3,0.3c0,0.1,0,0.1,0,0.2C13.3,30.6,13,30.8,12.8,30.8z"/>
	<path class="st46" d="M12.5,33.5c-0.2,0-0.4-0.1-0.4-0.3c-0.1-0.2,0-0.3,0.1-0.5c0.1-0.1,0.1-0.1,0.2-0.1c0.2-0.1,0.3-0.1,0.4,0.1
		c0.1,0.1,0.2,0.1,0.2,0.2c0.1,0.1,0.1,0.2,0,0.3C12.9,33.4,12.7,33.5,12.5,33.5z"/>
	<path class="st46" d="M17.3,33.6c-0.2,0-0.3-0.1-0.5-0.2c-0.1-0.1-0.1-0.2-0.1-0.3c0.1-0.2,0.3-0.4,0.5-0.5c0,0,0.1,0,0.1,0
		c0.2,0,0.3,0.1,0.4,0.3c0.1,0.1,0.1,0.3,0,0.4c-0.1,0.1-0.2,0.2-0.4,0.3C17.4,33.6,17.3,33.6,17.3,33.6z"/>
	<path class="st46" d="M14.3,28.9c0-0.1,0-0.1,0.1-0.2c0.1-0.1,0.2-0.2,0.4-0.3c0.1,0,0.1,0,0.2,0c0.1,0.1,0.2,0.1,0.3,0.2
		c0.1,0,0.1,0.1,0.1,0.2c0.1,0.1,0.1,0.2,0,0.3c-0.1,0.2-0.3,0.3-0.5,0.4c-0.1,0-0.2,0-0.3,0c-0.2-0.1-0.3-0.2-0.4-0.3
		C14.3,29.1,14.3,29,14.3,28.9z"/>
	<path class="st46" d="M15,34.1c0.2,0,0.5,0.2,0.6,0.4c0,0.1,0,0.2-0.1,0.3c-0.1,0.1-0.3,0.3-0.5,0.3c-0.1,0-0.2,0-0.2,0
		c-0.2-0.1-0.4-0.2-0.5-0.3c-0.1-0.1-0.1-0.2,0-0.3C14.4,34.3,14.7,34.1,15,34.1z"/>
	<path class="st46" d="M16.8,27.9c-0.2,0-0.4-0.1-0.5-0.3c-0.1-0.1-0.1-0.3,0-0.4c0.1-0.1,0.1-0.2,0.2-0.2c0.1-0.1,0.2-0.1,0.3-0.1
		c0.2,0,0.4,0.3,0.4,0.4c0,0.1,0,0.2,0,0.2c-0.1,0.1-0.2,0.2-0.4,0.3C16.9,27.9,16.8,27.9,16.8,27.9z"/>
	<path class="st46" d="M14.8,32.3c-0.2,0-0.6-0.3-0.6-0.5c0-0.1,0-0.2,0-0.2c0-0.1,0.1-0.1,0.1-0.1c0.1-0.1,0.3-0.2,0.4-0.3
		c0.1-0.1,0.2-0.1,0.3,0c0.1,0.1,0.3,0.2,0.4,0.3c0.1,0.1,0.1,0.3,0,0.4C15.3,32.1,15.1,32.3,14.8,32.3
		C14.9,32.3,14.9,32.3,14.8,32.3z"/>
	<path class="st46" d="M12.8,35.8c0,0.1-0.1,0.2-0.1,0.2c-0.1,0.1-0.2,0.1-0.3,0.2c-0.1,0-0.2,0-0.3,0c-0.1-0.1-0.3-0.2-0.3-0.4
		c-0.1-0.2,0-0.3,0.1-0.4c0.1-0.1,0.2-0.1,0.3-0.2c0.1,0,0.1,0,0.1,0c0.2,0.1,0.3,0.2,0.4,0.4C12.8,35.6,12.9,35.7,12.8,35.8z"/>
	<path class="st46" d="M10.2,31.3c0-0.1,0-0.1,0-0.2c0.1-0.1,0.2-0.2,0.4-0.3c0.1,0,0.2,0,0.2,0.1c0.1,0.1,0.2,0.3,0.2,0.4
		c0,0.1,0,0.2-0.1,0.3c-0.1,0.1-0.2,0.1-0.3,0.1c-0.1,0-0.2,0-0.3-0.1C10.2,31.7,10.2,31.5,10.2,31.3z"/>
	<path class="st46" d="M12.9,27.9c-0.1,0-0.2,0-0.2-0.1c-0.1-0.1-0.2-0.2-0.3-0.3c-0.1-0.2-0.1-0.3,0.1-0.5c0.1-0.1,0.2-0.2,0.4-0.3
		c0.1-0.1,0.2-0.1,0.3,0c0.2,0.1,0.3,0.3,0.5,0.5c0.1,0.1,0,0.2,0,0.3C13.4,27.7,13.2,27.8,12.9,27.9C13,27.9,13,27.9,12.9,27.9z"/>
	<path class="st46" d="M17.7,35.3c0.2,0,0.4,0.1,0.5,0.2c0.1,0.1,0.1,0.2,0.1,0.3c0,0.1,0,0.1-0.1,0.2c-0.2,0.2-0.4,0.3-0.6,0.4
		c-0.3,0.1-0.6-0.1-0.6-0.4c0-0.1,0-0.2,0-0.2C17.1,35.5,17.3,35.3,17.7,35.3z"/>
	<path class="st46" d="M14.8,26.5c-0.3,0-0.6-0.3-0.6-0.5c0-0.1,0.1-0.3,0.1-0.4c0.1-0.1,0.2-0.2,0.4-0.3c0.1,0,0.1-0.1,0.2,0
		c0.1,0,0.3,0.1,0.4,0.2c0.1,0.1,0.2,0.2,0.2,0.3c0,0.1,0.1,0.1,0,0.2C15.4,26.2,15.2,26.4,14.8,26.5C14.9,26.5,14.8,26.5,14.8,26.5
		z"/>
	<path class="st46" d="M11,29.1c-0.1,0-0.2,0-0.2-0.1c-0.1-0.1-0.2-0.2-0.3-0.3c-0.1-0.2-0.1-0.3,0.1-0.4c0.1-0.1,0.2-0.1,0.3-0.2
		c0.1-0.1,0.3-0.1,0.4,0c0.1,0.1,0.2,0.2,0.2,0.3c0.1,0.1,0.1,0.2,0,0.4C11.4,28.9,11.2,29.1,11,29.1z"/>
	<path class="st46" d="M14.9,37.4c-0.1,0-0.3,0-0.4-0.1c-0.2-0.1-0.2-0.3,0-0.4c0.1-0.1,0.2-0.2,0.4-0.2c0.1,0,0.2,0,0.3,0
		c0.1,0.1,0.2,0.2,0.3,0.3c0.1,0.1,0,0.2,0,0.3C15.2,37.3,15.1,37.4,14.9,37.4z"/>
	<path class="st46" d="M18.6,26.3c-0.1,0-0.3-0.1-0.4-0.2C18,26,18,25.8,18,25.7c0.1-0.2,0.2-0.3,0.4-0.4c0.1,0,0.2,0,0.2,0.1
		c0.1,0.1,0.2,0.3,0.3,0.5C19,26.1,18.9,26.3,18.6,26.3z"/>
	<path class="st46" d="M16.9,30.9c-0.2,0-0.4-0.1-0.5-0.2c-0.1-0.2-0.1-0.4,0-0.5c0.1-0.2,0.3-0.3,0.5-0.3c0.1,0,0.2,0,0.2,0
		c0.1,0.1,0.3,0.1,0.4,0.2c0.1,0.1,0.1,0.3,0.1,0.4c-0.1,0.1-0.2,0.2-0.3,0.3C17.1,30.8,17,30.9,16.9,30.9z"/>
	<path class="st46" d="M13.1,24.9C13.1,24.9,13.1,24.9,13.1,24.9c-0.2,0-0.5-0.4-0.5-0.6c0-0.1,0-0.1,0.1-0.2
		c0.1-0.2,0.2-0.3,0.4-0.4c0.1-0.1,0.3-0.1,0.4,0c0.1,0.1,0.2,0.2,0.3,0.2c0.2,0.2,0.2,0.4,0,0.5c-0.1,0.1-0.2,0.2-0.3,0.2
		C13.3,24.9,13.2,24.9,13.1,24.9z"/>
	<path class="st46" d="M18.4,28.7c0-0.3,0.2-0.5,0.5-0.5c0.1,0,0.3,0,0.4,0.1c0.1,0.1,0.2,0.2,0.2,0.3c0,0.2-0.3,0.6-0.5,0.6
		c-0.1,0-0.1,0-0.2-0.1c-0.1-0.1-0.2-0.2-0.3-0.3C18.4,28.9,18.4,28.8,18.4,28.7z"/>
	<path class="st46" d="M21.5,29.6C21.5,29.6,21.5,29.7,21.5,29.6c-0.1,0.3-0.2,0.5-0.5,0.6c0,0-0.1,0-0.1,0
		c-0.2-0.1-0.3-0.1-0.4-0.2c-0.1-0.1-0.1-0.1-0.1-0.2c0.1-0.4,0.6-0.6,0.9-0.4C21.5,29.4,21.5,29.5,21.5,29.6z"/>
	<path class="st46" d="M19.4,31c0.2,0,0.3,0,0.4,0.1c0.1,0.1,0.2,0.3,0.1,0.4c-0.1,0.2-0.2,0.3-0.4,0.4c-0.1,0.1-0.3,0-0.4,0
		c-0.1-0.1-0.2-0.1-0.3-0.2c-0.2-0.1-0.2-0.2-0.1-0.4C18.9,31.2,19.1,31,19.4,31z"/>
	<path class="st46" d="M10.4,34.4c-0.1,0-0.1,0-0.2-0.1C10.1,34.2,10,34.1,10,34c0-0.1,0-0.2,0.1-0.3c0.1-0.1,0.1-0.1,0.2-0.2
		c0.1-0.1,0.2-0.1,0.3,0c0.1,0.1,0.2,0.2,0.3,0.4c0,0.1,0,0.2,0,0.2C10.7,34.2,10.6,34.3,10.4,34.4C10.4,34.4,10.4,34.4,10.4,34.4z"
		/>
	<path class="st46" d="M16.5,23.8c0.1,0,0.1,0,0.2,0c0.1,0.1,0.3,0.2,0.4,0.3c0.1,0.2,0.2,0.3,0.1,0.5c-0.2,0.4-0.7,0.5-1.1,0.2
		c0,0-0.1-0.1-0.1-0.1c-0.1-0.1-0.2-0.3-0.1-0.5c0.1-0.2,0.2-0.3,0.3-0.4C16.4,23.8,16.4,23.8,16.5,23.8z"/>
	<path class="st46" d="M9.6,29.5c0,0.1,0,0.1,0,0.1c-0.1,0.1-0.2,0.2-0.4,0.2c0,0-0.1,0-0.1,0c-0.1-0.1-0.2-0.2-0.3-0.3
		c-0.1-0.1-0.1-0.1,0-0.2c0.1-0.2,0.3-0.3,0.4-0.3c0,0,0.1,0,0.1,0C9.4,29.2,9.5,29.3,9.6,29.5C9.6,29.5,9.6,29.5,9.6,29.5z"/>
	<path class="st46" d="M19.8,33.6c0.2,0,0.3,0.1,0.4,0.2c0.1,0.1,0.1,0.2,0,0.3c-0.1,0.2-0.3,0.3-0.6,0.4c-0.1,0-0.3,0-0.3-0.1
		c-0.1-0.1-0.1-0.3,0-0.4C19.4,33.7,19.6,33.6,19.8,33.6z"/>
	<path class="st46" d="M11.3,26.3c-0.3,0-0.5-0.3-0.5-0.5c0-0.1,0.1-0.2,0.1-0.2c0.1-0.1,0.3-0.2,0.4-0.3c0.1-0.1,0.2-0.1,0.3,0
		c0.1,0.1,0.2,0.2,0.3,0.3c0.1,0.2,0.1,0.3,0,0.4c-0.1,0.1-0.2,0.2-0.4,0.3C11.4,26.2,11.4,26.3,11.3,26.3z"/>
	<path class="st46" d="M13.9,21.3C13.9,21.3,13.9,21.3,13.9,21.3c0,0.2-0.3,0.5-0.5,0.5c-0.1,0-0.1,0-0.2,0
		c-0.1-0.1-0.2-0.2-0.3-0.3c-0.1-0.1-0.1-0.2,0-0.3c0.1-0.1,0.2-0.2,0.3-0.3c0.2-0.1,0.3-0.1,0.4,0.1c0.1,0.1,0.1,0.1,0.2,0.2
		C13.9,21.2,13.9,21.2,13.9,21.3z"/>
	<path class="st46" d="M19.2,20.9c0.1,0,0.2,0,0.2,0.1c0.1,0.1,0.2,0.2,0.3,0.3c0.1,0.1,0.1,0.3,0,0.4c-0.1,0.1-0.1,0.2-0.3,0.2
		c-0.1,0.1-0.3,0.1-0.4,0c-0.2-0.1-0.2-0.2-0.3-0.4c0-0.1,0-0.2,0-0.2c0.1-0.1,0.1-0.2,0.3-0.3C19,20.9,19.1,20.9,19.2,20.9z"/>
	<path class="st46" d="M12.4,22.7c0,0.1-0.1,0.2-0.1,0.3c-0.1,0.1-0.2,0.2-0.3,0.2c-0.1,0.1-0.3,0.1-0.4,0c-0.1-0.1-0.2-0.2-0.2-0.3
		c0-0.1,0-0.2,0-0.3c0.1-0.2,0.3-0.3,0.5-0.4c0.1-0.1,0.2-0.1,0.3,0c0.1,0.1,0.2,0.2,0.2,0.3C12.4,22.6,12.4,22.7,12.4,22.7z"/>
	<path class="st46" d="M21.6,22.8C21.6,22.8,21.6,22.8,21.6,22.8c0,0.2-0.3,0.5-0.5,0.5c-0.2,0-0.5-0.1-0.6-0.3
		c-0.1-0.1-0.1-0.2,0-0.4c0.1-0.1,0.1-0.2,0.2-0.3c0-0.1,0.1-0.1,0.2-0.1c0.1,0,0.1,0,0.1,0c0.2,0.1,0.4,0.2,0.5,0.3
		C21.6,22.6,21.6,22.7,21.6,22.8z"/>
	<path class="st46" d="M14.7,23.5c-0.1,0-0.1,0-0.2-0.1c-0.1-0.1-0.2-0.2-0.2-0.3c-0.1-0.2-0.1-0.4,0.1-0.6c0.1-0.1,0.2-0.2,0.3-0.2
		c0.1-0.1,0.3-0.1,0.4,0c0.1,0.1,0.2,0.2,0.3,0.3c0.1,0.1,0.1,0.2,0,0.4c-0.1,0.2-0.2,0.3-0.3,0.4C14.9,23.5,14.8,23.5,14.7,23.5z"
		/>
	<path class="st46" d="M14.5,19.9c0-0.1,0-0.1,0.1-0.2c0.2-0.2,0.4-0.3,0.6-0.1c0.1,0,0.1,0.1,0.2,0.1c0.1,0.1,0.1,0.2,0,0.3
		c-0.1,0.1-0.2,0.2-0.3,0.3c-0.1,0.1-0.2,0.1-0.4,0C14.5,20.2,14.5,20.1,14.5,19.9z"/>
	<path class="st46" d="M18,23.5c-0.1,0-0.1,0-0.2,0c-0.2-0.1-0.3-0.2-0.4-0.3c-0.1-0.1-0.1-0.3,0-0.4c0.1-0.1,0.2-0.2,0.3-0.3
		c0.2-0.1,0.3-0.1,0.4,0c0.2,0.1,0.3,0.3,0.3,0.5C18.5,23.2,18.3,23.5,18,23.5z"/>
	<path class="st46" d="M15.9,21.5c0.1-0.2,0.1-0.4,0.3-0.5c0.1-0.1,0.2-0.1,0.3,0c0.2,0.1,0.3,0.2,0.3,0.3c0,0.1,0,0.1,0,0.2
		c-0.1,0.2-0.2,0.3-0.4,0.4c0,0-0.1,0-0.1,0c-0.1,0-0.3-0.1-0.4-0.2C15.9,21.6,15.9,21.5,15.9,21.5z"/>
	<path class="st46" d="M19.9,24.7c-0.2,0-0.4-0.1-0.5-0.2c-0.1-0.1-0.1-0.2-0.1-0.4c0.1-0.1,0.2-0.2,0.3-0.3c0.1,0,0.1,0,0.1,0
		c0.2,0.1,0.3,0.2,0.4,0.5C20.3,24.6,20.1,24.8,19.9,24.7z"/>
	<path class="st46" d="M8.4,32c0-0.1,0-0.1,0.1-0.2c0.1-0.1,0.1-0.1,0.2,0C8.9,31.9,9,32,9.1,32.2c0.1,0.1,0,0.2-0.1,0.2
		c-0.2,0.1-0.3,0.1-0.5-0.1C8.5,32.3,8.4,32.2,8.4,32z"/>
	<path class="st46" d="M20.8,27.1c0,0.1-0.1,0.2-0.2,0.3c-0.2,0.1-0.4,0.1-0.6,0c-0.1-0.1-0.1-0.3-0.1-0.4c0.1-0.1,0.1-0.2,0.2-0.2
		c0.1-0.1,0.2,0,0.3,0C20.6,26.8,20.8,26.9,20.8,27.1z"/>
	<path class="st46" d="M8.5,22.5c0-0.1,0-0.2,0.1-0.3C8.7,22.1,8.8,22,9,22c0.1,0,0.2,0,0.3,0.1c0.1,0.1,0.2,0.3,0.2,0.4
		c0,0.1,0,0.2-0.1,0.2c-0.1,0.1-0.2,0.2-0.3,0.2c-0.2,0.1-0.3,0-0.4-0.1C8.6,22.7,8.5,22.6,8.5,22.5z"/>
	<path class="st46" d="M10,35.7c0.1,0,0.2,0,0.2,0.1c0.1,0.1,0.1,0.1,0.2,0.2c0.1,0.1,0.1,0.2,0,0.3c-0.1,0.1-0.1,0.1-0.2,0.1
		c-0.1,0-0.2,0-0.3-0.1c-0.1-0.1-0.2-0.2-0.2-0.2c-0.1-0.2,0-0.4,0.1-0.5C9.9,35.7,9.9,35.7,10,35.7z"/>
	<path class="st46" d="M12.3,19.3c0.2,0,0.4,0.3,0.4,0.5c0,0,0,0.1-0.1,0.1c-0.1,0.1-0.2,0.1-0.3,0.2c-0.1,0.1-0.2,0.1-0.3,0
		c-0.2-0.1-0.3-0.3-0.3-0.5c0-0.1,0-0.1,0.1-0.2C12,19.4,12.1,19.3,12.3,19.3z"/>
	<path class="st46" d="M11.3,21.1c0,0.1,0,0.2-0.1,0.2c-0.1,0.1-0.3,0.2-0.5,0.3c-0.1,0-0.2,0-0.3-0.1c-0.1-0.1-0.1-0.2-0.1-0.3
		c0-0.1,0-0.2,0.1-0.3c0.1-0.1,0.2-0.2,0.4-0.3c0.1-0.1,0.3,0,0.4,0.1C11.2,20.8,11.3,20.9,11.3,21.1z"/>
	<path class="st46" d="M9.5,27.3c-0.2,0-0.4-0.2-0.5-0.4c0-0.1,0-0.2,0.1-0.3c0.1-0.1,0.2-0.2,0.4-0.2c0.1,0,0.1,0,0.2,0
		c0.1,0.1,0.2,0.3,0.3,0.5c0,0.1,0,0.2-0.1,0.3C9.8,27.2,9.7,27.3,9.5,27.3z"/>
	<path class="st46" d="M10.6,24.1c0,0.1,0,0.1-0.1,0.2c-0.1,0.1-0.2,0.2-0.3,0.3c-0.1,0.1-0.3,0.1-0.4,0c-0.1-0.1-0.2-0.1-0.2-0.2
		c-0.1-0.2-0.1-0.3,0-0.4c0.1-0.1,0.2-0.2,0.4-0.3c0.1,0,0.1,0,0.2,0c0.1,0,0.1,0,0.2,0.1c0,0.1,0.1,0.1,0.1,0.2
		C10.6,24,10.6,24,10.6,24.1z"/>
	<path class="st46" d="M17.1,19.9c0,0,0-0.1,0-0.1c0.1-0.1,0.1-0.2,0.3-0.3c0.1-0.1,0.2-0.1,0.3,0c0.1,0.1,0.2,0.2,0.3,0.3
		c0.1,0.1,0.1,0.2,0,0.2c-0.1,0.1-0.2,0.2-0.3,0.3c-0.1,0.1-0.3,0.1-0.4,0C17.2,20.2,17.1,20,17.1,19.9z"/>
	<path class="st46" d="M21.3,32.7c-0.1,0-0.2,0-0.3-0.1c-0.1-0.1-0.2-0.3-0.1-0.4c0.1-0.1,0.2-0.2,0.3-0.3c0.2-0.1,0.4-0.1,0.5,0.1
		c0.1,0.1,0.1,0.2,0.1,0.3c-0.1,0.2-0.2,0.3-0.3,0.4C21.4,32.7,21.4,32.7,21.3,32.7z"/>
	<path class="st47" d="M8.5,34.7c-0.2,0-0.3-0.1-0.3-0.2c-0.1-0.1,0-0.3,0.1-0.4c0.1-0.1,0.2-0.1,0.3,0c0.1,0.1,0.2,0.2,0.2,0.3
		C8.8,34.6,8.8,34.7,8.5,34.7C8.6,34.7,8.5,34.7,8.5,34.7z"/>
	<path class="st46" d="M22.1,28.4c-0.1,0-0.1,0-0.2-0.1c-0.1-0.1-0.2-0.2-0.2-0.4c0-0.1,0.1-0.2,0.2-0.3c0.1-0.1,0.3-0.1,0.4,0
		c0.1,0,0.1,0.1,0.2,0.1c0,0.1,0.1,0.1,0,0.2c0,0.1,0,0.1-0.1,0.2C22.4,28.3,22.3,28.4,22.1,28.4z"/>
	<path class="st46" d="M22.1,25.4c0,0.3-0.4,0.6-0.7,0.4c-0.2-0.1-0.3-0.3-0.1-0.5c0.1-0.1,0.2-0.2,0.3-0.2
		C21.8,24.9,22.1,25.1,22.1,25.4z"/>
	<path class="st48" d="M7.9,30.3c0,0.1-0.1,0.2-0.2,0.2c-0.1,0-0.1-0.1-0.1-0.1c-0.1-0.1-0.1-0.1-0.1-0.2c0-0.1,0-0.1,0-0.2
		c0-0.1,0.1-0.1,0.2-0.1C7.7,30,7.8,30.1,7.9,30.3C7.9,30.3,7.9,30.3,7.9,30.3z"/>
	<path class="st47" d="M8.2,27.6c0,0.2-0.2,0.3-0.3,0.3c-0.1,0-0.1,0-0.1-0.1c-0.1-0.1-0.2-0.2-0.2-0.4c0-0.1,0-0.1,0-0.1
		c0.1-0.1,0.2-0.2,0.3-0.2c0,0,0.1,0,0.1,0C8.1,27.2,8.2,27.4,8.2,27.6C8.2,27.6,8.2,27.6,8.2,27.6z"/>
	<path class="st48" d="M20.1,36c0,0.1,0,0.1-0.1,0.1c-0.1,0.1-0.2,0.1-0.3,0.1c-0.1,0-0.2-0.1-0.1-0.2c0.1-0.1,0.2-0.2,0.3-0.2
		C20,35.8,20.1,35.9,20.1,36z"/>
	<path class="st46" d="M8,25.1c0-0.2,0.1-0.3,0.3-0.4c0.1,0,0.2,0,0.2,0.1c0.1,0.1,0.2,0.2,0.2,0.3c0,0.1,0,0.2,0,0.3
		c-0.1,0.2-0.5,0.3-0.7,0C8.1,25.2,8,25.1,8,25.1z"/>
	<path class="st49" d="M12.2,37.7c-0.1,0-0.2,0-0.2-0.1c0,0,0-0.1,0-0.1c0.1,0,0.1-0.1,0.2-0.1c0.1,0,0.1,0.2,0.1,0.2
		C12.4,37.7,12.3,37.7,12.2,37.7z"/>
	<path class="st49" d="M22.2,30.5c0.1,0,0.2,0.1,0.2,0.2c0,0.1-0.1,0.2-0.2,0.2c-0.1,0-0.1,0-0.1-0.1C22,30.7,22.1,30.5,22.2,30.5
		C22.2,30.5,22.2,30.5,22.2,30.5z"/>
	<path class="st48" d="M21.3,34.7c-0.1,0-0.2-0.1-0.1-0.2c0-0.1,0.1-0.1,0.1-0.1c0.1-0.1,0.2-0.1,0.2,0c0.1,0.1,0.1,0.1,0,0.2
		C21.5,34.7,21.4,34.7,21.3,34.7z"/>
	<path class="st50" d="M7,25.9c0-0.1,0-0.2,0.1-0.2c0.1,0,0.1,0,0.2,0.1c0,0.1,0.1,0.1,0.1,0.2c0,0.1,0,0.1-0.1,0.2
		c-0.1,0-0.1,0-0.2-0.1C7.1,26,7.1,26,7,25.9z"/>
	<path class="st48" d="M7.5,23.6c0-0.1,0.1-0.2,0.1-0.2c0.1,0,0.2,0,0.2,0.1c0,0,0,0.1,0,0.1c0,0.1,0,0.2-0.1,0.2
		c-0.1,0-0.2,0-0.2-0.1C7.6,23.7,7.6,23.7,7.5,23.6z"/>
	<path class="st51" d="M17.9,37.5c0,0.1-0.1,0.1-0.2,0.2c-0.1,0-0.2,0-0.2-0.1c0,0,0-0.1,0-0.1c0.1-0.1,0.2-0.2,0.3-0.1
		C17.9,37.4,17.9,37.4,17.9,37.5z"/>
</g>
<g>
	<path class="st52" d="M39.6,17.7c0.8,0.4,1.4,0.9,1.9,1.6c0.4,0.7,0.7,1.5,0.7,2.4c0,0.9-0.2,1.7-0.7,2.4c-0.4,0.7-1.1,1.2-1.9,1.6
		c-0.8,0.4-1.8,0.5-2.9,0.5h-2.9v3.7h-2.4V17.1h5.2C37.8,17.1,38.8,17.3,39.6,17.7z M39,23.5c0.5-0.4,0.8-1.1,0.8-1.9
		c0-0.8-0.3-1.4-0.8-1.9c-0.5-0.4-1.3-0.7-2.4-0.7h-2.8v5.1h2.8C37.6,24.2,38.4,24,39,23.5z"/>
	<path class="st52" d="M44.3,18.1c-0.3-0.3-0.4-0.6-0.4-1c0-0.4,0.1-0.7,0.4-1c0.3-0.3,0.6-0.4,1-0.4s0.8,0.1,1,0.4
		c0.3,0.2,0.4,0.6,0.4,0.9c0,0.4-0.1,0.7-0.4,1c-0.3,0.3-0.6,0.4-1,0.4C44.9,18.5,44.6,18.4,44.3,18.1z M44.2,20.1h2.3v9.7h-2.3
		V20.1z"/>
	<path class="st52" d="M57.9,21.1c0.7,0.7,1.1,1.8,1.1,3.2v5.6h-2.3v-5.3c0-0.9-0.2-1.5-0.6-1.9c-0.4-0.4-1-0.6-1.7-0.6
		c-0.8,0-1.5,0.3-2,0.8c-0.5,0.5-0.7,1.2-0.7,2.2v4.9h-2.3v-9.7h2.2v1.3c0.4-0.4,0.9-0.8,1.4-1c0.6-0.2,1.2-0.3,1.9-0.3
		C56.2,20,57.2,20.4,57.9,21.1z"/>
	<path class="st52" d="M71.2,25.7h-7.6c0.1,0.7,0.5,1.3,1,1.7c0.6,0.4,1.3,0.6,2.1,0.6c1.1,0,1.9-0.4,2.6-1.1l1.2,1.4
		c-0.4,0.5-1,0.9-1.7,1.2c-0.7,0.3-1.4,0.4-2.3,0.4c-1.1,0-2-0.2-2.8-0.6c-0.8-0.4-1.4-1-1.9-1.8c-0.4-0.8-0.7-1.6-0.7-2.6
		c0-0.9,0.2-1.8,0.6-2.6c0.4-0.8,1-1.4,1.8-1.8c0.8-0.4,1.6-0.6,2.6-0.6c0.9,0,1.8,0.2,2.5,0.6c0.7,0.4,1.3,1,1.7,1.8
		c0.4,0.8,0.6,1.6,0.6,2.6C71.2,25.2,71.2,25.4,71.2,25.7z M64.4,22.5c-0.5,0.4-0.8,1-0.9,1.7H69c-0.1-0.7-0.4-1.3-0.9-1.7
		s-1.1-0.7-1.9-0.7C65.5,21.8,64.9,22.1,64.4,22.5z"/>
	<path class="st52" d="M80.1,21.1c0.8,0.7,1.1,1.7,1.1,3.1v5.7h-2.2v-1.2c-0.3,0.4-0.7,0.8-1.2,1C77.4,29.9,76.8,30,76,30
		c-0.7,0-1.4-0.1-1.9-0.4c-0.5-0.2-1-0.6-1.3-1c-0.3-0.4-0.4-0.9-0.4-1.5c0-0.9,0.3-1.6,1-2.1c0.6-0.5,1.7-0.8,3.1-0.8H79V24
		c0-0.7-0.2-1.2-0.6-1.6c-0.4-0.4-1-0.5-1.8-0.5c-0.5,0-1.1,0.1-1.6,0.3c-0.5,0.2-1,0.4-1.3,0.7l-0.9-1.7c0.5-0.4,1.1-0.7,1.8-0.9
		c0.7-0.2,1.5-0.3,2.3-0.3C78.3,20,79.3,20.4,80.1,21.1z M78,27.9c0.4-0.3,0.8-0.6,0.9-1.1v-1.1h-2.4c-1.3,0-2,0.4-2,1.3
		c0,0.4,0.2,0.7,0.5,1c0.3,0.2,0.8,0.4,1.4,0.4C77.1,28.3,77.6,28.2,78,27.9z"/>
	<path class="st52" d="M92.1,20.6c0.7,0.4,1.3,1,1.8,1.7c0.4,0.8,0.6,1.6,0.6,2.6s-0.2,1.9-0.6,2.6c-0.4,0.8-1,1.3-1.8,1.8
		c-0.7,0.4-1.6,0.6-2.5,0.6c-1.3,0-2.4-0.4-3.1-1.3v4.7h-2.3V20.1h2.2v1.3c0.4-0.5,0.8-0.8,1.4-1c0.6-0.2,1.2-0.3,1.8-0.3
		C90.5,20,91.4,20.2,92.1,20.6z M91.4,27.2c0.5-0.6,0.8-1.3,0.8-2.2c0-0.9-0.3-1.6-0.8-2.2c-0.5-0.6-1.2-0.8-2.1-0.8
		c-0.5,0-1,0.1-1.5,0.4c-0.4,0.2-0.8,0.6-1,1.1c-0.3,0.5-0.4,1-0.4,1.6c0,0.6,0.1,1.1,0.4,1.6c0.3,0.5,0.6,0.8,1,1.1
		c0.4,0.2,0.9,0.4,1.5,0.4C90.1,28,90.8,27.8,91.4,27.2z"/>
	<path class="st52" d="M104.6,20.6c0.7,0.4,1.3,1,1.8,1.7c0.4,0.8,0.6,1.6,0.6,2.6s-0.2,1.9-0.6,2.6c-0.4,0.8-1,1.3-1.8,1.8
		c-0.7,0.4-1.6,0.6-2.5,0.6c-1.3,0-2.4-0.4-3.1-1.3v4.7h-2.3V20.1h2.2v1.3c0.4-0.5,0.8-0.8,1.4-1c0.6-0.2,1.2-0.3,1.8-0.3
		C103,20,103.9,20.2,104.6,20.6z M103.9,27.2c0.5-0.6,0.8-1.3,0.8-2.2c0-0.9-0.3-1.6-0.8-2.2c-0.5-0.6-1.2-0.8-2.1-0.8
		c-0.5,0-1,0.1-1.5,0.4c-0.4,0.2-0.8,0.6-1,1.1c-0.3,0.5-0.4,1-0.4,1.6c0,0.6,0.1,1.1,0.4,1.6c0.3,0.5,0.6,0.8,1,1.1
		c0.4,0.2,0.9,0.4,1.5,0.4C102.6,28,103.3,27.8,103.9,27.2z"/>
	<path class="st52" d="M109.2,16.3h2.3v13.5h-2.3V16.3z"/>
	<path class="st52" d="M123.5,25.7h-7.6c0.1,0.7,0.5,1.3,1,1.7c0.6,0.4,1.3,0.6,2.1,0.6c1.1,0,2-0.4,2.6-1.1l1.2,1.4
		c-0.4,0.5-1,0.9-1.7,1.2c-0.7,0.3-1.4,0.4-2.3,0.4c-1.1,0-2-0.2-2.8-0.6c-0.8-0.4-1.4-1-1.9-1.8c-0.4-0.8-0.7-1.6-0.7-2.6
		c0-0.9,0.2-1.8,0.6-2.6c0.4-0.8,1-1.4,1.8-1.8c0.8-0.4,1.6-0.6,2.6-0.6c0.9,0,1.8,0.2,2.5,0.6c0.7,0.4,1.3,1,1.7,1.8
		c0.4,0.8,0.6,1.6,0.6,2.6C123.6,25.2,123.6,25.4,123.5,25.7z M116.8,22.5c-0.5,0.4-0.8,1-0.9,1.7h5.5c-0.1-0.7-0.4-1.3-0.9-1.7
		c-0.5-0.4-1.1-0.7-1.9-0.7C117.9,21.8,117.3,22.1,116.8,22.5z"/>
	<path class="st52" d="M133.4,29.2c-1-0.6-1.9-1.3-2.4-2.3c-0.6-1-0.9-2.1-0.9-3.4c0-1.3,0.3-2.4,0.9-3.4c0.6-1,1.4-1.8,2.5-2.3
		c1-0.6,2.2-0.8,3.5-0.8c1,0,2,0.2,2.9,0.5c0.9,0.4,1.6,0.9,2.2,1.6l-1.5,1.4c-0.9-1-2.1-1.5-3.4-1.5c-0.9,0-1.7,0.2-2.4,0.6
		c-0.7,0.4-1.2,0.9-1.6,1.6c-0.4,0.7-0.6,1.5-0.6,2.3c0,0.9,0.2,1.6,0.6,2.3c0.4,0.7,0.9,1.2,1.6,1.6c0.7,0.4,1.5,0.6,2.4,0.6
		c1.3,0,2.5-0.5,3.4-1.5l1.5,1.5c-0.6,0.7-1.3,1.2-2.2,1.6c-0.9,0.4-1.8,0.5-2.9,0.5C135.6,30,134.5,29.8,133.4,29.2z"/>
	<path class="st52" d="M151,21.1c0.8,0.7,1.1,1.7,1.1,3.1v5.7h-2.2v-1.2c-0.3,0.4-0.7,0.8-1.2,1c-0.5,0.2-1.1,0.3-1.9,0.3
		s-1.4-0.1-1.9-0.4c-0.5-0.2-1-0.6-1.3-1c-0.3-0.4-0.4-0.9-0.4-1.5c0-0.9,0.3-1.6,1-2.1c0.7-0.5,1.7-0.8,3.1-0.8h2.5V24
		c0-0.7-0.2-1.2-0.6-1.6c-0.4-0.4-1-0.5-1.8-0.5c-0.5,0-1.1,0.1-1.6,0.3c-0.5,0.2-1,0.4-1.3,0.7l-0.9-1.7c0.5-0.4,1.1-0.7,1.8-0.9
		c0.7-0.2,1.5-0.3,2.3-0.3C149.1,20,150.2,20.4,151,21.1z M148.9,27.9c0.4-0.3,0.8-0.6,0.9-1.1v-1.1h-2.4c-1.3,0-2,0.4-2,1.3
		c0,0.4,0.2,0.7,0.5,1c0.3,0.2,0.8,0.4,1.4,0.4C147.9,28.3,148.4,28.2,148.9,27.9z"/>
	<path class="st52" d="M155.7,29.7c-0.8-0.2-1.4-0.5-1.8-0.8l0.9-1.7c0.4,0.3,1,0.5,1.6,0.7s1.2,0.3,1.8,0.3c1.4,0,2-0.4,2-1.1
		c0-0.3-0.2-0.6-0.5-0.7c-0.3-0.1-0.9-0.3-1.7-0.4c-0.8-0.1-1.5-0.3-2-0.4c-0.5-0.2-0.9-0.4-1.3-0.8c-0.4-0.4-0.6-0.9-0.6-1.6
		c0-0.9,0.4-1.7,1.2-2.2c0.8-0.6,1.8-0.8,3.1-0.8c0.7,0,1.3,0.1,2,0.2c0.7,0.2,1.2,0.4,1.6,0.6l-0.9,1.7c-0.8-0.5-1.8-0.7-2.8-0.7
		c-0.7,0-1.2,0.1-1.5,0.3c-0.3,0.2-0.5,0.5-0.5,0.8c0,0.4,0.2,0.6,0.6,0.8c0.4,0.2,0.9,0.3,1.7,0.4c0.8,0.1,1.4,0.3,1.9,0.4
		c0.5,0.2,0.9,0.4,1.3,0.8c0.4,0.4,0.5,0.9,0.5,1.6c0,0.9-0.4,1.6-1.2,2.2c-0.8,0.5-1.9,0.8-3.2,0.8C157.2,30,156.5,29.9,155.7,29.7
		z"/>
	<path class="st52" d="M172.9,21.1c0.7,0.7,1.1,1.8,1.1,3.2v5.6h-2.3v-5.3c0-0.9-0.2-1.5-0.6-1.9c-0.4-0.4-1-0.6-1.7-0.6
		c-0.8,0-1.5,0.3-2,0.8c-0.5,0.5-0.7,1.2-0.7,2.2v4.9h-2.3V16.3h2.3v4.9c0.4-0.4,0.8-0.7,1.4-0.9c0.6-0.2,1.2-0.3,1.8-0.3
		C171.1,20,172.1,20.4,172.9,21.1z"/>
</g>
</svg>
